{"glyphs":{"0":{"ha":1010,"x_min":81,"x_max":929,"o":"m 929 736 l 929 263 q 910 147 929 199 q 845 57 892 94 q 716 -1 799 19 q 506 -21 633 -21 l 506 -21 q 294 -1 378 -21 q 165 57 211 19 q 99 147 118 94 q 81 263 81 199 l 81 263 l 81 736 q 99 852 81 800 q 165 942 118 904 q 294 1000 211 979 q 506 1021 378 1021 l 506 1021 q 716 1000 633 1021 q 845 942 799 979 q 910 852 892 904 q 929 736 929 800 l 929 736 z m 394 686 l 394 313 q 415 266 394 285 q 506 247 435 247 l 506 247 q 597 266 578 247 q 617 313 617 285 l 617 313 l 617 686 q 597 732 617 714 q 506 750 578 750 l 506 750 q 415 732 435 750 q 394 686 394 714 l 394 686 z "},"1":{"ha":835,"x_min":67,"x_max":781,"o":"m 731 0 l 731 0 l 117 0 q 67 50 67 0 l 67 50 l 67 218 q 117 268 67 268 l 117 268 l 272 268 l 272 732 l 144 732 q 94 782 94 732 l 94 782 l 94 950 q 144 1000 94 1000 l 144 1000 l 547 1000 q 597 950 597 1000 l 597 950 l 597 268 l 731 268 q 781 218 781 268 l 781 218 l 781 50 q 731 0 781 0 z "},"2":{"ha":888,"x_min":56,"x_max":817,"o":"m 767 0 l 767 0 l 106 0 q 56 50 56 0 l 56 50 l 56 289 q 83 456 56 397 q 160 544 111 514 q 274 593 210 574 l 274 593 l 460 651 q 490 669 482 658 q 497 701 497 679 l 497 701 q 489 730 497 722 q 460 738 481 738 l 460 738 l 158 738 q 108 788 108 738 l 108 788 l 108 950 q 158 1000 108 1000 l 158 1000 l 568 1000 q 750 941 688 1000 q 813 769 813 882 l 813 769 l 813 639 q 755 479 813 533 q 596 393 697 425 l 596 393 l 407 333 q 378 322 386 328 q 371 292 371 315 l 371 292 l 371 263 l 767 263 q 817 213 817 263 l 817 213 l 817 50 q 767 0 817 0 z "},"3":{"ha":885,"x_min":68,"x_max":826,"o":"m 118 263 l 118 263 l 467 263 q 510 275 500 263 q 519 304 519 288 l 519 304 l 519 342 q 510 370 519 358 q 467 382 500 382 l 467 382 l 231 382 q 181 432 181 382 l 181 432 l 181 581 q 231 631 181 631 l 231 631 l 376 631 q 419 643 410 631 q 429 672 429 656 l 429 672 l 429 693 q 419 722 429 710 q 376 735 410 735 l 376 735 l 118 735 q 68 785 68 735 l 68 785 l 68 950 q 118 1000 68 1000 l 118 1000 l 506 1000 q 677 947 621 1000 q 733 801 733 893 l 733 801 l 733 721 q 715 629 733 668 q 651 571 697 590 l 651 571 q 788 510 750 560 q 826 369 826 461 l 826 369 l 826 231 q 758 62 826 124 q 557 0 690 0 l 557 0 l 118 0 q 68 50 68 0 l 68 50 l 68 213 q 118 263 68 263 z "},"4":{"ha":985,"x_min":88,"x_max":889,"o":"m 575 50 l 575 232 l 340 232 q 147 288 206 232 q 88 463 88 344 l 88 463 l 88 950 q 138 1000 88 1000 l 138 1000 l 353 1000 q 403 950 403 1000 l 403 950 l 403 569 q 446 522 403 522 l 446 522 l 575 522 l 575 950 q 625 1000 575 1000 l 625 1000 l 839 1000 q 889 950 889 1000 l 889 950 l 889 50 q 839 0 889 0 l 839 0 l 625 0 q 575 50 575 0 l 575 50 z "},"5":{"ha":899,"x_min":76,"x_max":839,"o":"m 568 0 l 568 0 l 126 0 q 76 50 76 0 l 76 50 l 76 213 q 126 263 76 263 l 126 263 l 485 263 q 522 294 522 263 l 522 294 l 522 349 q 485 381 522 381 l 485 381 l 140 381 q 90 431 90 381 l 90 431 l 90 950 q 140 1000 90 1000 l 140 1000 l 739 1000 q 789 950 789 1000 l 789 950 l 789 785 q 739 735 789 735 l 739 735 l 406 735 l 406 644 l 596 644 q 774 590 708 644 q 839 424 839 535 l 839 424 l 839 231 q 766 63 839 125 q 568 0 693 0 z "},"6":{"ha":963,"x_min":81,"x_max":897,"o":"m 394 653 l 394 622 q 571 643 464 643 l 571 643 q 768 615 697 643 q 868 532 839 588 q 897 393 897 476 l 897 393 l 897 260 q 864 112 897 175 q 744 14 831 49 q 497 -21 657 -21 l 497 -21 q 288 -1 369 -21 q 160 56 206 19 q 98 144 115 93 q 81 260 81 196 l 81 260 l 81 715 q 111 864 81 800 q 217 964 142 928 q 422 1000 292 1000 l 422 1000 l 742 1000 q 792 950 792 1000 l 792 950 l 792 786 q 742 736 792 736 l 742 736 l 482 736 q 413 720 431 736 q 394 653 394 704 l 394 653 z m 394 364 l 394 364 l 394 282 q 411 245 394 260 q 488 231 428 231 l 488 231 q 567 245 550 231 q 583 282 583 260 l 583 282 l 583 364 q 567 399 583 385 q 488 414 550 414 l 488 414 q 411 399 428 414 q 394 364 394 385 z "},"7":{"ha":871,"x_min":53,"x_max":799,"o":"m 103 1000 l 749 1000 q 799 950 799 1000 l 799 950 l 799 599 q 776 458 799 511 q 705 376 753 406 q 582 324 657 346 l 582 324 l 479 293 l 479 50 q 429 0 479 0 l 429 0 l 204 0 q 154 50 154 0 l 154 50 l 154 301 q 177 442 154 390 q 249 524 200 494 q 371 576 297 554 l 371 576 l 483 607 l 483 732 l 103 732 q 53 782 53 732 l 53 782 l 53 950 q 103 1000 53 1000 l 103 1000 z "},"8":{"ha":988,"x_min":65,"x_max":922,"o":"m 922 356 l 922 356 l 922 221 q 885 94 922 149 q 755 10 847 40 q 494 -21 663 -21 l 494 -21 q 234 10 328 -21 q 103 94 140 40 q 65 221 65 149 l 65 221 l 65 356 q 108 506 65 454 q 213 571 150 558 l 213 571 q 149 629 167 590 q 131 721 131 668 l 131 721 l 131 801 q 164 919 131 869 q 277 994 197 968 q 496 1021 357 1021 l 496 1021 q 715 994 636 1021 q 825 919 793 968 q 857 801 857 869 l 857 801 l 857 721 q 839 629 857 668 q 775 571 821 590 l 775 571 q 880 506 838 558 q 922 356 922 454 z m 372 347 l 372 274 q 396 237 372 251 q 494 222 419 222 l 494 222 q 593 237 571 222 q 615 274 615 251 l 615 274 l 615 347 q 593 383 615 368 q 494 397 571 397 l 494 397 q 396 383 419 397 q 372 347 372 368 l 372 347 z m 407 728 l 407 667 q 422 630 407 644 q 494 615 436 615 l 494 615 q 567 630 554 615 q 581 667 581 644 l 581 667 l 581 728 q 567 763 581 749 q 494 778 554 778 l 494 778 q 422 763 436 778 q 407 728 407 749 l 407 728 z "},"9":{"ha":963,"x_min":65,"x_max":882,"o":"m 568 347 l 568 378 q 392 357 499 357 l 392 357 q 195 385 267 357 q 94 469 124 413 q 65 607 65 525 l 65 607 l 65 740 q 99 888 65 825 q 219 986 132 951 q 465 1021 306 1021 l 465 1021 q 675 1001 593 1021 q 802 944 757 981 q 865 856 847 907 q 882 740 882 804 l 882 740 l 882 285 q 851 136 882 200 q 747 36 821 72 q 540 0 672 0 l 540 0 l 221 0 q 171 50 171 0 l 171 50 l 171 214 q 221 264 171 264 l 221 264 l 481 264 q 550 280 532 264 q 568 347 568 296 l 568 347 z m 568 636 l 568 636 l 568 718 q 552 755 568 740 q 475 769 536 769 l 475 769 q 396 755 413 769 q 379 718 379 740 l 379 718 l 379 636 q 396 601 379 615 q 475 586 413 586 l 475 586 q 552 601 536 586 q 568 636 568 615 z "}," ":{"ha":313,"x_min":null,"x_max":null,"o":""}," ":{"ha":313,"x_min":null,"x_max":null,"o":""},"!":{"ha":589,"x_min":113,"x_max":475,"o":"m 401 364 l 401 364 l 186 364 q 135 414 136 364 l 135 414 l 114 950 q 161 1000 113 1000 l 161 1000 l 426 1000 q 474 950 475 1000 l 474 950 l 454 414 q 401 364 453 364 z m 422 0 l 422 0 l 167 0 q 117 50 117 0 l 117 50 l 117 232 q 167 282 117 282 l 167 282 l 422 282 q 472 232 472 282 l 472 232 l 472 50 q 422 0 472 0 z "},"\"":{"ha":897,"x_min":63,"x_max":835,"o":"m 333 479 l 333 479 l 133 479 q 87 490 97 479 q 75 536 76 500 l 75 536 l 64 943 q 73 990 63 979 q 119 1000 83 1000 l 119 1000 l 349 1000 q 394 990 385 1000 q 403 943 404 979 l 403 943 l 392 536 q 380 490 390 500 q 333 479 369 479 z m 764 479 l 764 479 l 564 479 q 517 490 528 479 q 506 536 507 500 l 506 536 l 494 943 q 503 990 493 979 q 550 1000 514 1000 l 550 1000 l 779 1000 q 825 990 815 1000 q 833 943 835 979 l 833 943 l 822 536 q 810 490 821 500 q 764 479 800 479 z "},"#":{"ha":1042,"x_min":49,"x_max":993,"o":"m 132 50 l 132 50 l 151 188 l 99 188 q 49 238 49 188 l 49 238 l 49 386 q 99 436 49 436 l 99 436 l 188 436 l 207 571 l 149 571 q 99 621 99 571 l 99 621 l 99 769 q 149 819 99 819 l 149 819 l 243 819 l 261 950 q 274 988 264 976 q 311 1000 285 1000 l 311 1000 l 457 1000 q 507 950 513 1000 l 507 950 l 489 819 l 646 819 l 664 950 q 677 988 667 976 q 714 1000 688 1000 l 714 1000 l 860 1000 q 910 950 915 1000 l 910 950 l 892 819 l 943 819 q 993 769 993 819 l 993 769 l 993 621 q 943 571 993 571 l 943 571 l 856 571 l 836 436 l 893 436 q 943 386 943 436 l 943 386 l 943 238 q 893 188 943 188 l 893 188 l 800 188 l 781 50 q 767 12 778 24 q 731 0 757 0 l 731 0 l 585 0 q 535 50 529 0 l 535 50 l 554 188 l 397 188 l 378 50 q 365 12 375 24 q 328 0 354 0 l 328 0 l 182 0 q 132 50 126 0 z m 453 571 l 433 436 l 590 436 l 610 571 l 453 571 z "},"$":{"ha":903,"x_min":71,"x_max":847,"o":"m 613 3 l 613 3 l 613 -75 q 563 -125 613 -125 l 563 -125 l 361 -125 q 311 -75 311 -125 l 311 -75 l 311 0 l 121 0 q 71 50 71 0 l 71 50 l 71 213 q 121 263 71 263 l 121 263 l 494 263 q 522 274 513 263 q 531 303 531 286 l 531 303 q 522 338 531 326 q 494 350 513 349 l 494 350 l 286 379 q 130 444 189 394 q 71 610 71 493 l 71 610 l 71 756 q 134 926 71 864 q 311 997 197 988 l 311 997 l 311 1075 q 361 1125 311 1125 l 361 1125 l 563 1125 q 613 1075 613 1125 l 613 1075 l 613 1000 l 747 1000 q 797 950 797 1000 l 797 950 l 797 785 q 747 735 797 735 l 747 735 l 424 735 q 386 693 386 735 l 386 693 q 424 649 386 653 l 424 649 l 631 621 q 744 587 696 611 q 820 515 793 563 q 847 390 847 468 l 847 390 l 847 244 q 785 76 847 138 q 613 3 724 14 z "},"%":{"ha":1432,"x_min":58,"x_max":1383,"o":"m 1383 421 l 1383 157 q 1363 71 1383 108 q 1290 13 1343 33 q 1138 -8 1238 -8 l 1138 -8 q 985 13 1039 -8 q 910 71 931 33 q 889 157 889 108 l 889 157 l 889 421 q 910 508 889 471 q 985 565 931 544 q 1138 586 1039 586 l 1138 586 q 1290 565 1238 586 q 1363 508 1343 544 q 1383 421 1383 471 l 1383 421 z m 553 842 l 553 578 q 533 492 553 529 q 460 433 513 454 q 307 413 407 413 l 307 413 q 154 433 208 413 q 79 492 100 454 q 58 578 58 529 l 58 578 l 58 842 q 79 928 58 892 q 154 986 100 965 q 307 1007 208 1007 l 307 1007 q 460 986 407 1007 q 533 928 513 965 q 553 842 553 892 l 553 842 z m 489 50 l 489 50 l 711 950 q 730 988 718 975 q 768 1000 742 1000 l 768 1000 l 914 1000 q 957 950 969 1000 l 957 950 l 735 50 q 717 13 729 25 q 678 0 704 0 l 678 0 l 532 0 q 489 50 476 0 z m 260 799 l 260 621 q 268 603 260 611 q 307 596 276 596 l 307 596 q 344 603 336 596 q 353 621 353 611 l 353 621 l 353 799 q 344 815 353 807 q 307 822 336 822 l 307 822 q 268 815 276 822 q 260 799 260 807 l 260 799 z m 1090 378 l 1090 200 q 1099 183 1090 190 q 1138 175 1107 175 l 1138 175 q 1175 183 1167 175 q 1183 200 1183 190 l 1183 200 l 1183 378 q 1175 394 1183 386 q 1138 401 1167 401 l 1138 401 q 1099 394 1107 401 q 1090 378 1090 386 l 1090 378 z "},"&":{"ha":1064,"x_min":51,"x_max":1031,"o":"m 411 260 l 411 260 l 608 260 q 650 274 639 260 q 661 315 661 288 l 661 315 l 661 507 q 711 557 661 557 l 711 557 l 981 557 q 1031 507 1031 557 l 1031 507 l 1031 357 q 981 307 1031 307 l 981 307 l 949 307 l 949 244 q 885 67 949 133 q 700 0 821 0 l 700 0 l 314 0 q 119 67 186 0 q 51 244 51 133 l 51 244 l 51 356 q 101 509 51 454 q 226 571 151 564 l 226 571 q 163 629 181 590 q 144 721 144 668 l 144 721 l 144 788 q 207 940 144 879 q 411 1000 269 1000 l 411 1000 l 704 1000 q 754 950 754 1000 l 754 950 l 754 790 q 704 740 754 740 l 704 740 l 501 740 q 458 728 468 740 q 449 699 449 715 l 449 699 l 449 669 q 458 640 449 653 q 501 628 468 628 l 501 628 l 522 628 q 572 578 572 628 l 572 578 l 572 435 q 522 385 572 385 l 522 385 l 411 385 q 368 373 378 385 q 358 344 358 361 l 358 344 l 358 301 q 368 272 358 285 q 411 260 378 260 z "},"'":{"ha":494,"x_min":76,"x_max":418,"o":"m 347 479 l 347 479 l 147 479 q 101 490 111 479 q 89 536 90 500 l 89 536 l 78 943 q 87 990 76 979 q 133 1000 97 1000 l 133 1000 l 363 1000 q 408 990 399 1000 q 417 943 418 979 l 417 943 l 406 536 q 394 490 404 500 q 347 479 383 479 z "},"(":{"ha":596,"x_min":67,"x_max":533,"o":"m 483 -111 l 483 -111 l 408 -111 q 203 -75 278 -111 q 97 25 128 -39 q 67 172 67 89 l 67 172 l 67 826 q 97 975 67 911 q 203 1075 128 1039 q 408 1111 278 1111 l 408 1111 l 483 1111 q 533 1061 533 1111 l 533 1061 l 533 893 q 483 843 533 843 l 483 843 l 440 843 q 395 826 407 843 q 383 774 383 810 l 383 774 l 383 224 q 395 171 383 188 q 440 154 407 154 l 440 154 l 483 154 q 533 104 533 154 l 533 104 l 533 -61 q 483 -111 533 -111 z "},")":{"ha":596,"x_min":63,"x_max":529,"o":"m 188 -111 l 188 -111 l 113 -111 q 63 -61 63 -111 l 63 -61 l 63 104 q 113 154 63 154 l 113 154 l 156 154 q 201 171 189 154 q 213 224 213 188 l 213 224 l 213 774 q 201 826 213 810 q 156 843 189 843 l 156 843 l 113 843 q 63 893 63 843 l 63 893 l 63 1061 q 113 1111 63 1111 l 113 1111 l 188 1111 q 394 1075 319 1111 q 499 975 468 1039 q 529 826 529 911 l 529 826 l 529 172 q 499 25 529 89 q 394 -75 468 -39 q 188 -111 319 -111 z "},"*":{"ha":997,"x_min":75,"x_max":922,"o":"m 499 425 l 397 229 q 367 197 381 200 q 324 213 354 193 l 324 213 l 193 307 q 163 342 164 328 q 185 382 161 356 l 185 382 l 336 542 l 125 576 q 83 594 90 583 q 86 640 75 606 l 86 640 l 136 794 q 160 835 147 829 q 204 825 174 840 l 204 825 l 401 736 l 369 943 q 374 990 364 979 q 419 1000 385 1000 l 419 1000 l 582 1000 q 627 990 618 1000 q 629 943 636 979 l 629 943 l 601 736 l 792 825 q 836 835 824 840 q 860 794 849 829 l 860 794 l 911 640 q 915 594 922 606 q 872 576 908 583 l 872 576 l 660 542 l 813 382 q 835 342 836 356 q 804 307 833 328 l 804 307 l 674 213 q 631 197 643 193 q 601 229 618 200 l 601 229 l 499 425 z "},"+":{"ha":1019,"x_min":97,"x_max":922,"o":"m 374 371 l 147 371 q 97 421 97 371 l 97 421 l 97 579 q 147 629 97 629 l 147 629 l 374 629 l 374 863 q 424 913 374 913 l 424 913 l 596 913 q 646 863 646 913 l 646 863 l 646 629 l 872 629 q 922 579 922 629 l 922 579 l 922 421 q 872 371 922 371 l 872 371 l 646 371 l 646 138 q 596 88 646 88 l 596 88 l 424 88 q 374 138 374 88 l 374 138 l 374 371 z "},",":{"ha":533,"x_min":76,"x_max":457,"o":"m 251 -139 l 251 -139 l 144 -139 q 94 -89 94 -139 l 94 -89 l 94 -33 q 144 17 94 17 l 144 17 l 240 17 q 278 56 278 17 l 278 56 l 278 76 l 126 76 q 76 126 76 76 l 76 126 l 76 332 q 126 382 76 382 l 126 382 l 407 382 q 457 332 457 382 l 457 332 l 457 71 q 401 -87 457 -35 q 251 -139 346 -139 z "},"-":{"ha":583,"x_min":56,"x_max":528,"o":"m 478 357 l 106 357 q 56 407 56 357 l 56 407 l 56 593 q 106 643 56 643 l 106 643 l 478 643 q 528 593 528 643 l 528 593 l 528 407 q 478 357 528 357 l 478 357 z "},"‐":{"ha":583,"x_min":56,"x_max":528,"o":"m 478 357 l 106 357 q 56 407 56 357 l 56 407 l 56 593 q 106 643 56 643 l 106 643 l 478 643 q 528 593 528 643 l 528 593 l 528 407 q 478 357 528 357 l 478 357 z "},".":{"ha":533,"x_min":76,"x_max":457,"o":"m 407 0 l 407 0 l 126 0 q 76 50 76 0 l 76 50 l 76 332 q 126 382 76 382 l 126 382 l 407 382 q 457 332 457 382 l 457 332 l 457 50 q 407 0 457 0 z "},"/":{"ha":482,"x_min":1,"x_max":481,"o":"m 7 -75 l 7 -75 l 174 1075 q 187 1113 176 1101 q 224 1125 197 1125 l 224 1125 l 425 1125 q 475 1075 481 1125 l 475 1075 l 308 -75 q 295 -113 306 -101 q 258 -125 285 -125 l 258 -125 l 57 -125 q 7 -75 1 -125 z "},":":{"ha":533,"x_min":76,"x_max":457,"o":"m 407 0 l 407 0 l 126 0 q 76 50 76 0 l 76 50 l 76 332 q 126 382 76 382 l 126 382 l 407 382 q 457 332 457 382 l 457 332 l 457 50 q 407 0 457 0 z m 407 493 l 407 493 l 126 493 q 76 543 76 493 l 76 543 l 76 825 q 126 875 76 875 l 126 875 l 407 875 q 457 825 457 875 l 457 825 l 457 543 q 407 493 457 493 z "},";":{"ha":533,"x_min":76,"x_max":457,"o":"m 251 -139 l 251 -139 l 144 -139 q 94 -89 94 -139 l 94 -89 l 94 -33 q 144 17 94 17 l 144 17 l 240 17 q 278 56 278 17 l 278 56 l 278 76 l 126 76 q 76 126 76 76 l 76 126 l 76 332 q 126 382 76 382 l 126 382 l 407 382 q 457 332 457 382 l 457 332 l 457 71 q 401 -87 457 -35 q 251 -139 346 -139 z m 407 493 l 407 493 l 126 493 q 76 543 76 493 l 76 543 l 76 825 q 126 875 76 875 l 126 875 l 407 875 q 457 825 457 875 l 457 825 l 457 543 q 407 493 457 493 z "},"<":{"ha":992,"x_min":111,"x_max":867,"o":"m 817 82 l 817 82 l 288 233 q 191 274 231 250 q 131 339 151 297 q 111 449 111 381 l 111 449 l 111 549 q 131 659 111 618 q 191 724 151 700 q 288 764 231 747 l 288 764 l 817 915 q 867 872 867 925 l 867 872 l 867 689 q 855 649 867 663 q 817 632 843 636 l 817 632 l 418 525 q 399 517 404 522 q 394 499 394 511 l 394 499 q 399 481 394 486 q 418 472 404 475 l 418 472 l 817 365 q 855 349 843 361 q 867 308 867 336 l 867 308 l 867 125 q 817 82 867 72 z "},"=":{"ha":1019,"x_min":97,"x_max":922,"o":"m 872 163 l 147 163 q 97 213 97 163 l 97 213 l 97 371 q 147 421 97 421 l 147 421 l 872 421 q 922 371 922 421 l 922 371 l 922 213 q 872 163 922 163 l 872 163 z m 872 579 l 147 579 q 97 629 97 579 l 97 629 l 97 788 q 147 838 97 838 l 147 838 l 872 838 q 922 788 922 838 l 922 788 l 922 629 q 872 579 922 579 l 872 579 z "},">":{"ha":992,"x_min":125,"x_max":881,"o":"m 704 233 l 704 233 l 175 82 q 125 125 125 72 l 125 125 l 125 308 q 137 349 125 336 q 175 365 149 361 l 175 365 l 574 472 q 593 481 589 475 q 597 499 597 486 l 597 499 q 593 517 597 511 q 574 525 589 522 l 574 525 l 175 632 q 137 649 149 636 q 125 689 125 663 l 125 689 l 125 872 q 175 915 125 925 l 175 915 l 704 764 q 801 724 763 747 q 860 659 840 700 q 881 549 881 618 l 881 549 l 881 449 q 860 339 881 381 q 801 274 840 297 q 704 233 763 250 z "},"?":{"ha":911,"x_min":63,"x_max":849,"o":"m 633 379 l 633 379 l 257 328 q 219 335 231 325 q 203 371 207 344 l 203 371 l 174 554 q 219 611 165 604 l 219 611 l 496 650 q 533 693 533 656 l 533 693 q 496 732 533 732 l 496 732 l 113 732 q 63 782 63 732 l 63 782 l 63 950 q 113 1000 63 1000 l 113 1000 l 561 1000 q 773 938 697 1000 q 849 756 849 875 l 849 756 l 849 610 q 790 443 849 493 q 633 379 732 393 z m 478 0 l 478 0 l 224 0 q 174 50 174 0 l 174 50 l 174 232 q 185 271 174 260 q 224 282 197 282 l 224 282 l 478 282 q 528 232 528 282 l 528 232 l 528 50 q 478 0 528 0 z "},"@":{"ha":1204,"x_min":83,"x_max":1121,"o":"m 810 139 l 810 139 l 547 139 q 399 165 453 139 q 324 236 346 190 q 303 342 303 282 l 303 342 l 303 610 q 324 717 303 671 q 399 788 346 763 q 547 814 453 814 l 547 814 l 860 814 q 896 778 896 814 l 896 778 l 896 293 q 966 328 950 293 q 982 419 982 364 l 982 419 l 982 789 q 951 896 982 850 q 838 967 919 942 q 603 993 756 993 l 603 993 q 367 967 450 993 q 253 896 285 942 q 222 789 222 850 l 222 789 l 222 208 q 253 103 222 149 q 367 33 285 58 q 603 7 450 7 l 603 7 l 867 7 q 903 -3 893 7 q 914 -40 914 -14 l 914 -40 l 914 -79 q 903 -116 914 -106 q 867 -126 893 -126 l 867 -126 l 603 -126 q 346 -102 447 -126 q 187 -33 244 -78 q 106 75 129 13 q 83 214 83 138 l 83 214 l 83 783 q 106 923 83 860 q 187 1031 129 986 q 346 1101 244 1076 q 603 1126 447 1126 l 603 1126 q 860 1101 760 1126 q 1018 1031 961 1076 q 1098 923 1075 986 q 1121 783 1121 860 l 1121 783 l 1121 422 q 1097 274 1121 338 q 1007 174 1074 210 q 810 139 940 139 z m 576 329 l 669 329 l 669 636 l 590 636 q 540 621 551 636 q 529 586 529 606 l 529 586 l 529 376 q 539 342 529 356 q 576 329 549 329 l 576 329 z "},"A":{"ha":1014,"x_min":75,"x_max":939,"o":"m 379 244 l 379 50 q 329 0 379 0 l 329 0 l 125 0 q 75 50 75 0 l 75 50 l 75 417 q 88 513 75 458 q 129 639 101 567 l 129 639 l 250 954 q 321 1000 265 1000 l 321 1000 l 694 1000 q 764 954 749 1000 l 764 954 l 885 639 q 926 513 913 567 q 939 417 939 458 l 939 417 l 939 50 q 889 0 939 0 l 889 0 l 679 0 q 625 50 625 0 l 625 50 l 625 244 l 379 244 z m 458 708 l 458 708 l 393 497 l 611 497 l 546 708 q 519 732 536 732 l 519 732 l 485 732 q 458 708 468 732 z "},"B":{"ha":1007,"x_min":96,"x_max":949,"o":"m 679 0 l 679 0 l 146 0 q 96 50 96 0 l 96 50 l 96 950 q 146 1000 96 1000 l 146 1000 l 589 1000 q 790 949 725 1000 q 856 788 856 897 l 856 788 l 856 721 q 774 571 856 606 l 774 571 q 906 510 864 563 q 949 356 949 458 l 949 356 l 949 228 q 883 56 949 111 q 679 0 818 0 z m 589 400 l 408 400 l 408 236 l 589 236 q 642 292 642 236 l 642 292 l 642 346 q 589 400 642 400 l 589 400 z m 526 764 l 408 764 l 408 614 l 526 614 q 579 669 579 614 l 579 669 l 579 708 q 526 764 579 764 l 526 764 z "},"C":{"ha":872,"x_min":81,"x_max":811,"o":"m 761 0 l 761 0 l 422 0 q 164 69 247 0 q 81 283 81 139 l 81 283 l 81 715 q 164 931 81 861 q 422 1000 247 1000 l 422 1000 l 761 1000 q 811 950 811 1000 l 811 950 l 811 782 q 761 732 811 732 l 761 732 l 482 732 q 397 663 397 732 l 397 663 l 397 332 q 482 265 397 265 l 482 265 l 761 265 q 811 215 811 265 l 811 215 l 811 50 q 761 0 811 0 z "},"D":{"ha":1036,"x_min":96,"x_max":956,"o":"m 614 0 l 614 0 l 146 0 q 96 50 96 0 l 96 50 l 96 950 q 146 1000 96 1000 l 146 1000 l 614 1000 q 872 931 789 1000 q 956 717 956 861 l 956 717 l 956 283 q 872 69 956 139 q 614 0 789 0 z m 576 735 l 411 735 l 411 263 l 576 263 q 642 331 642 263 l 642 331 l 642 668 q 576 735 642 735 l 576 735 z "},"E":{"ha":908,"x_min":96,"x_max":840,"o":"m 790 0 l 790 0 l 146 0 q 96 50 96 0 l 96 50 l 96 950 q 146 1000 96 1000 l 146 1000 l 790 1000 q 840 950 840 1000 l 840 950 l 840 788 q 790 738 840 738 l 790 738 l 407 738 l 407 631 l 678 631 q 728 581 728 631 l 728 581 l 728 432 q 678 382 728 382 l 678 382 l 407 382 l 407 263 l 790 263 q 840 213 840 263 l 840 213 l 840 50 q 790 0 840 0 z "},"F":{"ha":858,"x_min":96,"x_max":815,"o":"m 361 0 l 361 0 l 146 0 q 96 50 96 0 l 96 50 l 96 950 q 146 1000 96 1000 l 146 1000 l 765 1000 q 815 950 815 1000 l 815 950 l 815 785 q 765 735 815 735 l 765 735 l 411 735 l 411 590 l 653 590 q 703 540 703 590 l 703 540 l 703 374 q 653 324 703 324 l 653 324 l 411 324 l 411 50 q 361 0 411 0 z "},"G":{"ha":983,"x_min":81,"x_max":910,"o":"m 860 0 l 860 0 l 422 0 q 164 69 247 0 q 81 283 81 139 l 81 283 l 81 717 q 164 931 81 861 q 422 1000 247 1000 l 422 1000 l 769 1000 q 819 950 819 1000 l 819 950 l 819 782 q 769 732 819 732 l 769 732 l 481 732 q 396 663 396 732 l 396 663 l 396 331 q 460 263 396 263 l 460 263 l 594 263 l 594 479 q 644 529 594 529 l 644 529 l 860 529 q 910 479 910 529 l 910 479 l 910 50 q 860 0 910 0 z "},"H":{"ha":1054,"x_min":96,"x_max":958,"o":"m 361 0 l 361 0 l 146 0 q 96 50 96 0 l 96 50 l 96 950 q 146 1000 96 1000 l 146 1000 l 361 1000 q 411 950 411 1000 l 411 950 l 411 649 l 643 649 l 643 950 q 693 1000 643 1000 l 693 1000 l 908 1000 q 958 950 958 1000 l 958 950 l 958 50 q 908 0 958 0 l 908 0 l 693 0 q 643 50 643 0 l 643 50 l 643 358 l 411 358 l 411 50 q 361 0 411 0 z "},"I":{"ha":840,"x_min":74,"x_max":765,"o":"m 715 0 l 124 0 q 74 50 74 0 l 74 50 l 74 215 q 124 265 74 265 l 124 265 l 261 265 l 261 732 l 124 732 q 74 782 74 732 l 74 782 l 74 950 q 124 1000 74 1000 l 124 1000 l 715 1000 q 765 950 765 1000 l 765 950 l 765 782 q 715 732 765 732 l 715 732 l 581 732 l 581 265 l 715 265 q 765 215 765 265 l 765 215 l 765 50 q 715 0 765 0 l 715 0 z "},"J":{"ha":956,"x_min":57,"x_max":867,"o":"m 867 950 l 867 263 q 833 114 867 178 q 711 15 799 50 q 460 -21 624 -21 l 460 -21 q 211 15 299 -21 q 90 114 124 50 q 57 263 57 178 l 57 263 l 57 488 q 107 538 57 538 l 107 538 l 308 538 q 358 488 358 538 l 358 488 l 358 318 q 376 272 358 290 q 457 253 393 253 l 457 253 q 533 272 518 253 q 549 318 549 290 l 549 318 l 549 950 q 599 1000 549 1000 l 599 1000 l 817 1000 q 867 950 867 1000 l 867 950 z "},"K":{"ha":1036,"x_min":96,"x_max":953,"o":"m 361 0 l 361 0 l 146 0 q 96 50 96 0 l 96 50 l 96 950 q 146 1000 96 1000 l 146 1000 l 361 1000 q 411 950 411 1000 l 411 950 l 411 631 l 467 631 l 610 954 q 679 1000 629 1000 l 679 1000 l 893 1000 q 924 954 943 1000 l 924 954 l 782 631 q 906 576 860 626 q 953 442 953 525 l 953 442 l 953 50 q 903 0 953 0 l 903 0 l 689 0 q 639 50 639 0 l 639 50 l 639 321 q 594 368 639 368 l 594 368 l 411 368 l 411 50 q 361 0 411 0 z "},"L":{"ha":965,"x_min":96,"x_max":903,"o":"m 853 0 l 853 0 l 146 0 q 96 50 96 0 l 96 50 l 96 950 q 146 1000 96 1000 l 146 1000 l 361 1000 q 411 950 411 1000 l 411 950 l 411 263 l 601 263 l 601 488 q 651 538 601 538 l 651 538 l 853 538 q 903 488 903 538 l 903 488 l 903 50 q 853 0 903 0 z "},"M":{"ha":1179,"x_min":96,"x_max":1083,"o":"m 353 0 l 353 0 l 146 0 q 96 50 96 0 l 96 50 l 96 950 q 146 1000 96 1000 l 146 1000 l 369 1000 q 433 958 411 1000 l 433 958 l 558 732 q 570 714 565 719 q 583 708 575 708 l 583 708 l 596 708 q 609 714 604 708 q 621 732 614 719 l 621 732 l 744 958 q 808 1000 767 1000 l 808 1000 l 1033 1000 q 1083 950 1083 1000 l 1083 950 l 1083 50 q 1033 0 1083 0 l 1033 0 l 819 0 q 769 50 769 0 l 769 50 l 769 539 l 688 388 q 614 343 664 343 l 614 343 l 558 343 q 485 388 508 343 l 485 388 l 403 539 l 403 50 q 353 0 403 0 z "},"N":{"ha":1046,"x_min":96,"x_max":950,"o":"m 354 0 l 354 0 l 146 0 q 96 50 96 0 l 96 50 l 96 950 q 146 1000 96 1000 l 146 1000 l 290 1000 q 372 963 340 1000 l 372 963 l 642 654 l 642 950 q 692 1000 642 1000 l 692 1000 l 900 1000 q 950 950 950 1000 l 950 950 l 950 50 q 900 0 950 0 l 900 0 l 692 0 q 642 50 642 0 l 642 50 l 642 221 l 404 508 l 404 50 q 354 0 404 0 z "},"O":{"ha":1024,"x_min":81,"x_max":943,"o":"m 943 736 l 943 263 q 924 147 943 199 q 858 57 906 94 q 727 -1 811 19 q 513 -21 643 -21 l 513 -21 q 298 -1 382 -21 q 167 57 214 19 q 100 147 119 94 q 81 263 81 199 l 81 263 l 81 736 q 100 852 81 800 q 167 942 119 904 q 298 1000 214 979 q 513 1021 382 1021 l 513 1021 q 727 1000 643 1021 q 858 942 811 979 q 924 852 906 904 q 943 736 943 800 l 943 736 z m 396 686 l 396 313 q 417 266 396 285 q 513 247 438 247 l 513 247 q 609 266 589 247 q 629 313 629 285 l 629 313 l 629 686 q 609 732 629 714 q 513 750 589 750 l 513 750 q 417 732 438 750 q 396 686 396 714 l 396 686 z "},"P":{"ha":947,"x_min":96,"x_max":899,"o":"m 361 0 l 361 0 l 146 0 q 96 50 96 0 l 96 50 l 96 950 q 146 1000 96 1000 l 146 1000 l 571 1000 q 769 966 697 1000 q 869 871 840 932 q 899 729 899 810 l 899 729 l 899 551 q 869 410 899 471 q 769 315 840 349 q 571 281 697 281 l 571 281 l 411 281 l 411 50 q 361 0 411 0 z m 533 740 l 408 740 l 408 531 l 533 531 q 586 551 574 531 q 599 599 599 572 l 599 599 l 599 672 q 586 720 599 700 q 533 740 574 740 l 533 740 z "},"Q":{"ha":1024,"x_min":81,"x_max":943,"o":"m 618 -125 l 618 -125 l 404 -125 q 354 -75 354 -125 l 354 -75 l 354 1 q 188 56 247 18 q 104 149 128 93 q 81 275 81 206 l 81 275 l 81 736 q 100 852 81 800 q 167 942 119 904 q 298 1000 214 979 q 513 1021 382 1021 l 513 1021 q 727 1000 643 1021 q 858 942 811 979 q 924 852 906 904 q 943 736 943 800 l 943 736 l 943 275 q 919 149 943 206 q 837 55 896 93 q 668 1 778 17 l 668 1 l 668 -75 q 618 -125 668 -125 z m 396 685 l 396 306 q 417 259 396 278 q 513 240 438 240 l 513 240 q 609 259 589 240 q 629 306 629 278 l 629 306 l 629 685 q 609 731 629 713 q 513 749 589 749 l 513 749 q 417 731 438 749 q 396 685 396 713 l 396 685 z "},"R":{"ha":1032,"x_min":96,"x_max":972,"o":"m 360 0 l 360 0 l 146 0 q 96 50 96 0 l 96 50 l 96 950 q 146 1000 96 1000 l 146 1000 l 608 1000 q 772 971 713 1000 q 857 890 832 942 q 882 768 882 838 l 882 768 l 882 704 q 865 606 882 646 q 804 546 849 565 l 804 546 q 926 485 881 538 q 972 344 972 432 l 972 344 l 972 50 q 922 0 972 0 l 922 0 l 707 0 q 657 50 657 0 l 657 50 l 657 263 q 645 308 657 294 q 604 322 633 322 l 604 322 l 410 322 l 410 50 q 360 0 410 0 z m 514 750 l 410 750 l 410 572 l 514 572 q 563 591 550 572 q 575 638 575 610 l 575 638 l 575 685 q 563 731 575 713 q 514 750 550 750 l 514 750 z "},"S":{"ha":903,"x_min":71,"x_max":847,"o":"m 560 0 l 560 0 l 121 0 q 71 50 71 0 l 71 50 l 71 213 q 121 263 71 263 l 121 263 l 494 263 q 522 274 513 263 q 531 303 531 286 l 531 303 q 522 338 531 326 q 494 350 513 349 l 494 350 l 286 379 q 130 444 189 394 q 71 610 71 493 l 71 610 l 71 756 q 147 938 71 875 q 358 1000 224 1000 l 358 1000 l 747 1000 q 797 950 797 1000 l 797 950 l 797 785 q 747 735 797 735 l 747 735 l 424 735 q 386 693 386 735 l 386 693 q 424 649 386 653 l 424 649 l 631 621 q 744 587 696 611 q 820 515 793 563 q 847 390 847 468 l 847 390 l 847 244 q 771 63 847 126 q 560 0 694 0 z "},"T":{"ha":911,"x_min":39,"x_max":872,"o":"m 568 0 l 568 0 l 343 0 q 293 50 293 0 l 293 50 l 293 732 l 89 732 q 39 782 39 732 l 39 782 l 39 950 q 89 1000 39 1000 l 89 1000 l 822 1000 q 872 950 872 1000 l 872 950 l 872 782 q 822 732 872 732 l 822 732 l 618 732 l 618 50 q 568 0 618 0 z "},"U":{"ha":1036,"x_min":89,"x_max":947,"o":"m 947 950 l 947 263 q 928 147 947 199 q 862 57 910 94 q 731 -1 814 19 q 518 -21 647 -21 l 518 -21 q 306 -1 389 -21 q 174 57 222 19 q 108 147 126 94 q 89 263 89 199 l 89 263 l 89 950 q 139 1000 89 1000 l 139 1000 l 357 1000 q 407 950 407 1000 l 407 950 l 407 317 q 428 270 407 289 q 521 251 449 251 l 521 251 q 615 270 594 251 q 636 317 636 289 l 636 317 l 636 950 q 686 1000 636 1000 l 686 1000 l 897 1000 q 947 950 947 1000 l 947 950 z "},"V":{"ha":1014,"x_min":75,"x_max":939,"o":"m 688 0 l 688 0 l 326 0 q 283 10 300 0 q 256 46 267 19 l 256 46 l 119 386 q 93 456 103 428 q 79 512 83 483 q 75 583 75 540 l 75 583 l 75 950 q 125 1000 75 1000 l 125 1000 l 346 1000 q 400 950 400 1000 l 400 950 l 400 567 q 403 539 400 553 q 411 510 406 525 l 411 510 l 476 315 q 503 292 483 292 l 503 292 l 518 292 q 544 315 538 292 l 544 315 l 610 511 q 618 540 615 526 q 621 568 621 554 l 621 568 l 621 950 q 671 1000 621 1000 l 671 1000 l 889 1000 q 939 950 939 1000 l 939 950 l 939 583 q 935 512 939 540 q 921 456 931 483 q 894 386 911 428 l 894 386 l 758 46 q 732 10 749 19 q 688 0 715 0 z "},"W":{"ha":1154,"x_min":83,"x_max":1071,"o":"m 814 1000 l 814 1000 l 1021 1000 q 1071 950 1071 1000 l 1071 950 l 1071 411 q 1068 328 1071 367 q 1046 239 1065 290 l 1046 239 l 976 50 q 956 15 969 29 q 921 0 943 0 l 921 0 l 736 0 q 697 10 714 0 q 672 42 679 19 l 672 42 l 608 268 q 583 292 601 292 l 583 292 l 571 292 q 546 268 553 292 l 546 268 l 481 42 q 422 0 468 0 l 422 0 l 239 0 q 201 14 217 0 q 178 50 185 28 l 178 50 l 108 242 q 87 331 90 293 q 83 414 83 369 l 83 414 l 83 950 q 133 1000 83 1000 l 133 1000 l 347 1000 q 397 950 397 1000 l 397 950 l 397 439 l 478 614 q 507 647 489 638 q 551 657 525 657 l 551 657 l 610 657 q 655 647 638 657 q 683 614 672 638 l 683 614 l 764 439 l 764 950 q 814 1000 764 1000 z "},"X":{"ha":1024,"x_min":83,"x_max":940,"o":"m 394 188 l 394 50 q 344 0 394 0 l 344 0 l 133 0 q 83 50 83 0 l 83 50 l 83 199 q 88 269 83 242 q 104 319 93 296 q 136 369 115 342 l 136 369 l 249 521 l 136 672 q 103 724 115 701 q 88 773 92 746 q 83 843 83 800 l 83 843 l 83 950 q 133 1000 83 1000 l 133 1000 l 347 1000 q 397 950 397 1000 l 397 950 l 397 854 q 399 825 397 840 q 410 796 400 810 l 410 796 l 471 708 q 485 691 478 697 q 504 685 493 685 l 504 685 l 521 685 q 539 691 532 685 q 554 708 546 697 l 554 708 l 617 796 q 628 825 626 810 q 629 854 629 840 l 629 854 l 629 950 q 679 1000 629 1000 l 679 1000 l 890 1000 q 940 950 940 1000 l 940 950 l 940 843 q 936 773 940 800 q 920 724 932 746 q 888 672 908 701 l 888 672 l 775 519 l 888 369 q 921 319 910 342 q 936 269 932 296 q 940 199 940 242 l 940 199 l 940 50 q 890 0 940 0 l 890 0 l 679 0 q 629 50 629 0 l 629 50 l 629 188 q 629 193 629 189 l 629 193 q 628 219 629 206 q 617 246 626 232 l 617 246 l 556 333 q 540 351 547 346 q 522 357 533 357 l 522 357 l 503 357 q 485 351 492 357 q 469 333 478 346 l 469 333 l 407 246 q 396 219 397 232 q 394 193 394 206 l 394 193 q 394 188 394 189 l 394 188 z "},"Y":{"ha":979,"x_min":63,"x_max":917,"o":"m 603 0 l 603 0 l 378 0 q 328 50 328 0 l 328 50 l 328 228 l 115 513 q 83 564 94 542 q 67 613 71 586 q 63 683 63 640 l 63 683 l 63 950 q 113 1000 63 1000 l 113 1000 l 326 1000 q 376 950 376 1000 l 376 950 l 376 722 q 378 694 376 708 q 389 664 379 679 l 389 664 l 453 564 q 486 540 467 540 l 486 540 l 500 540 q 533 564 519 540 l 533 564 l 597 664 q 608 694 607 679 q 610 722 610 708 l 610 722 l 610 950 q 660 1000 610 1000 l 660 1000 l 867 1000 q 917 950 917 1000 l 917 950 l 917 683 q 913 613 917 640 q 897 564 908 586 q 864 513 885 542 l 864 513 l 653 226 l 653 50 q 603 0 653 0 z "},"Z":{"ha":917,"x_min":64,"x_max":853,"o":"m 803 0 l 803 0 l 114 0 q 64 50 64 0 l 64 50 l 64 236 q 99 322 64 286 l 99 322 l 436 732 l 139 732 q 89 782 89 732 l 89 782 l 89 950 q 139 1000 89 1000 l 139 1000 l 778 1000 q 828 950 828 1000 l 828 950 l 828 743 q 793 656 828 692 l 793 656 l 471 265 l 803 265 q 853 215 853 265 l 853 215 l 853 50 q 803 0 853 0 z "},"[":{"ha":596,"x_min":67,"x_max":533,"o":"m 483 843 l 383 843 l 383 154 l 483 154 q 533 104 533 154 l 533 104 l 533 -61 q 483 -111 533 -111 l 483 -111 l 117 -111 q 67 -61 67 -111 l 67 -61 l 67 1061 q 117 1111 67 1111 l 117 1111 l 483 1111 q 533 1061 533 1111 l 533 1061 l 533 893 q 483 843 533 843 l 483 843 z "},"\\":{"ha":482,"x_min":1,"x_max":481,"o":"m 308 1075 l 308 1075 l 475 -75 q 425 -125 481 -125 l 425 -125 l 224 -125 q 187 -113 197 -125 q 174 -75 176 -101 l 174 -75 l 7 1075 q 57 1125 1 1125 l 57 1125 l 258 1125 q 295 1113 285 1125 q 308 1075 306 1101 z "},"]":{"ha":596,"x_min":63,"x_max":529,"o":"m 113 154 l 213 154 l 213 843 l 113 843 q 63 893 63 843 l 63 893 l 63 1061 q 113 1111 63 1111 l 113 1111 l 479 1111 q 529 1061 529 1111 l 529 1061 l 529 -61 q 479 -111 529 -111 l 479 -111 l 113 -111 q 63 -61 63 -111 l 63 -61 l 63 104 q 113 154 63 154 l 113 154 z "},"^":{"ha":992,"x_min":46,"x_max":897,"o":"m 56 289 l 56 289 l 206 818 q 246 916 222 876 q 311 976 269 956 q 421 996 353 996 l 421 996 l 522 996 q 632 976 592 996 q 697 916 672 956 q 738 818 721 876 l 738 818 l 888 289 q 846 239 897 239 l 846 239 l 663 238 q 606 286 611 236 l 606 286 l 497 688 q 490 708 494 703 q 472 711 485 713 l 472 711 q 453 708 458 713 q 446 688 449 703 l 446 688 l 338 286 q 281 238 332 236 l 281 238 l 97 239 q 56 289 46 239 z "},"_":{"ha":1019,"x_min":97,"x_max":922,"o":"m 872 -143 l 147 -143 q 97 -93 97 -143 l 97 -93 l 97 93 q 147 143 97 143 l 147 143 l 872 143 q 922 93 922 143 l 922 93 l 922 -93 q 872 -143 922 -143 l 872 -143 z "},"`":{"ha":694,"x_min":56,"x_max":638,"o":"m 590 1046 l 590 1046 l 106 1106 q 67 1119 79 1108 q 56 1156 56 1129 l 56 1156 l 56 1289 q 103 1335 56 1340 l 103 1335 l 588 1275 q 626 1262 614 1272 q 638 1225 638 1251 l 638 1225 l 638 1092 q 590 1046 638 1040 z "},"a":{"ha":1014,"x_min":75,"x_max":939,"o":"m 379 244 l 379 50 q 329 0 379 0 l 329 0 l 125 0 q 75 50 75 0 l 75 50 l 75 417 q 88 513 75 458 q 129 639 101 567 l 129 639 l 250 954 q 321 1000 265 1000 l 321 1000 l 694 1000 q 764 954 749 1000 l 764 954 l 885 639 q 926 513 913 567 q 939 417 939 458 l 939 417 l 939 50 q 889 0 939 0 l 889 0 l 679 0 q 625 50 625 0 l 625 50 l 625 244 l 379 244 z m 458 708 l 458 708 l 393 497 l 611 497 l 546 708 q 519 732 536 732 l 519 732 l 485 732 q 458 708 468 732 z "},"b":{"ha":1007,"x_min":96,"x_max":949,"o":"m 679 0 l 679 0 l 146 0 q 96 50 96 0 l 96 50 l 96 950 q 146 1000 96 1000 l 146 1000 l 589 1000 q 790 949 725 1000 q 856 788 856 897 l 856 788 l 856 721 q 774 571 856 606 l 774 571 q 906 510 864 563 q 949 356 949 458 l 949 356 l 949 228 q 883 56 949 111 q 679 0 818 0 z m 589 400 l 408 400 l 408 236 l 589 236 q 642 292 642 236 l 642 292 l 642 346 q 589 400 642 400 l 589 400 z m 526 764 l 408 764 l 408 614 l 526 614 q 579 669 579 614 l 579 669 l 579 708 q 526 764 579 764 l 526 764 z "},"c":{"ha":872,"x_min":81,"x_max":811,"o":"m 761 0 l 761 0 l 422 0 q 164 69 247 0 q 81 283 81 139 l 81 283 l 81 715 q 164 931 81 861 q 422 1000 247 1000 l 422 1000 l 761 1000 q 811 950 811 1000 l 811 950 l 811 782 q 761 732 811 732 l 761 732 l 482 732 q 397 663 397 732 l 397 663 l 397 332 q 482 265 397 265 l 482 265 l 761 265 q 811 215 811 265 l 811 215 l 811 50 q 761 0 811 0 z "},"d":{"ha":1036,"x_min":96,"x_max":956,"o":"m 614 0 l 614 0 l 146 0 q 96 50 96 0 l 96 50 l 96 950 q 146 1000 96 1000 l 146 1000 l 614 1000 q 872 931 789 1000 q 956 717 956 861 l 956 717 l 956 283 q 872 69 956 139 q 614 0 789 0 z m 576 735 l 411 735 l 411 263 l 576 263 q 642 331 642 263 l 642 331 l 642 668 q 576 735 642 735 l 576 735 z "},"e":{"ha":908,"x_min":96,"x_max":840,"o":"m 790 0 l 790 0 l 146 0 q 96 50 96 0 l 96 50 l 96 950 q 146 1000 96 1000 l 146 1000 l 790 1000 q 840 950 840 1000 l 840 950 l 840 788 q 790 738 840 738 l 790 738 l 407 738 l 407 631 l 678 631 q 728 581 728 631 l 728 581 l 728 432 q 678 382 728 382 l 678 382 l 407 382 l 407 263 l 790 263 q 840 213 840 263 l 840 213 l 840 50 q 790 0 840 0 z "},"f":{"ha":858,"x_min":96,"x_max":815,"o":"m 361 0 l 361 0 l 146 0 q 96 50 96 0 l 96 50 l 96 950 q 146 1000 96 1000 l 146 1000 l 765 1000 q 815 950 815 1000 l 815 950 l 815 785 q 765 735 815 735 l 765 735 l 411 735 l 411 590 l 653 590 q 703 540 703 590 l 703 540 l 703 374 q 653 324 703 324 l 653 324 l 411 324 l 411 50 q 361 0 411 0 z "},"g":{"ha":983,"x_min":81,"x_max":910,"o":"m 860 0 l 860 0 l 422 0 q 164 69 247 0 q 81 283 81 139 l 81 283 l 81 717 q 164 931 81 861 q 422 1000 247 1000 l 422 1000 l 769 1000 q 819 950 819 1000 l 819 950 l 819 782 q 769 732 819 732 l 769 732 l 481 732 q 396 663 396 732 l 396 663 l 396 331 q 460 263 396 263 l 460 263 l 594 263 l 594 479 q 644 529 594 529 l 644 529 l 860 529 q 910 479 910 529 l 910 479 l 910 50 q 860 0 910 0 z "},"h":{"ha":1054,"x_min":96,"x_max":958,"o":"m 361 0 l 361 0 l 146 0 q 96 50 96 0 l 96 50 l 96 950 q 146 1000 96 1000 l 146 1000 l 361 1000 q 411 950 411 1000 l 411 950 l 411 649 l 643 649 l 643 950 q 693 1000 643 1000 l 693 1000 l 908 1000 q 958 950 958 1000 l 958 950 l 958 50 q 908 0 958 0 l 908 0 l 693 0 q 643 50 643 0 l 643 50 l 643 358 l 411 358 l 411 50 q 361 0 411 0 z "},"i":{"ha":840,"x_min":74,"x_max":765,"o":"m 715 0 l 124 0 q 74 50 74 0 l 74 50 l 74 215 q 124 265 74 265 l 124 265 l 261 265 l 261 732 l 124 732 q 74 782 74 732 l 74 782 l 74 950 q 124 1000 74 1000 l 124 1000 l 715 1000 q 765 950 765 1000 l 765 950 l 765 782 q 715 732 765 732 l 715 732 l 581 732 l 581 265 l 715 265 q 765 215 765 265 l 765 215 l 765 50 q 715 0 765 0 l 715 0 z "},"j":{"ha":956,"x_min":57,"x_max":867,"o":"m 867 950 l 867 263 q 833 114 867 178 q 711 15 799 50 q 460 -21 624 -21 l 460 -21 q 211 15 299 -21 q 90 114 124 50 q 57 263 57 178 l 57 263 l 57 488 q 107 538 57 538 l 107 538 l 308 538 q 358 488 358 538 l 358 488 l 358 318 q 376 272 358 290 q 457 253 393 253 l 457 253 q 533 272 518 253 q 549 318 549 290 l 549 318 l 549 950 q 599 1000 549 1000 l 599 1000 l 817 1000 q 867 950 867 1000 l 867 950 z "},"k":{"ha":1036,"x_min":96,"x_max":953,"o":"m 361 0 l 361 0 l 146 0 q 96 50 96 0 l 96 50 l 96 950 q 146 1000 96 1000 l 146 1000 l 361 1000 q 411 950 411 1000 l 411 950 l 411 631 l 467 631 l 610 954 q 679 1000 629 1000 l 679 1000 l 893 1000 q 924 954 943 1000 l 924 954 l 782 631 q 906 576 860 626 q 953 442 953 525 l 953 442 l 953 50 q 903 0 953 0 l 903 0 l 689 0 q 639 50 639 0 l 639 50 l 639 321 q 594 368 639 368 l 594 368 l 411 368 l 411 50 q 361 0 411 0 z "},"l":{"ha":965,"x_min":96,"x_max":903,"o":"m 853 0 l 853 0 l 146 0 q 96 50 96 0 l 96 50 l 96 950 q 146 1000 96 1000 l 146 1000 l 361 1000 q 411 950 411 1000 l 411 950 l 411 263 l 601 263 l 601 488 q 651 538 601 538 l 651 538 l 853 538 q 903 488 903 538 l 903 488 l 903 50 q 853 0 903 0 z "},"m":{"ha":1179,"x_min":96,"x_max":1083,"o":"m 353 0 l 353 0 l 146 0 q 96 50 96 0 l 96 50 l 96 950 q 146 1000 96 1000 l 146 1000 l 369 1000 q 433 958 411 1000 l 433 958 l 558 732 q 570 714 565 719 q 583 708 575 708 l 583 708 l 596 708 q 609 714 604 708 q 621 732 614 719 l 621 732 l 744 958 q 808 1000 767 1000 l 808 1000 l 1033 1000 q 1083 950 1083 1000 l 1083 950 l 1083 50 q 1033 0 1083 0 l 1033 0 l 819 0 q 769 50 769 0 l 769 50 l 769 539 l 688 388 q 614 343 664 343 l 614 343 l 558 343 q 485 388 508 343 l 485 388 l 403 539 l 403 50 q 353 0 403 0 z "},"n":{"ha":1046,"x_min":96,"x_max":950,"o":"m 354 0 l 354 0 l 146 0 q 96 50 96 0 l 96 50 l 96 950 q 146 1000 96 1000 l 146 1000 l 290 1000 q 372 963 340 1000 l 372 963 l 642 654 l 642 950 q 692 1000 642 1000 l 692 1000 l 900 1000 q 950 950 950 1000 l 950 950 l 950 50 q 900 0 950 0 l 900 0 l 692 0 q 642 50 642 0 l 642 50 l 642 221 l 404 508 l 404 50 q 354 0 404 0 z "},"o":{"ha":1024,"x_min":81,"x_max":943,"o":"m 943 736 l 943 263 q 924 147 943 199 q 858 57 906 94 q 727 -1 811 19 q 513 -21 643 -21 l 513 -21 q 298 -1 382 -21 q 167 57 214 19 q 100 147 119 94 q 81 263 81 199 l 81 263 l 81 736 q 100 852 81 800 q 167 942 119 904 q 298 1000 214 979 q 513 1021 382 1021 l 513 1021 q 727 1000 643 1021 q 858 942 811 979 q 924 852 906 904 q 943 736 943 800 l 943 736 z m 396 686 l 396 313 q 417 266 396 285 q 513 247 438 247 l 513 247 q 609 266 589 247 q 629 313 629 285 l 629 313 l 629 686 q 609 732 629 714 q 513 750 589 750 l 513 750 q 417 732 438 750 q 396 686 396 714 l 396 686 z "},"p":{"ha":947,"x_min":96,"x_max":899,"o":"m 361 0 l 361 0 l 146 0 q 96 50 96 0 l 96 50 l 96 950 q 146 1000 96 1000 l 146 1000 l 571 1000 q 769 966 697 1000 q 869 871 840 932 q 899 729 899 810 l 899 729 l 899 551 q 869 410 899 471 q 769 315 840 349 q 571 281 697 281 l 571 281 l 411 281 l 411 50 q 361 0 411 0 z m 533 740 l 408 740 l 408 531 l 533 531 q 586 551 574 531 q 599 599 599 572 l 599 599 l 599 672 q 586 720 599 700 q 533 740 574 740 l 533 740 z "},"q":{"ha":1024,"x_min":81,"x_max":943,"o":"m 618 -125 l 618 -125 l 404 -125 q 354 -75 354 -125 l 354 -75 l 354 1 q 188 56 247 18 q 104 149 128 93 q 81 275 81 206 l 81 275 l 81 736 q 100 852 81 800 q 167 942 119 904 q 298 1000 214 979 q 513 1021 382 1021 l 513 1021 q 727 1000 643 1021 q 858 942 811 979 q 924 852 906 904 q 943 736 943 800 l 943 736 l 943 275 q 919 149 943 206 q 837 55 896 93 q 668 1 778 17 l 668 1 l 668 -75 q 618 -125 668 -125 z m 396 685 l 396 306 q 417 259 396 278 q 513 240 438 240 l 513 240 q 609 259 589 240 q 629 306 629 278 l 629 306 l 629 685 q 609 731 629 713 q 513 749 589 749 l 513 749 q 417 731 438 749 q 396 685 396 713 l 396 685 z "},"r":{"ha":1032,"x_min":96,"x_max":972,"o":"m 360 0 l 360 0 l 146 0 q 96 50 96 0 l 96 50 l 96 950 q 146 1000 96 1000 l 146 1000 l 608 1000 q 772 971 713 1000 q 857 890 832 942 q 882 768 882 838 l 882 768 l 882 704 q 865 606 882 646 q 804 546 849 565 l 804 546 q 926 485 881 538 q 972 344 972 432 l 972 344 l 972 50 q 922 0 972 0 l 922 0 l 707 0 q 657 50 657 0 l 657 50 l 657 263 q 645 308 657 294 q 604 322 633 322 l 604 322 l 410 322 l 410 50 q 360 0 410 0 z m 514 750 l 410 750 l 410 572 l 514 572 q 563 591 550 572 q 575 638 575 610 l 575 638 l 575 685 q 563 731 575 713 q 514 750 550 750 l 514 750 z "},"s":{"ha":903,"x_min":71,"x_max":847,"o":"m 560 0 l 560 0 l 121 0 q 71 50 71 0 l 71 50 l 71 213 q 121 263 71 263 l 121 263 l 494 263 q 522 274 513 263 q 531 303 531 286 l 531 303 q 522 338 531 326 q 494 350 513 349 l 494 350 l 286 379 q 130 444 189 394 q 71 610 71 493 l 71 610 l 71 756 q 147 938 71 875 q 358 1000 224 1000 l 358 1000 l 747 1000 q 797 950 797 1000 l 797 950 l 797 785 q 747 735 797 735 l 747 735 l 424 735 q 386 693 386 735 l 386 693 q 424 649 386 653 l 424 649 l 631 621 q 744 587 696 611 q 820 515 793 563 q 847 390 847 468 l 847 390 l 847 244 q 771 63 847 126 q 560 0 694 0 z "},"t":{"ha":911,"x_min":39,"x_max":872,"o":"m 568 0 l 568 0 l 343 0 q 293 50 293 0 l 293 50 l 293 732 l 89 732 q 39 782 39 732 l 39 782 l 39 950 q 89 1000 39 1000 l 89 1000 l 822 1000 q 872 950 872 1000 l 872 950 l 872 782 q 822 732 872 732 l 822 732 l 618 732 l 618 50 q 568 0 618 0 z "},"u":{"ha":1036,"x_min":89,"x_max":947,"o":"m 947 950 l 947 263 q 928 147 947 199 q 862 57 910 94 q 731 -1 814 19 q 518 -21 647 -21 l 518 -21 q 306 -1 389 -21 q 174 57 222 19 q 108 147 126 94 q 89 263 89 199 l 89 263 l 89 950 q 139 1000 89 1000 l 139 1000 l 357 1000 q 407 950 407 1000 l 407 950 l 407 317 q 428 270 407 289 q 521 251 449 251 l 521 251 q 615 270 594 251 q 636 317 636 289 l 636 317 l 636 950 q 686 1000 636 1000 l 686 1000 l 897 1000 q 947 950 947 1000 l 947 950 z "},"v":{"ha":1014,"x_min":75,"x_max":939,"o":"m 688 0 l 688 0 l 326 0 q 283 10 300 0 q 256 46 267 19 l 256 46 l 119 386 q 93 456 103 428 q 79 512 83 483 q 75 583 75 540 l 75 583 l 75 950 q 125 1000 75 1000 l 125 1000 l 346 1000 q 400 950 400 1000 l 400 950 l 400 567 q 403 539 400 553 q 411 510 406 525 l 411 510 l 476 315 q 503 292 483 292 l 503 292 l 518 292 q 544 315 538 292 l 544 315 l 610 511 q 618 540 615 526 q 621 568 621 554 l 621 568 l 621 950 q 671 1000 621 1000 l 671 1000 l 889 1000 q 939 950 939 1000 l 939 950 l 939 583 q 935 512 939 540 q 921 456 931 483 q 894 386 911 428 l 894 386 l 758 46 q 732 10 749 19 q 688 0 715 0 z "},"w":{"ha":1154,"x_min":83,"x_max":1071,"o":"m 814 1000 l 814 1000 l 1021 1000 q 1071 950 1071 1000 l 1071 950 l 1071 411 q 1068 328 1071 367 q 1046 239 1065 290 l 1046 239 l 976 50 q 956 15 969 29 q 921 0 943 0 l 921 0 l 736 0 q 697 10 714 0 q 672 42 679 19 l 672 42 l 608 268 q 583 292 601 292 l 583 292 l 571 292 q 546 268 553 292 l 546 268 l 481 42 q 422 0 468 0 l 422 0 l 239 0 q 201 14 217 0 q 178 50 185 28 l 178 50 l 108 242 q 87 331 90 293 q 83 414 83 369 l 83 414 l 83 950 q 133 1000 83 1000 l 133 1000 l 347 1000 q 397 950 397 1000 l 397 950 l 397 439 l 478 614 q 507 647 489 638 q 551 657 525 657 l 551 657 l 610 657 q 655 647 638 657 q 683 614 672 638 l 683 614 l 764 439 l 764 950 q 814 1000 764 1000 z "},"x":{"ha":1024,"x_min":83,"x_max":940,"o":"m 394 188 l 394 50 q 344 0 394 0 l 344 0 l 133 0 q 83 50 83 0 l 83 50 l 83 199 q 88 269 83 242 q 104 319 93 296 q 136 369 115 342 l 136 369 l 249 521 l 136 672 q 103 724 115 701 q 88 773 92 746 q 83 843 83 800 l 83 843 l 83 950 q 133 1000 83 1000 l 133 1000 l 347 1000 q 397 950 397 1000 l 397 950 l 397 854 q 399 825 397 840 q 410 796 400 810 l 410 796 l 471 708 q 485 691 478 697 q 504 685 493 685 l 504 685 l 521 685 q 539 691 532 685 q 554 708 546 697 l 554 708 l 617 796 q 628 825 626 810 q 629 854 629 840 l 629 854 l 629 950 q 679 1000 629 1000 l 679 1000 l 890 1000 q 940 950 940 1000 l 940 950 l 940 843 q 936 773 940 800 q 920 724 932 746 q 888 672 908 701 l 888 672 l 775 519 l 888 369 q 921 319 910 342 q 936 269 932 296 q 940 199 940 242 l 940 199 l 940 50 q 890 0 940 0 l 890 0 l 679 0 q 629 50 629 0 l 629 50 l 629 188 q 629 193 629 189 l 629 193 q 628 219 629 206 q 617 246 626 232 l 617 246 l 556 333 q 540 351 547 346 q 522 357 533 357 l 522 357 l 503 357 q 485 351 492 357 q 469 333 478 346 l 469 333 l 407 246 q 396 219 397 232 q 394 193 394 206 l 394 193 q 394 188 394 189 l 394 188 z "},"y":{"ha":979,"x_min":63,"x_max":917,"o":"m 603 0 l 603 0 l 378 0 q 328 50 328 0 l 328 50 l 328 228 l 115 513 q 83 564 94 542 q 67 613 71 586 q 63 683 63 640 l 63 683 l 63 950 q 113 1000 63 1000 l 113 1000 l 326 1000 q 376 950 376 1000 l 376 950 l 376 722 q 378 694 376 708 q 389 664 379 679 l 389 664 l 453 564 q 486 540 467 540 l 486 540 l 500 540 q 533 564 519 540 l 533 564 l 597 664 q 608 694 607 679 q 610 722 610 708 l 610 722 l 610 950 q 660 1000 610 1000 l 660 1000 l 867 1000 q 917 950 917 1000 l 917 950 l 917 683 q 913 613 917 640 q 897 564 908 586 q 864 513 885 542 l 864 513 l 653 226 l 653 50 q 603 0 653 0 z "},"z":{"ha":917,"x_min":64,"x_max":853,"o":"m 803 0 l 803 0 l 114 0 q 64 50 64 0 l 64 50 l 64 236 q 99 322 64 286 l 99 322 l 436 732 l 139 732 q 89 782 89 732 l 89 782 l 89 950 q 139 1000 89 1000 l 139 1000 l 778 1000 q 828 950 828 1000 l 828 950 l 828 743 q 793 656 828 692 l 793 656 l 471 265 l 803 265 q 853 215 853 265 l 853 215 l 853 50 q 803 0 853 0 z "},"{":{"ha":632,"x_min":28,"x_max":569,"o":"m 433 383 l 433 224 q 445 171 433 188 q 490 154 457 154 l 490 154 l 519 154 q 569 104 569 154 l 569 104 l 569 -61 q 519 -111 569 -111 l 519 -111 l 458 -111 q 253 -75 328 -111 q 147 25 178 -39 q 117 172 117 89 l 117 172 l 117 353 q 50 395 72 367 q 28 474 28 424 l 28 474 l 28 522 q 50 600 28 572 q 117 642 72 628 l 117 642 l 117 826 q 147 975 117 911 q 253 1075 178 1039 q 458 1111 328 1111 l 458 1111 l 519 1111 q 569 1061 569 1111 l 569 1061 l 569 893 q 519 843 569 843 l 519 843 l 490 843 q 445 826 457 843 q 433 774 433 810 l 433 774 l 433 611 q 420 551 433 569 q 371 525 407 532 l 371 525 l 325 517 q 307 497 307 515 l 307 497 q 325 478 307 482 l 325 478 l 371 469 q 420 444 407 464 q 433 383 433 425 l 433 383 z "},"|":{"ha":482,"x_min":90,"x_max":392,"o":"m 392 1075 l 392 1075 l 392 -75 q 342 -125 392 -125 l 342 -125 l 140 -125 q 90 -75 90 -125 l 90 -75 l 90 1075 q 140 1125 90 1125 l 140 1125 l 342 1125 q 392 1075 392 1125 z "},"}":{"ha":632,"x_min":63,"x_max":604,"o":"m 199 224 l 199 224 l 199 383 q 212 444 199 425 q 261 469 225 464 l 261 469 l 307 478 q 325 497 325 482 l 325 497 q 307 517 325 515 l 307 517 l 261 525 q 212 551 225 532 q 199 611 199 569 l 199 611 l 199 774 q 187 826 199 810 q 142 843 175 843 l 142 843 l 113 843 q 63 893 63 843 l 63 893 l 63 1061 q 113 1111 63 1111 l 113 1111 l 174 1111 q 380 1075 306 1111 q 485 975 454 1039 q 515 826 515 911 l 515 826 l 515 642 q 582 600 560 628 q 604 522 604 572 l 604 522 l 604 474 q 582 395 604 424 q 515 353 560 367 l 515 353 l 515 172 q 485 25 515 89 q 380 -75 454 -39 q 174 -111 306 -111 l 174 -111 l 113 -111 q 63 -61 63 -111 l 63 -61 l 63 104 q 113 154 63 154 l 113 154 l 142 154 q 187 171 175 154 q 199 224 199 188 z "},"~":{"ha":1019,"x_min":97,"x_max":922,"o":"m 542 381 l 510 385 l 454 392 q 360 403 399 400 q 294 403 322 406 q 236 393 265 400 q 168 374 207 386 l 168 374 q 115 374 133 364 q 97 408 97 385 l 97 408 l 97 556 q 113 607 97 592 q 149 629 128 622 l 149 629 q 233 656 199 647 q 297 665 267 664 q 360 663 326 667 q 443 651 394 658 l 443 651 q 460 649 451 650 q 476 646 468 647 l 476 646 l 510 642 l 553 636 q 653 624 615 628 q 719 621 692 619 q 772 629 746 622 q 838 647 799 636 l 838 647 q 850 651 846 650 l 850 651 q 922 608 922 672 l 922 608 l 922 471 q 906 419 922 435 q 871 397 890 404 l 871 397 q 786 371 821 379 q 721 361 751 363 q 656 364 690 360 q 572 376 621 368 l 572 376 q 558 378 565 376 q 542 381 550 379 l 542 381 z "},"¡":{"ha":588,"x_min":113,"x_max":475,"o":"m 186 636 l 401 636 q 454 586 453 636 l 454 586 l 474 50 q 426 0 475 0 l 426 0 l 161 0 q 114 50 113 0 l 114 50 l 135 586 q 186 636 136 636 l 186 636 z m 167 1000 l 422 1000 q 472 950 472 1000 l 472 950 l 472 768 q 422 718 472 718 l 422 718 l 167 718 q 117 768 117 718 l 117 768 l 117 950 q 167 1000 117 1000 l 167 1000 z "},"¢":{"ha":872,"x_min":81,"x_max":811,"o":"m 761 56 l 761 56 l 654 56 l 654 -19 q 604 -69 654 -69 l 604 -69 l 403 -69 q 353 -19 353 -69 l 353 -19 l 353 58 q 190 106 249 68 q 106 203 131 143 q 81 339 81 263 l 81 339 l 81 660 q 106 797 81 736 q 190 894 131 857 q 353 942 249 932 l 353 942 l 353 1019 q 403 1069 353 1069 l 403 1069 l 604 1069 q 654 1019 654 1069 l 654 1019 l 654 944 l 761 944 q 811 894 811 944 l 811 894 l 811 726 q 761 676 811 676 l 761 676 l 482 676 q 413 656 428 676 q 397 607 397 635 l 397 607 l 397 388 q 413 340 397 358 q 482 321 428 321 l 482 321 l 761 321 q 811 271 811 321 l 811 271 l 811 106 q 761 56 811 56 z "},"£":{"ha":965,"x_min":28,"x_max":903,"o":"m 853 0 l 853 0 l 146 0 q 96 50 96 0 l 96 50 l 96 368 l 78 368 q 28 418 28 368 l 28 418 l 28 567 q 78 617 28 617 l 78 617 l 96 617 l 96 717 q 126 865 96 801 q 232 964 157 928 q 438 1000 307 1000 l 438 1000 l 701 1000 q 751 950 751 1000 l 751 950 l 751 782 q 701 732 751 732 l 701 732 l 496 732 q 426 711 442 732 q 411 663 411 690 l 411 663 l 411 617 l 478 617 q 528 567 528 617 l 528 567 l 528 418 q 478 368 528 368 l 478 368 l 411 368 l 411 263 l 601 263 l 601 404 q 651 454 601 454 l 651 454 l 853 454 q 903 404 903 454 l 903 404 l 903 50 q 853 0 903 0 z "},"¤":{"ha":1140,"x_min":47,"x_max":1094,"o":"m 936 638 l 936 361 q 933 310 936 333 l 933 310 l 1058 185 q 1078 152 1078 168 q 1058 117 1078 136 l 1058 117 l 953 11 q 886 11 918 -24 l 886 11 l 769 128 q 683 111 732 117 q 574 106 635 106 l 574 106 q 462 112 511 106 q 374 129 413 118 l 374 129 l 256 11 q 223 -7 239 -7 q 188 11 207 -7 l 188 11 l 82 117 q 82 185 49 153 l 82 185 l 213 315 q 210 361 210 336 l 210 361 l 210 638 q 213 685 210 663 l 213 685 l 82 815 q 82 882 47 847 l 82 882 l 188 988 q 256 988 224 1024 l 256 988 l 374 869 q 461 888 411 882 q 574 894 511 894 l 574 894 q 683 888 635 894 q 769 871 732 882 l 769 871 l 886 988 q 953 988 918 1024 l 953 988 l 1058 882 q 1058 815 1094 847 l 1058 815 l 933 690 q 936 638 936 665 l 936 638 z m 463 597 l 463 401 q 483 357 463 375 q 574 339 503 339 l 574 339 q 665 357 646 339 q 685 401 685 375 l 685 401 l 685 597 q 665 641 685 624 q 574 658 646 658 l 574 658 q 483 641 503 658 q 463 597 463 624 l 463 597 z "},"¥":{"ha":976,"x_min":61,"x_max":915,"o":"m 594 0 l 594 0 l 383 0 q 333 50 333 0 l 333 50 l 333 181 l 182 181 q 132 231 132 181 l 132 231 l 132 365 q 182 415 132 415 l 182 415 l 256 415 l 101 614 q 66 698 71 654 q 61 794 61 742 l 61 794 l 61 950 q 111 1000 61 1000 l 111 1000 l 326 1000 q 376 950 376 1000 l 376 950 l 376 750 q 378 722 376 736 q 388 693 381 708 l 388 693 l 451 603 q 488 579 468 579 l 488 579 l 504 579 q 540 603 525 579 l 540 603 l 600 692 q 610 718 608 706 q 611 743 611 731 l 611 743 q 611 749 611 747 l 611 749 l 611 950 q 661 1000 611 1000 l 661 1000 l 865 1000 q 915 950 915 1000 l 915 950 l 915 793 q 910 697 915 740 q 875 613 904 653 l 875 613 l 722 415 l 796 415 q 846 365 846 415 l 846 365 l 846 231 q 796 181 846 181 l 796 181 l 644 181 l 644 50 q 594 0 644 0 z "},"¦":{"ha":482,"x_min":90,"x_max":392,"o":"m 392 394 l 392 394 l 392 -75 q 342 -125 392 -125 l 342 -125 l 140 -125 q 90 -75 90 -125 l 90 -75 l 90 394 q 140 444 90 444 l 140 444 l 342 444 q 392 394 392 444 z m 392 1075 l 392 1075 l 392 606 q 342 556 392 556 l 342 556 l 140 556 q 90 606 90 556 l 90 606 l 90 1075 q 140 1125 90 1125 l 140 1125 l 342 1125 q 392 1075 392 1125 z "},"§":{"ha":903,"x_min":72,"x_max":847,"o":"m 375 718 l 375 715 l 506 715 q 712 679 638 715 q 817 580 786 643 q 847 432 847 517 l 847 432 l 847 285 q 817 136 847 200 q 712 36 786 72 q 506 0 638 0 l 506 0 l 136 0 q 86 50 86 0 l 86 50 l 86 163 q 136 213 86 213 l 136 213 l 460 213 q 529 234 514 213 q 544 282 544 256 l 544 282 l 544 285 l 414 285 q 208 321 283 285 q 103 421 133 357 q 72 568 72 485 l 72 568 l 72 715 q 103 864 72 800 q 208 964 133 928 q 414 1000 283 1000 l 414 1000 l 747 1000 q 797 950 797 1000 l 797 950 l 797 838 q 747 788 797 788 l 747 788 l 460 788 q 390 767 406 788 q 375 718 375 746 l 375 718 z m 460 547 l 375 547 l 375 519 q 390 472 375 490 q 460 453 406 453 l 460 453 l 544 453 l 544 481 q 529 528 544 510 q 460 547 514 547 l 460 547 z "},"¨":{"ha":694,"x_min":22,"x_max":665,"o":"m 261 1056 l 261 1056 l 69 1056 q 22 1101 22 1056 l 22 1101 l 22 1269 q 69 1315 22 1315 l 69 1315 l 261 1315 q 307 1269 307 1315 l 307 1269 l 307 1101 q 261 1056 307 1056 z m 619 1056 l 619 1056 l 428 1056 q 382 1101 382 1056 l 382 1101 l 382 1269 q 428 1315 382 1315 l 428 1315 l 619 1315 q 665 1269 665 1315 l 665 1269 l 665 1101 q 619 1056 665 1056 z "},"©":{"ha":1204,"x_min":83,"x_max":1121,"o":"m 1121 783 l 1121 214 q 1098 75 1121 138 q 1018 -33 1075 13 q 860 -102 961 -78 q 603 -126 760 -126 l 603 -126 q 346 -102 447 -126 q 187 -33 244 -78 q 106 75 129 13 q 83 214 83 138 l 83 214 l 83 783 q 106 923 83 860 q 187 1031 129 986 q 346 1101 244 1076 q 603 1126 447 1126 l 603 1126 q 860 1101 760 1126 q 1018 1031 961 1076 q 1098 923 1075 986 q 1121 783 1121 860 l 1121 783 z m 982 208 l 982 208 l 982 789 q 951 896 982 850 q 838 967 919 942 q 603 993 756 993 l 603 993 q 367 967 450 993 q 253 896 285 942 q 222 789 222 850 l 222 789 l 222 208 q 253 103 222 149 q 367 33 285 58 q 603 7 450 7 l 603 7 q 838 33 756 7 q 951 103 919 58 q 982 208 982 149 z m 818 153 l 818 153 l 575 153 q 427 178 481 153 q 352 250 374 204 q 331 356 331 296 l 331 356 l 331 665 q 352 772 331 726 q 427 844 374 818 q 575 869 481 869 l 575 869 l 818 869 q 854 833 854 869 l 854 833 l 854 713 q 818 678 854 678 l 818 678 l 618 678 q 568 663 579 678 q 557 628 557 647 l 557 628 l 557 390 q 568 356 557 369 q 618 343 579 343 l 618 343 l 818 343 q 854 307 854 343 l 854 307 l 854 189 q 818 153 854 153 z "},"ª":{"ha":722,"x_min":50,"x_max":672,"o":"m 235 281 l 235 281 l 92 281 q 50 322 50 281 l 50 322 l 50 571 q 58 651 50 613 q 79 721 67 689 l 79 721 q 122 839 99 778 q 164 956 144 900 l 164 956 q 189 990 175 979 q 231 1000 203 1000 l 231 1000 l 493 1000 q 535 990 521 1000 q 558 956 549 979 l 558 956 l 644 721 q 664 651 656 689 q 672 571 672 613 l 672 571 l 672 322 q 631 281 672 281 l 631 281 l 481 281 q 439 322 439 281 l 439 322 l 439 454 l 276 454 l 276 322 q 235 281 276 281 z m 622 0 l 100 0 q 50 50 50 0 l 50 50 l 50 143 q 100 193 50 193 l 100 193 l 622 193 q 672 143 672 193 l 672 143 l 672 50 q 622 0 672 0 l 622 0 z m 338 789 l 289 643 l 426 643 l 379 789 q 367 803 374 803 l 367 803 l 349 803 q 338 789 340 803 l 338 789 z "},"«":{"ha":1128,"x_min":69,"x_max":1044,"o":"m 494 147 l 494 147 l 246 218 q 149 258 189 235 q 90 324 110 282 q 69 433 69 365 l 69 433 l 69 536 q 90 646 69 606 q 149 710 110 686 q 246 751 189 735 l 246 751 l 494 824 q 531 819 517 831 q 544 781 544 808 l 544 781 l 544 618 q 531 576 544 592 q 494 550 518 560 l 494 550 l 363 511 q 344 501 349 506 q 339 485 339 497 l 339 485 q 344 468 339 472 q 363 458 349 464 l 363 458 l 494 421 q 544 353 544 407 l 544 353 l 544 190 q 532 153 544 165 q 494 147 519 140 z m 994 151 l 994 151 l 760 218 q 663 258 703 235 q 603 324 624 282 q 583 433 583 365 l 583 433 l 583 536 q 603 647 583 606 q 662 711 622 688 q 760 751 701 735 l 760 751 l 994 819 q 1031 813 1018 826 q 1044 776 1044 800 l 1044 776 l 1044 618 q 1031 576 1044 592 q 994 550 1018 560 l 994 550 l 863 511 q 844 502 849 507 q 839 485 839 497 l 839 485 q 844 467 839 472 q 863 458 849 463 l 863 458 l 994 421 q 1044 353 1044 407 l 1044 353 l 1044 194 q 1032 157 1044 169 q 994 151 1019 144 z "},"¬":{"ha":1019,"x_min":97,"x_max":922,"o":"m 872 88 l 872 88 l 700 88 q 650 138 650 88 l 650 138 l 650 426 l 147 426 q 97 476 97 426 l 97 476 l 97 635 q 147 685 97 685 l 147 685 l 872 685 q 922 635 922 685 l 922 635 l 922 138 q 872 88 922 88 z "},"®":{"ha":778,"x_min":78,"x_max":700,"o":"m 700 821 l 700 479 q 674 373 700 419 q 582 301 649 326 q 389 275 515 275 l 389 275 q 197 301 264 275 q 103 373 129 326 q 78 479 78 419 l 78 479 l 78 821 q 103 930 78 883 q 197 1002 129 976 q 389 1028 264 1028 l 389 1028 q 582 1002 515 1028 q 674 930 649 976 q 700 821 700 883 l 700 821 z m 617 476 l 617 476 l 617 825 q 598 889 617 861 q 530 932 579 917 q 389 947 481 947 l 389 947 q 248 932 297 947 q 180 889 199 917 q 161 825 161 861 l 161 825 l 161 476 q 180 413 161 440 q 248 371 199 386 q 389 356 297 356 l 389 356 q 530 371 481 356 q 598 413 579 386 q 617 476 617 440 z m 325 453 l 325 453 l 238 453 q 217 474 217 453 l 217 474 l 217 842 q 238 863 217 863 l 238 863 l 426 863 q 515 837 492 863 q 539 768 539 811 l 539 768 l 539 742 q 532 701 539 718 q 506 678 525 685 l 506 678 q 556 652 538 674 q 575 594 575 631 l 575 594 l 575 474 q 556 453 575 453 l 556 453 l 467 453 q 446 474 446 453 l 446 474 l 446 565 q 425 589 446 589 l 425 589 l 344 589 l 344 474 q 325 453 344 453 z m 388 761 l 344 761 l 344 688 l 388 688 q 408 695 403 688 q 413 715 413 703 l 413 715 l 413 733 q 408 753 413 744 q 388 761 403 761 l 388 761 z "},"¯":{"ha":694,"x_min":56,"x_max":638,"o":"m 588 1056 l 588 1056 l 106 1056 q 56 1106 56 1056 l 56 1106 l 56 1235 q 106 1285 56 1285 l 106 1285 l 588 1285 q 638 1235 638 1285 l 638 1235 l 638 1106 q 588 1056 638 1056 z "},"°":{"ha":671,"x_min":63,"x_max":608,"o":"m 608 846 l 608 590 q 586 506 608 543 q 505 449 564 469 q 336 429 446 429 l 336 429 q 167 449 226 429 q 85 506 108 469 q 63 590 63 543 l 63 590 l 63 846 q 85 931 63 894 q 167 987 108 967 q 336 1007 226 1007 l 336 1007 q 505 987 446 1007 q 586 931 564 967 q 608 846 608 894 l 608 846 z m 267 776 l 267 658 q 280 631 267 642 q 336 621 293 621 l 336 621 q 393 631 381 621 q 406 658 406 642 l 406 658 l 406 776 q 394 803 406 792 q 336 815 382 815 l 336 815 q 280 803 293 815 q 267 776 267 792 l 267 776 z "},"±":{"ha":1019,"x_min":97,"x_max":922,"o":"m 374 457 l 147 457 q 97 507 97 457 l 97 507 l 97 665 q 147 715 97 715 l 147 715 l 374 715 l 374 949 q 424 999 374 999 l 424 999 l 596 999 q 646 949 646 999 l 646 949 l 646 715 l 872 715 q 922 665 922 715 l 922 665 l 922 507 q 872 457 922 457 l 872 457 l 646 457 l 646 260 l 872 260 q 922 210 922 260 l 922 210 l 922 51 q 872 1 922 1 l 872 1 l 147 1 q 97 51 97 1 l 97 51 l 97 210 q 147 260 97 260 l 147 260 l 374 260 l 374 457 z "},"²":{"ha":674,"x_min":56,"x_max":603,"o":"m 567 281 l 567 281 l 92 281 q 56 317 56 281 l 56 317 l 56 489 q 76 608 56 567 q 131 672 96 650 q 213 707 167 693 l 213 707 l 346 749 q 374 785 374 758 l 374 785 q 367 806 374 800 q 346 811 361 811 l 346 811 l 129 811 q 93 847 93 811 l 93 847 l 93 964 q 129 1000 93 1000 l 129 1000 l 424 1000 q 555 958 510 1000 q 600 835 600 915 l 600 835 l 600 740 q 559 625 600 664 q 444 564 518 586 l 444 564 l 308 521 q 288 511 293 515 q 282 490 282 507 l 282 490 l 282 469 l 567 469 q 603 433 603 469 l 603 433 l 603 317 q 567 281 603 281 z "},"³":{"ha":672,"x_min":68,"x_max":615,"o":"m 104 469 l 104 469 l 356 469 q 386 478 379 469 q 393 499 393 488 l 393 499 l 393 526 q 386 547 393 538 q 356 556 379 556 l 356 556 l 186 556 q 150 592 150 556 l 150 592 l 150 699 q 186 735 150 735 l 186 735 l 290 735 q 322 744 314 735 q 329 764 329 753 l 329 764 l 329 779 q 322 801 329 792 q 290 810 314 810 l 290 810 l 104 810 q 68 846 68 810 l 68 846 l 68 964 q 104 1000 68 1000 l 104 1000 l 383 1000 q 507 962 467 1000 q 547 857 547 924 l 547 857 l 547 799 q 535 733 547 761 q 489 692 522 706 l 489 692 q 588 648 560 683 q 615 546 615 613 l 615 546 l 615 446 q 566 325 615 369 q 421 281 517 281 l 421 281 l 104 281 q 68 317 68 281 l 68 317 l 68 433 q 104 469 68 469 z "},"´":{"ha":694,"x_min":56,"x_max":638,"o":"m 588 1106 l 588 1106 l 103 1046 q 56 1092 56 1040 l 56 1092 l 56 1225 q 67 1262 56 1251 q 106 1275 79 1272 l 106 1275 l 590 1335 q 638 1289 638 1340 l 638 1289 l 638 1156 q 626 1119 638 1129 q 588 1106 614 1108 z "},"µ":{"ha":990,"x_min":85,"x_max":913,"o":"m 913 742 l 913 263 q 881 114 913 178 q 765 15 849 50 q 525 -21 681 -21 l 525 -21 q 400 -10 454 -21 l 400 -10 l 400 -75 q 350 -125 400 -125 l 350 -125 l 135 -125 q 85 -75 85 -125 l 85 -75 l 85 742 q 135 792 85 792 l 135 792 l 350 792 q 400 742 400 792 l 400 742 l 400 303 q 418 256 400 275 q 500 238 436 238 l 500 238 q 583 256 565 238 q 601 303 601 275 l 601 303 l 601 742 q 651 792 601 792 l 651 792 l 863 792 q 913 742 913 792 l 913 742 z "},"μ":{"ha":990,"x_min":85,"x_max":913,"o":"m 913 742 l 913 263 q 881 114 913 178 q 765 15 849 50 q 525 -21 681 -21 l 525 -21 q 400 -10 454 -21 l 400 -10 l 400 -75 q 350 -125 400 -125 l 350 -125 l 135 -125 q 85 -75 85 -125 l 85 -75 l 85 742 q 135 792 85 792 l 135 792 l 350 792 q 400 742 400 792 l 400 742 l 400 303 q 418 256 400 275 q 500 238 436 238 l 500 238 q 583 256 565 238 q 601 303 601 275 l 601 303 l 601 742 q 651 792 601 792 l 651 792 l 863 792 q 913 742 913 792 l 913 742 z "},"¶":{"ha":947,"x_min":49,"x_max":851,"o":"m 801 0 l 642 0 q 592 50 592 0 l 592 50 l 592 281 l 521 281 l 521 50 q 471 0 521 0 l 471 0 l 311 0 q 261 50 261 0 l 261 50 l 261 290 q 94 382 140 313 q 49 551 49 451 l 49 551 l 49 729 q 78 871 49 810 q 178 966 107 932 q 376 1000 250 1000 l 376 1000 l 801 1000 q 851 950 851 1000 l 851 950 l 851 50 q 801 0 851 0 l 801 0 z "},"·":{"ha":506,"x_min":63,"x_max":443,"o":"m 393 306 l 393 306 l 113 306 q 63 356 63 306 l 63 356 l 63 638 q 113 688 63 688 l 113 688 l 393 688 q 443 638 443 688 l 443 638 l 443 356 q 393 306 443 306 z "},"∙":{"ha":506,"x_min":63,"x_max":443,"o":"m 393 306 l 393 306 l 113 306 q 63 356 63 306 l 63 356 l 63 638 q 113 688 63 688 l 113 688 l 393 688 q 443 638 443 688 l 443 638 l 443 356 q 393 306 443 306 z "},"¸":{"ha":694,"x_min":140,"x_max":533,"o":"m 367 -175 l 367 -175 l 192 -175 q 149 -160 157 -175 q 150 -119 140 -144 l 150 -119 l 268 200 q 290 231 276 224 q 329 228 304 238 l 329 228 l 490 168 q 518 113 533 153 l 518 113 l 431 -133 q 367 -175 417 -175 z "},"¹":{"ha":635,"x_min":67,"x_max":581,"o":"m 544 281 l 544 281 l 103 281 q 67 317 67 281 l 67 317 l 67 438 q 103 474 67 474 l 103 474 l 215 474 l 215 807 l 122 807 q 86 843 86 807 l 86 843 l 86 964 q 122 1000 86 1000 l 122 1000 l 413 1000 q 449 964 449 1000 l 449 964 l 449 474 l 544 474 q 581 438 581 474 l 581 438 l 581 317 q 544 281 581 281 z "},"º":{"ha":729,"x_min":54,"x_max":675,"o":"m 675 807 l 675 472 q 650 365 675 411 q 558 292 625 318 q 365 267 490 267 l 365 267 q 173 292 240 267 q 80 365 106 318 q 54 472 54 411 l 54 472 l 54 807 q 80 916 54 869 q 173 988 106 963 q 365 1014 240 1014 l 365 1014 q 558 988 490 1014 q 650 916 625 963 q 675 807 675 869 l 675 807 z m 625 0 l 104 0 q 54 50 54 0 l 54 50 l 54 143 q 104 193 54 193 l 104 193 l 625 193 q 675 143 675 193 l 675 143 l 675 50 q 625 0 675 0 l 625 0 z m 289 771 l 289 507 q 303 479 289 490 q 365 468 317 468 l 365 468 q 428 479 415 468 q 442 507 442 490 l 442 507 l 442 771 q 428 799 442 788 q 365 811 415 811 l 365 811 q 303 799 317 811 q 289 771 289 788 l 289 771 z "},"»":{"ha":1128,"x_min":83,"x_max":1058,"o":"m 882 218 l 633 147 q 583 190 583 133 l 583 190 l 583 353 q 633 421 583 407 l 633 421 l 765 458 q 785 468 781 464 q 789 485 789 472 l 789 485 q 784 501 789 497 q 765 511 779 506 l 765 511 l 633 550 q 583 618 583 565 l 583 618 l 583 781 q 633 824 583 839 l 633 824 l 882 751 q 979 711 940 735 q 1038 647 1018 688 q 1058 536 1058 606 l 1058 536 l 1058 433 q 1038 324 1058 365 q 979 258 1018 282 q 882 218 940 235 l 882 218 z m 368 218 l 368 218 l 133 151 q 83 194 83 138 l 83 194 l 83 353 q 133 421 83 407 l 133 421 l 265 458 q 285 467 281 463 q 289 485 289 472 l 289 485 q 284 502 289 497 q 265 511 279 507 l 265 511 l 133 550 q 97 576 110 560 q 83 618 83 592 l 83 618 l 83 776 q 96 816 83 804 q 133 819 108 828 l 133 819 l 368 751 q 466 711 426 735 q 525 647 506 688 q 544 536 544 606 l 544 536 l 544 433 q 524 324 544 365 q 465 258 504 282 q 368 218 426 235 z "},"¼":{"ha":1671,"x_min":67,"x_max":1601,"o":"m 544 281 l 544 281 l 103 281 q 67 317 67 281 l 67 317 l 67 438 q 103 474 67 474 l 103 474 l 215 474 l 215 807 l 122 807 q 86 843 86 807 l 86 843 l 86 964 q 122 1000 86 1000 l 122 1000 l 413 1000 q 449 964 449 1000 l 449 964 l 449 474 l 544 474 q 581 438 581 474 l 581 438 l 581 317 q 544 281 581 281 z m 1376 36 l 1376 167 l 1207 167 q 1067 207 1110 167 q 1025 332 1025 247 l 1025 332 l 1025 683 q 1061 719 1025 719 l 1061 719 l 1217 719 q 1251 683 1251 719 l 1251 683 l 1251 410 q 1283 375 1251 375 l 1283 375 l 1376 375 l 1376 683 q 1413 719 1376 719 l 1413 719 l 1567 719 q 1601 683 1601 719 l 1601 683 l 1601 36 q 1567 0 1601 0 l 1567 0 l 1413 0 q 1376 36 1376 0 l 1376 36 z m 590 50 l 590 50 l 757 950 q 772 988 763 976 q 807 1000 781 1000 l 807 1000 l 967 1000 q 1008 988 993 1000 q 1017 950 1022 976 l 1017 950 l 850 50 q 835 12 844 24 q 800 0 826 0 l 800 0 l 640 0 q 599 12 614 0 q 590 50 585 24 z "},"½":{"ha":1611,"x_min":67,"x_max":1540,"o":"m 1504 0 l 1504 0 l 1029 0 q 993 36 993 0 l 993 36 l 993 208 q 1013 328 993 286 q 1069 391 1033 369 q 1150 426 1104 413 l 1150 426 l 1283 468 q 1311 504 1311 478 l 1311 504 q 1305 525 1311 519 q 1283 531 1299 531 l 1283 531 l 1067 531 q 1031 567 1031 531 l 1031 567 l 1031 683 q 1067 719 1031 719 l 1067 719 l 1361 719 q 1492 677 1447 719 q 1538 554 1538 635 l 1538 554 l 1538 460 q 1497 344 1538 383 q 1382 283 1456 306 l 1382 283 l 1246 240 q 1225 231 1231 235 q 1219 210 1219 226 l 1219 210 l 1219 189 l 1504 189 q 1540 153 1540 189 l 1540 153 l 1540 36 q 1504 0 1540 0 z m 590 50 l 590 50 l 757 950 q 772 988 763 976 q 807 1000 781 1000 l 807 1000 l 967 1000 q 1008 988 993 1000 q 1017 950 1022 976 l 1017 950 l 850 50 q 835 12 844 24 q 800 0 826 0 l 800 0 l 640 0 q 599 12 614 0 q 590 50 585 24 z m 544 281 l 544 281 l 103 281 q 67 317 67 281 l 67 317 l 67 438 q 103 474 67 474 l 103 474 l 215 474 l 215 807 l 122 807 q 86 843 86 807 l 86 843 l 86 964 q 122 1000 86 1000 l 122 1000 l 413 1000 q 449 964 449 1000 l 449 964 l 449 474 l 544 474 q 581 438 581 474 l 581 438 l 581 317 q 544 281 581 281 z "},"¾":{"ha":1685,"x_min":68,"x_max":1615,"o":"m 1390 36 l 1390 167 l 1221 167 q 1081 207 1124 167 q 1039 332 1039 247 l 1039 332 l 1039 683 q 1075 719 1039 719 l 1075 719 l 1231 719 q 1265 683 1265 719 l 1265 683 l 1265 410 q 1297 375 1265 375 l 1297 375 l 1390 375 l 1390 683 q 1426 719 1390 719 l 1426 719 l 1581 719 q 1615 683 1615 719 l 1615 683 l 1615 36 q 1581 0 1615 0 l 1581 0 l 1426 0 q 1390 36 1390 0 l 1390 36 z m 104 469 l 104 469 l 356 469 q 386 478 379 469 q 393 499 393 488 l 393 499 l 393 526 q 386 547 393 538 q 356 556 379 556 l 356 556 l 186 556 q 150 592 150 556 l 150 592 l 150 699 q 186 735 150 735 l 186 735 l 290 735 q 322 744 314 735 q 329 764 329 753 l 329 764 l 329 779 q 322 801 329 792 q 290 810 314 810 l 290 810 l 104 810 q 68 846 68 810 l 68 846 l 68 964 q 104 1000 68 1000 l 104 1000 l 383 1000 q 507 962 467 1000 q 547 857 547 924 l 547 857 l 547 799 q 535 733 547 761 q 489 692 522 706 l 489 692 q 588 648 560 683 q 615 546 615 613 l 615 546 l 615 446 q 566 325 615 369 q 421 281 517 281 l 421 281 l 104 281 q 68 317 68 281 l 68 317 l 68 433 q 104 469 68 469 z m 604 50 l 604 50 l 771 950 q 785 988 776 976 q 821 1000 794 1000 l 821 1000 l 981 1000 q 1022 988 1007 1000 q 1031 950 1036 976 l 1031 950 l 864 50 q 849 12 858 24 q 814 0 840 0 l 814 0 l 654 0 q 613 12 628 0 q 604 50 599 24 z "},"¿":{"ha":911,"x_min":63,"x_max":849,"o":"m 278 621 l 278 621 l 654 672 q 692 665 681 675 q 708 629 704 656 l 708 629 l 738 446 q 692 389 746 396 l 692 389 l 415 350 q 378 307 378 344 l 378 307 q 415 268 378 268 l 415 268 l 799 268 q 849 218 849 268 l 849 218 l 849 50 q 799 0 849 0 l 799 0 l 350 0 q 139 63 215 0 q 63 244 63 126 l 63 244 l 63 390 q 121 557 63 507 q 278 621 179 607 z m 433 1000 l 433 1000 l 688 1000 q 738 950 738 1000 l 738 950 l 738 768 q 726 730 738 742 q 688 718 715 718 l 688 718 l 433 718 q 383 768 383 718 l 383 768 l 383 950 q 433 1000 383 1000 z "},"À":{"ha":1014,"x_min":75,"x_max":939,"o":"m 379 244 l 379 50 q 329 0 379 0 l 329 0 l 125 0 q 75 50 75 0 l 75 50 l 75 417 q 88 513 75 458 q 129 639 101 567 l 129 639 l 250 954 q 321 1000 265 1000 l 321 1000 l 694 1000 q 764 954 749 1000 l 764 954 l 885 639 q 926 513 913 567 q 939 417 939 458 l 939 417 l 939 50 q 889 0 939 0 l 889 0 l 679 0 q 625 50 625 0 l 625 50 l 625 244 l 379 244 z m 458 708 l 458 708 l 393 497 l 611 497 l 546 708 q 519 732 536 732 l 519 732 l 485 732 q 458 708 468 732 z m 750 1046 l 750 1046 l 265 1106 q 227 1119 239 1108 q 215 1156 215 1129 l 215 1156 l 215 1289 q 263 1335 215 1340 l 263 1335 l 747 1275 q 785 1262 774 1272 q 797 1225 797 1251 l 797 1225 l 797 1092 q 750 1046 797 1040 z "},"Á":{"ha":1014,"x_min":75,"x_max":939,"o":"m 379 244 l 379 50 q 329 0 379 0 l 329 0 l 125 0 q 75 50 75 0 l 75 50 l 75 417 q 88 513 75 458 q 129 639 101 567 l 129 639 l 250 954 q 321 1000 265 1000 l 321 1000 l 694 1000 q 764 954 749 1000 l 764 954 l 885 639 q 926 513 913 567 q 939 417 939 458 l 939 417 l 939 50 q 889 0 939 0 l 889 0 l 679 0 q 625 50 625 0 l 625 50 l 625 244 l 379 244 z m 458 708 l 458 708 l 393 497 l 611 497 l 546 708 q 519 732 536 732 l 519 732 l 485 732 q 458 708 468 732 z m 747 1106 l 747 1106 l 263 1046 q 215 1092 215 1040 l 215 1092 l 215 1225 q 227 1262 215 1251 q 265 1275 239 1272 l 265 1275 l 750 1335 q 797 1289 797 1340 l 797 1289 l 797 1156 q 785 1119 797 1129 q 747 1106 774 1108 z "},"Â":{"ha":1014,"x_min":75,"x_max":939,"o":"m 379 244 l 379 50 q 329 0 379 0 l 329 0 l 125 0 q 75 50 75 0 l 75 50 l 75 417 q 88 513 75 458 q 129 639 101 567 l 129 639 l 250 954 q 321 1000 265 1000 l 321 1000 l 694 1000 q 764 954 749 1000 l 764 954 l 885 639 q 926 513 913 567 q 939 417 939 458 l 939 417 l 939 50 q 889 0 939 0 l 889 0 l 679 0 q 625 50 625 0 l 625 50 l 625 244 l 379 244 z m 458 708 l 458 708 l 393 497 l 611 497 l 546 708 q 519 732 536 732 l 519 732 l 485 732 q 458 708 468 732 z m 463 1107 l 463 1107 l 272 1051 q 226 1049 238 1040 q 215 1094 215 1057 l 215 1094 l 215 1207 q 227 1256 215 1244 q 272 1281 239 1267 l 272 1281 l 450 1344 q 477 1353 463 1350 q 504 1357 492 1356 l 504 1357 q 528 1356 517 1357 q 549 1350 539 1354 l 549 1350 l 739 1281 q 786 1256 775 1267 q 797 1207 797 1244 l 797 1207 l 797 1094 q 786 1049 797 1057 q 739 1051 775 1040 l 739 1051 l 549 1107 q 463 1107 506 1118 z "},"Ã":{"ha":1014,"x_min":75,"x_max":939,"o":"m 379 244 l 379 50 q 329 0 379 0 l 329 0 l 125 0 q 75 50 75 0 l 75 50 l 75 417 q 88 513 75 458 q 129 639 101 567 l 129 639 l 250 954 q 321 1000 265 1000 l 321 1000 l 694 1000 q 764 954 749 1000 l 764 954 l 885 639 q 926 513 913 567 q 939 417 939 458 l 939 417 l 939 50 q 889 0 939 0 l 889 0 l 679 0 q 625 50 625 0 l 625 50 l 625 244 l 379 244 z m 458 708 l 458 708 l 393 497 l 611 497 l 546 708 q 519 732 536 732 l 519 732 l 485 732 q 458 708 468 732 z m 528 1058 l 506 1061 l 467 1067 q 383 1076 414 1075 q 328 1071 353 1076 q 265 1054 303 1065 l 265 1054 q 215 1090 215 1040 l 215 1090 l 215 1231 q 228 1267 215 1257 q 265 1288 242 1278 l 265 1288 q 336 1304 308 1300 q 395 1306 364 1308 q 482 1294 426 1303 l 482 1294 l 482 1294 l 506 1292 l 536 1288 q 624 1277 594 1279 q 677 1280 654 1275 q 736 1296 700 1285 l 736 1296 q 746 1299 742 1297 l 746 1299 q 796 1263 796 1314 l 796 1263 l 796 1122 q 783 1085 796 1096 q 746 1065 769 1075 l 746 1065 q 675 1049 703 1053 q 615 1047 647 1044 q 528 1058 583 1050 l 528 1058 z "},"Ä":{"ha":1014,"x_min":75,"x_max":939,"o":"m 379 244 l 379 50 q 329 0 379 0 l 329 0 l 125 0 q 75 50 75 0 l 75 50 l 75 417 q 88 513 75 458 q 129 639 101 567 l 129 639 l 250 954 q 321 1000 265 1000 l 321 1000 l 694 1000 q 764 954 749 1000 l 764 954 l 885 639 q 926 513 913 567 q 939 417 939 458 l 939 417 l 939 50 q 889 0 939 0 l 889 0 l 679 0 q 625 50 625 0 l 625 50 l 625 244 l 379 244 z m 458 708 l 458 708 l 393 497 l 611 497 l 546 708 q 519 732 536 732 l 519 732 l 485 732 q 458 708 468 732 z m 421 1056 l 421 1056 l 229 1056 q 182 1101 182 1056 l 182 1101 l 182 1269 q 229 1315 182 1315 l 229 1315 l 421 1315 q 467 1269 467 1315 l 467 1269 l 467 1101 q 421 1056 467 1056 z m 779 1056 l 779 1056 l 588 1056 q 542 1101 542 1056 l 542 1101 l 542 1269 q 588 1315 542 1315 l 588 1315 l 779 1315 q 825 1269 825 1315 l 825 1269 l 825 1101 q 779 1056 825 1056 z "},"Å":{"ha":1014,"x_min":75,"x_max":939,"o":"m 808 1151 l 808 1151 l 808 1071 q 799 1001 808 1033 q 768 944 790 969 l 768 944 l 885 639 q 926 513 913 567 q 939 417 939 458 l 939 417 l 939 50 q 889 0 939 0 l 889 0 l 679 0 q 625 50 625 0 l 625 50 l 625 244 l 379 244 l 379 50 q 329 0 379 0 l 329 0 l 125 0 q 75 50 75 0 l 75 50 l 75 417 q 88 513 75 458 q 129 639 101 567 l 129 639 l 246 944 q 215 1001 224 969 q 206 1071 206 1033 l 206 1071 l 206 1151 q 231 1256 206 1211 q 321 1325 256 1300 q 507 1350 386 1350 l 507 1350 q 693 1325 628 1350 q 783 1256 758 1300 q 808 1151 808 1211 z m 458 708 l 458 708 l 393 497 l 611 497 l 546 708 q 519 732 538 732 l 519 732 l 485 732 q 458 708 467 732 z m 590 1061 l 590 1061 l 590 1110 q 576 1151 590 1138 q 508 1165 561 1165 l 508 1165 q 443 1151 457 1165 q 429 1110 429 1138 l 429 1110 l 429 1061 q 443 1016 429 1031 q 508 1001 457 1001 l 508 1001 q 576 1016 561 1001 q 590 1061 590 1031 z "},"Æ":{"ha":1396,"x_min":75,"x_max":1328,"o":"m 1278 0 l 1278 0 l 661 0 q 611 50 611 0 l 611 50 l 611 244 l 378 244 l 378 50 q 328 0 378 0 l 328 0 l 125 0 q 75 50 75 0 l 75 50 l 75 403 q 85 512 75 464 q 115 611 96 560 l 115 611 l 236 943 q 267 988 247 975 q 322 1000 288 1000 l 322 1000 l 1278 1000 q 1328 950 1328 1000 l 1328 950 l 1328 788 q 1278 738 1328 738 l 1278 738 l 926 738 l 926 631 l 1165 631 q 1215 581 1215 631 l 1215 581 l 1215 432 q 1165 382 1215 382 l 1165 382 l 926 382 l 926 263 l 1278 263 q 1328 213 1328 263 l 1328 213 l 1328 50 q 1278 0 1328 0 z m 611 497 l 611 738 l 490 738 q 474 733 479 738 q 464 714 469 728 l 464 714 l 392 497 l 611 497 z "},"Ç":{"ha":872,"x_min":81,"x_max":811,"o":"m 761 0 l 761 0 l 651 0 l 604 -133 q 540 -175 590 -175 l 540 -175 l 365 -175 q 322 -160 331 -175 q 324 -119 314 -144 l 324 -119 l 368 1 q 151 81 221 13 q 81 283 81 150 l 81 283 l 81 715 q 164 931 81 861 q 422 1000 247 1000 l 422 1000 l 761 1000 q 811 950 811 1000 l 811 950 l 811 782 q 761 732 811 732 l 761 732 l 482 732 q 397 663 397 732 l 397 663 l 397 332 q 482 265 397 265 l 482 265 l 761 265 q 811 215 811 265 l 811 215 l 811 50 q 761 0 811 0 z "},"È":{"ha":908,"x_min":96,"x_max":840,"o":"m 790 0 l 790 0 l 146 0 q 96 50 96 0 l 96 50 l 96 950 q 146 1000 96 1000 l 146 1000 l 790 1000 q 840 950 840 1000 l 840 950 l 840 788 q 790 738 840 738 l 790 738 l 407 738 l 407 631 l 678 631 q 728 581 728 631 l 728 581 l 728 432 q 678 382 728 382 l 678 382 l 407 382 l 407 263 l 790 263 q 840 213 840 263 l 840 213 l 840 50 q 790 0 840 0 z m 697 1046 l 697 1046 l 213 1106 q 174 1119 186 1108 q 163 1156 163 1129 l 163 1156 l 163 1289 q 210 1335 163 1340 l 210 1335 l 694 1275 q 733 1262 721 1272 q 744 1225 744 1251 l 744 1225 l 744 1092 q 697 1046 744 1040 z "},"É":{"ha":908,"x_min":96,"x_max":840,"o":"m 790 0 l 790 0 l 146 0 q 96 50 96 0 l 96 50 l 96 950 q 146 1000 96 1000 l 146 1000 l 790 1000 q 840 950 840 1000 l 840 950 l 840 788 q 790 738 840 738 l 790 738 l 407 738 l 407 631 l 678 631 q 728 581 728 631 l 728 581 l 728 432 q 678 382 728 382 l 678 382 l 407 382 l 407 263 l 790 263 q 840 213 840 263 l 840 213 l 840 50 q 790 0 840 0 z m 736 1106 l 736 1106 l 251 1046 q 204 1092 204 1040 l 204 1092 l 204 1225 q 216 1262 204 1251 q 254 1275 228 1272 l 254 1275 l 739 1335 q 786 1289 786 1340 l 786 1289 l 786 1156 q 774 1119 786 1129 q 736 1106 763 1108 z "},"Ê":{"ha":908,"x_min":96,"x_max":840,"o":"m 790 0 l 790 0 l 146 0 q 96 50 96 0 l 96 50 l 96 950 q 146 1000 96 1000 l 146 1000 l 790 1000 q 840 950 840 1000 l 840 950 l 840 788 q 790 738 840 738 l 790 738 l 407 738 l 407 631 l 678 631 q 728 581 728 631 l 728 581 l 728 432 q 678 382 728 382 l 678 382 l 407 382 l 407 263 l 790 263 q 840 213 840 263 l 840 213 l 840 50 q 790 0 840 0 z m 424 1107 l 424 1107 l 233 1051 q 188 1049 199 1040 q 176 1094 176 1057 l 176 1094 l 176 1207 q 188 1256 176 1244 q 233 1281 200 1267 l 233 1281 l 411 1344 q 438 1353 424 1350 q 465 1357 453 1356 l 465 1357 q 489 1356 478 1357 q 510 1350 500 1354 l 510 1350 l 700 1281 q 747 1256 736 1267 q 758 1207 758 1244 l 758 1207 l 758 1094 q 747 1049 758 1057 q 700 1051 736 1040 l 700 1051 l 510 1107 q 424 1107 467 1118 z "},"Ë":{"ha":908,"x_min":96,"x_max":840,"o":"m 790 0 l 790 0 l 146 0 q 96 50 96 0 l 96 50 l 96 950 q 146 1000 96 1000 l 146 1000 l 790 1000 q 840 950 840 1000 l 840 950 l 840 788 q 790 738 840 738 l 790 738 l 407 738 l 407 631 l 678 631 q 728 581 728 631 l 728 581 l 728 432 q 678 382 728 382 l 678 382 l 407 382 l 407 263 l 790 263 q 840 213 840 263 l 840 213 l 840 50 q 790 0 840 0 z m 396 1056 l 396 1056 l 204 1056 q 157 1101 157 1056 l 157 1101 l 157 1269 q 204 1315 157 1315 l 204 1315 l 396 1315 q 442 1269 442 1315 l 442 1269 l 442 1101 q 396 1056 442 1056 z m 754 1056 l 754 1056 l 563 1056 q 517 1101 517 1056 l 517 1101 l 517 1269 q 563 1315 517 1315 l 563 1315 l 754 1315 q 800 1269 800 1315 l 800 1269 l 800 1101 q 754 1056 800 1056 z "},"Ì":{"ha":840,"x_min":74,"x_max":765,"o":"m 715 0 l 124 0 q 74 50 74 0 l 74 50 l 74 215 q 124 265 74 265 l 124 265 l 261 265 l 261 732 l 124 732 q 74 782 74 732 l 74 782 l 74 950 q 124 1000 74 1000 l 124 1000 l 715 1000 q 765 950 765 1000 l 765 950 l 765 782 q 715 732 765 732 l 715 732 l 581 732 l 581 265 l 715 265 q 765 215 765 265 l 765 215 l 765 50 q 715 0 765 0 l 715 0 z m 663 1046 l 663 1046 l 178 1106 q 140 1119 151 1108 q 128 1156 128 1129 l 128 1156 l 128 1289 q 175 1335 128 1340 l 175 1335 l 660 1275 q 698 1262 686 1272 q 710 1225 710 1251 l 710 1225 l 710 1092 q 663 1046 710 1040 z "},"Í":{"ha":840,"x_min":74,"x_max":765,"o":"m 715 0 l 124 0 q 74 50 74 0 l 74 50 l 74 215 q 124 265 74 265 l 124 265 l 261 265 l 261 732 l 124 732 q 74 782 74 732 l 74 782 l 74 950 q 124 1000 74 1000 l 124 1000 l 715 1000 q 765 950 765 1000 l 765 950 l 765 782 q 715 732 765 732 l 715 732 l 581 732 l 581 265 l 715 265 q 765 215 765 265 l 765 215 l 765 50 q 715 0 765 0 l 715 0 z m 660 1106 l 660 1106 l 175 1046 q 128 1092 128 1040 l 128 1092 l 128 1225 q 140 1262 128 1251 q 178 1275 151 1272 l 178 1275 l 663 1335 q 710 1289 710 1340 l 710 1289 l 710 1156 q 698 1119 710 1129 q 660 1106 686 1108 z "},"Î":{"ha":840,"x_min":74,"x_max":765,"o":"m 715 0 l 124 0 q 74 50 74 0 l 74 50 l 74 215 q 124 265 74 265 l 124 265 l 261 265 l 261 732 l 124 732 q 74 782 74 732 l 74 782 l 74 950 q 124 1000 74 1000 l 124 1000 l 715 1000 q 765 950 765 1000 l 765 950 l 765 782 q 715 732 765 732 l 715 732 l 581 732 l 581 265 l 715 265 q 765 215 765 265 l 765 215 l 765 50 q 715 0 765 0 l 715 0 z m 375 1107 l 375 1107 l 185 1051 q 139 1049 150 1040 q 128 1094 128 1057 l 128 1094 l 128 1207 q 140 1256 128 1244 q 185 1281 151 1267 l 185 1281 l 363 1344 q 390 1353 375 1350 q 417 1357 404 1356 l 417 1357 q 440 1356 429 1357 q 461 1350 451 1354 l 461 1350 l 651 1281 q 699 1256 688 1267 q 710 1207 710 1244 l 710 1207 l 710 1094 q 699 1049 710 1057 q 651 1051 688 1040 l 651 1051 l 461 1107 q 375 1107 418 1118 z "},"Ï":{"ha":840,"x_min":74,"x_max":765,"o":"m 715 0 l 124 0 q 74 50 74 0 l 74 50 l 74 215 q 124 265 74 265 l 124 265 l 261 265 l 261 732 l 124 732 q 74 782 74 732 l 74 782 l 74 950 q 124 1000 74 1000 l 124 1000 l 715 1000 q 765 950 765 1000 l 765 950 l 765 782 q 715 732 765 732 l 715 732 l 581 732 l 581 265 l 715 265 q 765 215 765 265 l 765 215 l 765 50 q 715 0 765 0 l 715 0 z m 333 1056 l 333 1056 l 142 1056 q 94 1101 94 1056 l 94 1101 l 94 1269 q 142 1315 94 1315 l 142 1315 l 333 1315 q 379 1269 379 1315 l 379 1269 l 379 1101 q 333 1056 379 1056 z m 692 1056 l 692 1056 l 500 1056 q 454 1101 454 1056 l 454 1101 l 454 1269 q 500 1315 454 1315 l 500 1315 l 692 1315 q 738 1269 738 1315 l 738 1269 l 738 1101 q 692 1056 738 1056 z "},"Ð":{"ha":1050,"x_min":28,"x_max":969,"o":"m 110 368 l 78 368 q 28 418 28 368 l 28 418 l 28 567 q 78 617 28 617 l 78 617 l 110 617 l 110 950 q 160 1000 110 1000 l 160 1000 l 628 1000 q 834 964 760 1000 q 939 865 908 928 q 969 717 969 801 l 969 717 l 969 283 q 939 136 969 200 q 834 36 908 72 q 628 0 760 0 l 628 0 l 160 0 q 110 50 110 0 l 110 50 l 110 368 z m 590 735 l 421 735 l 421 617 l 478 617 q 528 567 528 617 l 528 567 l 528 418 q 478 368 528 368 l 478 368 l 421 368 l 421 263 l 590 263 q 644 283 632 263 q 656 331 656 303 l 656 331 l 656 668 q 644 715 656 696 q 590 735 632 735 l 590 735 z "},"Ñ":{"ha":1046,"x_min":96,"x_max":950,"o":"m 354 0 l 354 0 l 146 0 q 96 50 96 0 l 96 50 l 96 950 q 146 1000 96 1000 l 146 1000 l 290 1000 q 372 963 340 1000 l 372 963 l 642 654 l 642 950 q 692 1000 642 1000 l 692 1000 l 900 1000 q 950 950 950 1000 l 950 950 l 950 50 q 900 0 950 0 l 900 0 l 692 0 q 642 50 642 0 l 642 50 l 642 221 l 404 508 l 404 50 q 354 0 404 0 z m 543 1058 l 521 1061 l 482 1067 q 399 1076 429 1075 q 343 1071 368 1076 q 281 1054 318 1065 l 281 1054 q 231 1090 231 1040 l 231 1090 l 231 1231 q 244 1267 231 1257 q 281 1288 257 1278 l 281 1288 q 351 1304 324 1300 q 410 1306 379 1308 q 497 1294 442 1303 l 497 1294 l 497 1294 l 521 1292 l 551 1288 q 640 1277 610 1279 q 692 1280 669 1275 q 751 1296 715 1285 l 751 1296 q 761 1299 757 1297 l 761 1299 q 811 1263 811 1314 l 811 1263 l 811 1122 q 798 1085 811 1096 q 761 1065 785 1075 l 761 1065 q 690 1049 718 1053 q 631 1047 663 1044 q 543 1058 599 1050 l 543 1058 z "},"Ò":{"ha":1024,"x_min":81,"x_max":943,"o":"m 943 736 l 943 263 q 924 147 943 199 q 858 57 906 94 q 727 -1 811 19 q 513 -21 643 -21 l 513 -21 q 298 -1 382 -21 q 167 57 214 19 q 100 147 119 94 q 81 263 81 199 l 81 263 l 81 736 q 100 852 81 800 q 167 942 119 904 q 298 1000 214 979 q 513 1021 382 1021 l 513 1021 q 727 1000 643 1021 q 858 942 811 979 q 924 852 906 904 q 943 736 943 800 l 943 736 z m 396 686 l 396 313 q 417 266 396 285 q 513 247 438 247 l 513 247 q 609 266 589 247 q 629 313 629 285 l 629 313 l 629 686 q 609 732 629 714 q 513 750 589 750 l 513 750 q 417 732 438 750 q 396 686 396 714 l 396 686 z m 754 1046 l 754 1046 l 269 1106 q 231 1119 243 1108 q 219 1156 219 1129 l 219 1156 l 219 1289 q 267 1335 219 1340 l 267 1335 l 751 1275 q 790 1262 778 1272 q 801 1225 801 1251 l 801 1225 l 801 1092 q 754 1046 801 1040 z "},"Ó":{"ha":1024,"x_min":81,"x_max":943,"o":"m 943 736 l 943 263 q 924 147 943 199 q 858 57 906 94 q 727 -1 811 19 q 513 -21 643 -21 l 513 -21 q 298 -1 382 -21 q 167 57 214 19 q 100 147 119 94 q 81 263 81 199 l 81 263 l 81 736 q 100 852 81 800 q 167 942 119 904 q 298 1000 214 979 q 513 1021 382 1021 l 513 1021 q 727 1000 643 1021 q 858 942 811 979 q 924 852 906 904 q 943 736 943 800 l 943 736 z m 396 686 l 396 313 q 417 266 396 285 q 513 247 438 247 l 513 247 q 609 266 589 247 q 629 313 629 285 l 629 313 l 629 686 q 609 732 629 714 q 513 750 589 750 l 513 750 q 417 732 438 750 q 396 686 396 714 l 396 686 z m 751 1106 l 751 1106 l 267 1046 q 219 1092 219 1040 l 219 1092 l 219 1225 q 231 1262 219 1251 q 269 1275 243 1272 l 269 1275 l 754 1335 q 801 1289 801 1340 l 801 1289 l 801 1156 q 790 1119 801 1129 q 751 1106 778 1108 z "},"Ô":{"ha":1024,"x_min":81,"x_max":943,"o":"m 943 736 l 943 263 q 924 147 943 199 q 858 57 906 94 q 727 -1 811 19 q 513 -21 643 -21 l 513 -21 q 298 -1 382 -21 q 167 57 214 19 q 100 147 119 94 q 81 263 81 199 l 81 263 l 81 736 q 100 852 81 800 q 167 942 119 904 q 298 1000 214 979 q 513 1021 382 1021 l 513 1021 q 727 1000 643 1021 q 858 942 811 979 q 924 852 906 904 q 943 736 943 800 l 943 736 z m 396 686 l 396 313 q 417 266 396 285 q 513 247 438 247 l 513 247 q 609 266 589 247 q 629 313 629 285 l 629 313 l 629 686 q 609 732 629 714 q 513 750 589 750 l 513 750 q 417 732 438 750 q 396 686 396 714 l 396 686 z m 467 1107 l 467 1107 l 276 1051 q 231 1049 242 1040 q 219 1094 219 1057 l 219 1094 l 219 1207 q 231 1256 219 1244 q 276 1281 243 1267 l 276 1281 l 454 1344 q 481 1353 467 1350 q 508 1357 496 1356 l 508 1357 q 532 1356 521 1357 q 553 1350 543 1354 l 553 1350 l 743 1281 q 790 1256 779 1267 q 801 1207 801 1244 l 801 1207 l 801 1094 q 790 1049 801 1057 q 743 1051 779 1040 l 743 1051 l 553 1107 q 467 1107 510 1118 z "},"Õ":{"ha":1024,"x_min":81,"x_max":943,"o":"m 943 736 l 943 263 q 924 147 943 199 q 858 57 906 94 q 727 -1 811 19 q 513 -21 643 -21 l 513 -21 q 298 -1 382 -21 q 167 57 214 19 q 100 147 119 94 q 81 263 81 199 l 81 263 l 81 736 q 100 852 81 800 q 167 942 119 904 q 298 1000 214 979 q 513 1021 382 1021 l 513 1021 q 727 1000 643 1021 q 858 942 811 979 q 924 852 906 904 q 943 736 943 800 l 943 736 z m 396 686 l 396 313 q 417 266 396 285 q 513 247 438 247 l 513 247 q 609 266 589 247 q 629 313 629 285 l 629 313 l 629 686 q 609 732 629 714 q 513 750 589 750 l 513 750 q 417 732 438 750 q 396 686 396 714 l 396 686 z m 532 1058 l 510 1061 l 471 1067 q 388 1076 418 1075 q 332 1071 357 1076 q 269 1054 307 1065 l 269 1054 q 219 1090 219 1040 l 219 1090 l 219 1231 q 233 1267 219 1257 q 269 1288 246 1278 l 269 1288 q 340 1304 313 1300 q 399 1306 368 1308 q 486 1294 431 1303 l 486 1294 l 486 1294 l 510 1292 l 540 1288 q 628 1277 599 1279 q 681 1280 658 1275 q 740 1296 704 1285 l 740 1296 q 750 1299 746 1297 l 750 1299 q 800 1263 800 1314 l 800 1263 l 800 1122 q 787 1085 800 1096 q 750 1065 774 1075 l 750 1065 q 679 1049 707 1053 q 619 1047 651 1044 q 532 1058 588 1050 l 532 1058 z "},"Ö":{"ha":1024,"x_min":81,"x_max":943,"o":"m 943 736 l 943 263 q 924 147 943 199 q 858 57 906 94 q 727 -1 811 19 q 513 -21 643 -21 l 513 -21 q 298 -1 382 -21 q 167 57 214 19 q 100 147 119 94 q 81 263 81 199 l 81 263 l 81 736 q 100 852 81 800 q 167 942 119 904 q 298 1000 214 979 q 513 1021 382 1021 l 513 1021 q 727 1000 643 1021 q 858 942 811 979 q 924 852 906 904 q 943 736 943 800 l 943 736 z m 396 686 l 396 313 q 417 266 396 285 q 513 247 438 247 l 513 247 q 609 266 589 247 q 629 313 629 285 l 629 313 l 629 686 q 609 732 629 714 q 513 750 589 750 l 513 750 q 417 732 438 750 q 396 686 396 714 l 396 686 z m 425 1056 l 425 1056 l 233 1056 q 186 1101 186 1056 l 186 1101 l 186 1269 q 233 1315 186 1315 l 233 1315 l 425 1315 q 471 1269 471 1315 l 471 1269 l 471 1101 q 425 1056 471 1056 z m 783 1056 l 783 1056 l 592 1056 q 546 1101 546 1056 l 546 1101 l 546 1269 q 592 1315 546 1315 l 592 1315 l 783 1315 q 829 1269 829 1315 l 829 1269 l 829 1101 q 783 1056 829 1056 z "},"×":{"ha":1019,"x_min":99,"x_max":921,"o":"m 510 318 l 317 125 q 246 125 282 89 l 246 125 l 135 236 q 135 307 99 272 l 135 307 l 328 500 l 135 693 q 135 764 99 728 l 135 764 l 246 875 q 317 875 282 911 l 317 875 l 510 682 l 703 875 q 774 875 738 911 l 774 875 l 885 764 q 885 693 921 728 l 885 693 l 692 500 l 885 307 q 885 236 921 272 l 885 236 l 774 125 q 703 125 738 89 l 703 125 l 510 318 z "},"Ø":{"ha":1024,"x_min":81,"x_max":943,"o":"m 943 736 l 943 263 q 924 147 943 199 q 858 57 906 94 q 727 -1 811 19 q 513 -21 643 -21 l 513 -21 q 422 -18 464 -21 l 422 -18 l 410 -47 q 385 -83 397 -69 q 346 -97 372 -97 l 346 -97 l 186 -97 q 149 -83 160 -97 q 150 -47 138 -69 l 150 -47 l 188 43 q 103 137 126 81 q 81 263 81 193 l 81 263 l 81 736 q 100 852 81 800 q 167 942 119 904 q 298 1000 214 979 q 513 1021 382 1021 l 513 1021 q 601 1018 560 1021 l 601 1018 l 614 1047 q 639 1084 626 1071 q 678 1097 651 1097 l 678 1097 l 838 1097 q 875 1084 864 1097 q 874 1047 886 1071 l 874 1047 l 836 957 q 920 863 897 919 q 943 736 943 807 l 943 736 z m 657 313 l 657 619 l 493 233 q 513 233 503 233 l 513 233 q 607 244 576 233 q 647 272 638 254 q 657 313 657 290 l 657 313 z m 368 686 l 368 385 l 529 764 q 513 764 521 764 l 513 764 q 419 753 450 764 q 378 726 389 743 q 368 686 368 708 l 368 686 z "},"Ù":{"ha":1036,"x_min":89,"x_max":947,"o":"m 947 950 l 947 263 q 928 147 947 199 q 862 57 910 94 q 731 -1 814 19 q 518 -21 647 -21 l 518 -21 q 306 -1 389 -21 q 174 57 222 19 q 108 147 126 94 q 89 263 89 199 l 89 263 l 89 950 q 139 1000 89 1000 l 139 1000 l 357 1000 q 407 950 407 1000 l 407 950 l 407 317 q 428 270 407 289 q 521 251 449 251 l 521 251 q 615 270 594 251 q 636 317 636 289 l 636 317 l 636 950 q 686 1000 636 1000 l 686 1000 l 897 1000 q 947 950 947 1000 l 947 950 z m 747 1046 l 747 1046 l 263 1106 q 224 1119 236 1108 q 213 1156 213 1129 l 213 1156 l 213 1289 q 260 1335 213 1340 l 260 1335 l 744 1275 q 783 1262 771 1272 q 794 1225 794 1251 l 794 1225 l 794 1092 q 747 1046 794 1040 z "},"Ú":{"ha":1036,"x_min":89,"x_max":947,"o":"m 947 950 l 947 263 q 928 147 947 199 q 862 57 910 94 q 731 -1 814 19 q 518 -21 647 -21 l 518 -21 q 306 -1 389 -21 q 174 57 222 19 q 108 147 126 94 q 89 263 89 199 l 89 263 l 89 950 q 139 1000 89 1000 l 139 1000 l 357 1000 q 407 950 407 1000 l 407 950 l 407 317 q 428 270 407 289 q 521 251 449 251 l 521 251 q 615 270 594 251 q 636 317 636 289 l 636 317 l 636 950 q 686 1000 636 1000 l 686 1000 l 897 1000 q 947 950 947 1000 l 947 950 z m 772 1106 l 772 1106 l 288 1046 q 240 1092 240 1040 l 240 1092 l 240 1225 q 252 1262 240 1251 q 290 1275 264 1272 l 290 1275 l 775 1335 q 822 1289 822 1340 l 822 1289 l 822 1156 q 810 1119 822 1129 q 772 1106 799 1108 z "},"Û":{"ha":1036,"x_min":89,"x_max":947,"o":"m 947 950 l 947 263 q 928 147 947 199 q 862 57 910 94 q 731 -1 814 19 q 518 -21 647 -21 l 518 -21 q 306 -1 389 -21 q 174 57 222 19 q 108 147 126 94 q 89 263 89 199 l 89 263 l 89 950 q 139 1000 89 1000 l 139 1000 l 357 1000 q 407 950 407 1000 l 407 950 l 407 317 q 428 270 407 289 q 521 251 449 251 l 521 251 q 615 270 594 251 q 636 317 636 289 l 636 317 l 636 950 q 686 1000 636 1000 l 686 1000 l 897 1000 q 947 950 947 1000 l 947 950 z m 474 1107 l 474 1107 l 283 1051 q 238 1049 249 1040 q 226 1094 226 1057 l 226 1094 l 226 1207 q 238 1256 226 1244 q 283 1281 250 1267 l 283 1281 l 461 1344 q 488 1353 474 1350 q 515 1357 503 1356 l 515 1357 q 539 1356 528 1357 q 560 1350 550 1354 l 560 1350 l 750 1281 q 797 1256 786 1267 q 808 1207 808 1244 l 808 1207 l 808 1094 q 797 1049 808 1057 q 750 1051 786 1040 l 750 1051 l 560 1107 q 474 1107 517 1118 z "},"Ü":{"ha":1036,"x_min":89,"x_max":947,"o":"m 947 950 l 947 263 q 928 147 947 199 q 862 57 910 94 q 731 -1 814 19 q 518 -21 647 -21 l 518 -21 q 306 -1 389 -21 q 174 57 222 19 q 108 147 126 94 q 89 263 89 199 l 89 263 l 89 950 q 139 1000 89 1000 l 139 1000 l 357 1000 q 407 950 407 1000 l 407 950 l 407 317 q 428 270 407 289 q 521 251 449 251 l 521 251 q 615 270 594 251 q 636 317 636 289 l 636 317 l 636 950 q 686 1000 636 1000 l 686 1000 l 897 1000 q 947 950 947 1000 l 947 950 z m 432 1056 l 432 1056 l 240 1056 q 193 1101 193 1056 l 193 1101 l 193 1269 q 240 1315 193 1315 l 240 1315 l 432 1315 q 478 1269 478 1315 l 478 1269 l 478 1101 q 432 1056 478 1056 z m 790 1056 l 790 1056 l 599 1056 q 553 1101 553 1056 l 553 1101 l 553 1269 q 599 1315 553 1315 l 599 1315 l 790 1315 q 836 1269 836 1315 l 836 1269 l 836 1101 q 790 1056 836 1056 z "},"Ý":{"ha":979,"x_min":63,"x_max":917,"o":"m 603 0 l 603 0 l 378 0 q 328 50 328 0 l 328 50 l 328 228 l 115 513 q 83 564 94 542 q 67 613 71 586 q 63 683 63 640 l 63 683 l 63 950 q 113 1000 63 1000 l 113 1000 l 326 1000 q 376 950 376 1000 l 376 950 l 376 722 q 378 694 376 708 q 389 664 379 679 l 389 664 l 453 564 q 486 540 467 540 l 486 540 l 500 540 q 533 564 519 540 l 533 564 l 597 664 q 608 694 607 679 q 610 722 610 708 l 610 722 l 610 950 q 660 1000 610 1000 l 660 1000 l 867 1000 q 917 950 917 1000 l 917 950 l 917 683 q 913 613 917 640 q 897 564 908 586 q 864 513 885 542 l 864 513 l 653 226 l 653 50 q 603 0 653 0 z m 743 1106 l 743 1106 l 258 1046 q 211 1092 211 1040 l 211 1092 l 211 1225 q 223 1262 211 1251 q 261 1275 235 1272 l 261 1275 l 746 1335 q 793 1289 793 1340 l 793 1289 l 793 1156 q 781 1119 793 1129 q 743 1106 769 1108 z "},"Þ":{"ha":961,"x_min":96,"x_max":899,"o":"m 361 0 l 361 0 l 146 0 q 96 50 96 0 l 96 50 l 96 950 q 146 1000 96 1000 l 146 1000 l 361 1000 q 411 950 411 1000 l 411 950 l 411 861 l 571 861 q 769 827 697 861 q 869 732 840 793 q 899 590 899 671 l 899 590 l 899 413 q 869 271 899 332 q 769 176 840 210 q 571 142 697 142 l 571 142 l 411 142 l 411 50 q 361 0 411 0 z m 533 601 l 408 601 l 408 392 l 533 392 q 586 413 574 392 q 599 460 599 433 l 599 460 l 599 533 q 586 581 599 561 q 533 601 574 601 l 533 601 z "},"ß":{"ha":1054,"x_min":96,"x_max":1007,"o":"m 411 738 l 411 50 q 361 0 411 0 l 361 0 l 146 0 q 96 50 96 0 l 96 50 l 96 950 q 146 1000 96 1000 l 146 1000 l 661 1000 q 795 966 743 1000 q 865 872 847 932 q 861 735 882 811 l 861 735 l 829 619 q 955 552 903 606 q 1007 401 1007 499 l 1007 401 l 1007 231 q 934 63 1007 125 q 736 0 861 0 l 736 0 l 544 0 q 494 50 494 0 l 494 50 l 494 213 q 544 263 494 263 l 544 263 l 653 263 q 690 294 690 263 l 690 294 l 690 363 q 653 394 690 394 l 653 394 l 553 394 q 501 472 485 394 l 501 472 l 547 699 q 544 726 550 714 q 521 738 539 738 l 521 738 l 411 738 z "},"à":{"ha":1014,"x_min":75,"x_max":939,"o":"m 379 244 l 379 50 q 329 0 379 0 l 329 0 l 125 0 q 75 50 75 0 l 75 50 l 75 417 q 88 513 75 458 q 129 639 101 567 l 129 639 l 250 954 q 321 1000 265 1000 l 321 1000 l 694 1000 q 764 954 749 1000 l 764 954 l 885 639 q 926 513 913 567 q 939 417 939 458 l 939 417 l 939 50 q 889 0 939 0 l 889 0 l 679 0 q 625 50 625 0 l 625 50 l 625 244 l 379 244 z m 458 708 l 458 708 l 393 497 l 611 497 l 546 708 q 519 732 536 732 l 519 732 l 485 732 q 458 708 468 732 z m 750 1046 l 750 1046 l 265 1106 q 227 1119 239 1108 q 215 1156 215 1129 l 215 1156 l 215 1289 q 263 1335 215 1340 l 263 1335 l 747 1275 q 785 1262 774 1272 q 797 1225 797 1251 l 797 1225 l 797 1092 q 750 1046 797 1040 z "},"á":{"ha":1014,"x_min":75,"x_max":939,"o":"m 379 244 l 379 50 q 329 0 379 0 l 329 0 l 125 0 q 75 50 75 0 l 75 50 l 75 417 q 88 513 75 458 q 129 639 101 567 l 129 639 l 250 954 q 321 1000 265 1000 l 321 1000 l 694 1000 q 764 954 749 1000 l 764 954 l 885 639 q 926 513 913 567 q 939 417 939 458 l 939 417 l 939 50 q 889 0 939 0 l 889 0 l 679 0 q 625 50 625 0 l 625 50 l 625 244 l 379 244 z m 458 708 l 458 708 l 393 497 l 611 497 l 546 708 q 519 732 536 732 l 519 732 l 485 732 q 458 708 468 732 z m 747 1106 l 747 1106 l 263 1046 q 215 1092 215 1040 l 215 1092 l 215 1225 q 227 1262 215 1251 q 265 1275 239 1272 l 265 1275 l 750 1335 q 797 1289 797 1340 l 797 1289 l 797 1156 q 785 1119 797 1129 q 747 1106 774 1108 z "},"â":{"ha":1014,"x_min":75,"x_max":939,"o":"m 379 244 l 379 50 q 329 0 379 0 l 329 0 l 125 0 q 75 50 75 0 l 75 50 l 75 417 q 88 513 75 458 q 129 639 101 567 l 129 639 l 250 954 q 321 1000 265 1000 l 321 1000 l 694 1000 q 764 954 749 1000 l 764 954 l 885 639 q 926 513 913 567 q 939 417 939 458 l 939 417 l 939 50 q 889 0 939 0 l 889 0 l 679 0 q 625 50 625 0 l 625 50 l 625 244 l 379 244 z m 458 708 l 458 708 l 393 497 l 611 497 l 546 708 q 519 732 536 732 l 519 732 l 485 732 q 458 708 468 732 z m 463 1107 l 463 1107 l 272 1051 q 226 1049 238 1040 q 215 1094 215 1057 l 215 1094 l 215 1207 q 227 1256 215 1244 q 272 1281 239 1267 l 272 1281 l 450 1344 q 477 1353 463 1350 q 504 1357 492 1356 l 504 1357 q 528 1356 517 1357 q 549 1350 539 1354 l 549 1350 l 739 1281 q 786 1256 775 1267 q 797 1207 797 1244 l 797 1207 l 797 1094 q 786 1049 797 1057 q 739 1051 775 1040 l 739 1051 l 549 1107 q 463 1107 506 1118 z "},"ã":{"ha":1014,"x_min":75,"x_max":939,"o":"m 379 244 l 379 50 q 329 0 379 0 l 329 0 l 125 0 q 75 50 75 0 l 75 50 l 75 417 q 88 513 75 458 q 129 639 101 567 l 129 639 l 250 954 q 321 1000 265 1000 l 321 1000 l 694 1000 q 764 954 749 1000 l 764 954 l 885 639 q 926 513 913 567 q 939 417 939 458 l 939 417 l 939 50 q 889 0 939 0 l 889 0 l 679 0 q 625 50 625 0 l 625 50 l 625 244 l 379 244 z m 458 708 l 458 708 l 393 497 l 611 497 l 546 708 q 519 732 536 732 l 519 732 l 485 732 q 458 708 468 732 z m 528 1058 l 506 1061 l 467 1067 q 383 1076 414 1075 q 328 1071 353 1076 q 265 1054 303 1065 l 265 1054 q 215 1090 215 1040 l 215 1090 l 215 1231 q 228 1267 215 1257 q 265 1288 242 1278 l 265 1288 q 336 1304 308 1300 q 395 1306 364 1308 q 482 1294 426 1303 l 482 1294 l 482 1294 l 506 1292 l 536 1288 q 624 1277 594 1279 q 677 1280 654 1275 q 736 1296 700 1285 l 736 1296 q 746 1299 742 1297 l 746 1299 q 796 1263 796 1314 l 796 1263 l 796 1122 q 783 1085 796 1096 q 746 1065 769 1075 l 746 1065 q 675 1049 703 1053 q 615 1047 647 1044 q 528 1058 583 1050 l 528 1058 z "},"ä":{"ha":1014,"x_min":75,"x_max":939,"o":"m 379 244 l 379 50 q 329 0 379 0 l 329 0 l 125 0 q 75 50 75 0 l 75 50 l 75 417 q 88 513 75 458 q 129 639 101 567 l 129 639 l 250 954 q 321 1000 265 1000 l 321 1000 l 694 1000 q 764 954 749 1000 l 764 954 l 885 639 q 926 513 913 567 q 939 417 939 458 l 939 417 l 939 50 q 889 0 939 0 l 889 0 l 679 0 q 625 50 625 0 l 625 50 l 625 244 l 379 244 z m 458 708 l 458 708 l 393 497 l 611 497 l 546 708 q 519 732 536 732 l 519 732 l 485 732 q 458 708 468 732 z m 421 1056 l 421 1056 l 229 1056 q 182 1101 182 1056 l 182 1101 l 182 1269 q 229 1315 182 1315 l 229 1315 l 421 1315 q 467 1269 467 1315 l 467 1269 l 467 1101 q 421 1056 467 1056 z m 779 1056 l 779 1056 l 588 1056 q 542 1101 542 1056 l 542 1101 l 542 1269 q 588 1315 542 1315 l 588 1315 l 779 1315 q 825 1269 825 1315 l 825 1269 l 825 1101 q 779 1056 825 1056 z "},"å":{"ha":1014,"x_min":75,"x_max":939,"o":"m 808 1151 l 808 1151 l 808 1071 q 799 1001 808 1033 q 768 944 790 969 l 768 944 l 885 639 q 926 513 913 567 q 939 417 939 458 l 939 417 l 939 50 q 889 0 939 0 l 889 0 l 679 0 q 625 50 625 0 l 625 50 l 625 244 l 379 244 l 379 50 q 329 0 379 0 l 329 0 l 125 0 q 75 50 75 0 l 75 50 l 75 417 q 88 513 75 458 q 129 639 101 567 l 129 639 l 246 944 q 215 1001 224 969 q 206 1071 206 1033 l 206 1071 l 206 1151 q 231 1256 206 1211 q 321 1325 256 1300 q 507 1350 386 1350 l 507 1350 q 693 1325 628 1350 q 783 1256 758 1300 q 808 1151 808 1211 z m 458 708 l 458 708 l 393 497 l 611 497 l 546 708 q 519 732 538 732 l 519 732 l 485 732 q 458 708 467 732 z m 590 1061 l 590 1061 l 590 1110 q 576 1151 590 1138 q 508 1165 561 1165 l 508 1165 q 443 1151 457 1165 q 429 1110 429 1138 l 429 1110 l 429 1061 q 443 1016 429 1031 q 508 1001 457 1001 l 508 1001 q 576 1016 561 1001 q 590 1061 590 1031 z "},"æ":{"ha":1396,"x_min":75,"x_max":1328,"o":"m 1278 0 l 1278 0 l 661 0 q 611 50 611 0 l 611 50 l 611 244 l 378 244 l 378 50 q 328 0 378 0 l 328 0 l 125 0 q 75 50 75 0 l 75 50 l 75 403 q 85 512 75 464 q 115 611 96 560 l 115 611 l 236 943 q 267 988 247 975 q 322 1000 288 1000 l 322 1000 l 1278 1000 q 1328 950 1328 1000 l 1328 950 l 1328 788 q 1278 738 1328 738 l 1278 738 l 926 738 l 926 631 l 1165 631 q 1215 581 1215 631 l 1215 581 l 1215 432 q 1165 382 1215 382 l 1165 382 l 926 382 l 926 263 l 1278 263 q 1328 213 1328 263 l 1328 213 l 1328 50 q 1278 0 1328 0 z m 611 497 l 611 738 l 490 738 q 474 733 479 738 q 464 714 469 728 l 464 714 l 392 497 l 611 497 z "},"ç":{"ha":872,"x_min":81,"x_max":811,"o":"m 761 0 l 761 0 l 651 0 l 604 -133 q 540 -175 590 -175 l 540 -175 l 365 -175 q 322 -160 331 -175 q 324 -119 314 -144 l 324 -119 l 368 1 q 151 81 221 13 q 81 283 81 150 l 81 283 l 81 715 q 164 931 81 861 q 422 1000 247 1000 l 422 1000 l 761 1000 q 811 950 811 1000 l 811 950 l 811 782 q 761 732 811 732 l 761 732 l 482 732 q 397 663 397 732 l 397 663 l 397 332 q 482 265 397 265 l 482 265 l 761 265 q 811 215 811 265 l 811 215 l 811 50 q 761 0 811 0 z "},"è":{"ha":908,"x_min":96,"x_max":840,"o":"m 790 0 l 790 0 l 146 0 q 96 50 96 0 l 96 50 l 96 950 q 146 1000 96 1000 l 146 1000 l 790 1000 q 840 950 840 1000 l 840 950 l 840 788 q 790 738 840 738 l 790 738 l 407 738 l 407 631 l 678 631 q 728 581 728 631 l 728 581 l 728 432 q 678 382 728 382 l 678 382 l 407 382 l 407 263 l 790 263 q 840 213 840 263 l 840 213 l 840 50 q 790 0 840 0 z m 697 1046 l 697 1046 l 213 1106 q 174 1119 186 1108 q 163 1156 163 1129 l 163 1156 l 163 1289 q 210 1335 163 1340 l 210 1335 l 694 1275 q 733 1262 721 1272 q 744 1225 744 1251 l 744 1225 l 744 1092 q 697 1046 744 1040 z "},"é":{"ha":908,"x_min":96,"x_max":840,"o":"m 790 0 l 790 0 l 146 0 q 96 50 96 0 l 96 50 l 96 950 q 146 1000 96 1000 l 146 1000 l 790 1000 q 840 950 840 1000 l 840 950 l 840 788 q 790 738 840 738 l 790 738 l 407 738 l 407 631 l 678 631 q 728 581 728 631 l 728 581 l 728 432 q 678 382 728 382 l 678 382 l 407 382 l 407 263 l 790 263 q 840 213 840 263 l 840 213 l 840 50 q 790 0 840 0 z m 736 1106 l 736 1106 l 251 1046 q 204 1092 204 1040 l 204 1092 l 204 1225 q 216 1262 204 1251 q 254 1275 228 1272 l 254 1275 l 739 1335 q 786 1289 786 1340 l 786 1289 l 786 1156 q 774 1119 786 1129 q 736 1106 763 1108 z "},"ê":{"ha":908,"x_min":96,"x_max":840,"o":"m 790 0 l 790 0 l 146 0 q 96 50 96 0 l 96 50 l 96 950 q 146 1000 96 1000 l 146 1000 l 790 1000 q 840 950 840 1000 l 840 950 l 840 788 q 790 738 840 738 l 790 738 l 407 738 l 407 631 l 678 631 q 728 581 728 631 l 728 581 l 728 432 q 678 382 728 382 l 678 382 l 407 382 l 407 263 l 790 263 q 840 213 840 263 l 840 213 l 840 50 q 790 0 840 0 z m 424 1107 l 424 1107 l 233 1051 q 188 1049 199 1040 q 176 1094 176 1057 l 176 1094 l 176 1207 q 188 1256 176 1244 q 233 1281 200 1267 l 233 1281 l 411 1344 q 438 1353 424 1350 q 465 1357 453 1356 l 465 1357 q 489 1356 478 1357 q 510 1350 500 1354 l 510 1350 l 700 1281 q 747 1256 736 1267 q 758 1207 758 1244 l 758 1207 l 758 1094 q 747 1049 758 1057 q 700 1051 736 1040 l 700 1051 l 510 1107 q 424 1107 467 1118 z "},"ë":{"ha":908,"x_min":96,"x_max":840,"o":"m 790 0 l 790 0 l 146 0 q 96 50 96 0 l 96 50 l 96 950 q 146 1000 96 1000 l 146 1000 l 790 1000 q 840 950 840 1000 l 840 950 l 840 788 q 790 738 840 738 l 790 738 l 407 738 l 407 631 l 678 631 q 728 581 728 631 l 728 581 l 728 432 q 678 382 728 382 l 678 382 l 407 382 l 407 263 l 790 263 q 840 213 840 263 l 840 213 l 840 50 q 790 0 840 0 z m 396 1056 l 396 1056 l 204 1056 q 157 1101 157 1056 l 157 1101 l 157 1269 q 204 1315 157 1315 l 204 1315 l 396 1315 q 442 1269 442 1315 l 442 1269 l 442 1101 q 396 1056 442 1056 z m 754 1056 l 754 1056 l 563 1056 q 517 1101 517 1056 l 517 1101 l 517 1269 q 563 1315 517 1315 l 563 1315 l 754 1315 q 800 1269 800 1315 l 800 1269 l 800 1101 q 754 1056 800 1056 z "},"ì":{"ha":840,"x_min":74,"x_max":765,"o":"m 715 0 l 124 0 q 74 50 74 0 l 74 50 l 74 215 q 124 265 74 265 l 124 265 l 261 265 l 261 732 l 124 732 q 74 782 74 732 l 74 782 l 74 950 q 124 1000 74 1000 l 124 1000 l 715 1000 q 765 950 765 1000 l 765 950 l 765 782 q 715 732 765 732 l 715 732 l 581 732 l 581 265 l 715 265 q 765 215 765 265 l 765 215 l 765 50 q 715 0 765 0 l 715 0 z m 663 1046 l 663 1046 l 178 1106 q 140 1119 151 1108 q 128 1156 128 1129 l 128 1156 l 128 1289 q 175 1335 128 1340 l 175 1335 l 660 1275 q 698 1262 686 1272 q 710 1225 710 1251 l 710 1225 l 710 1092 q 663 1046 710 1040 z "},"í":{"ha":840,"x_min":74,"x_max":765,"o":"m 715 0 l 124 0 q 74 50 74 0 l 74 50 l 74 215 q 124 265 74 265 l 124 265 l 261 265 l 261 732 l 124 732 q 74 782 74 732 l 74 782 l 74 950 q 124 1000 74 1000 l 124 1000 l 715 1000 q 765 950 765 1000 l 765 950 l 765 782 q 715 732 765 732 l 715 732 l 581 732 l 581 265 l 715 265 q 765 215 765 265 l 765 215 l 765 50 q 715 0 765 0 l 715 0 z m 660 1106 l 660 1106 l 175 1046 q 128 1092 128 1040 l 128 1092 l 128 1225 q 140 1262 128 1251 q 178 1275 151 1272 l 178 1275 l 663 1335 q 710 1289 710 1340 l 710 1289 l 710 1156 q 698 1119 710 1129 q 660 1106 686 1108 z "},"î":{"ha":840,"x_min":74,"x_max":765,"o":"m 715 0 l 124 0 q 74 50 74 0 l 74 50 l 74 215 q 124 265 74 265 l 124 265 l 261 265 l 261 732 l 124 732 q 74 782 74 732 l 74 782 l 74 950 q 124 1000 74 1000 l 124 1000 l 715 1000 q 765 950 765 1000 l 765 950 l 765 782 q 715 732 765 732 l 715 732 l 581 732 l 581 265 l 715 265 q 765 215 765 265 l 765 215 l 765 50 q 715 0 765 0 l 715 0 z m 375 1107 l 375 1107 l 185 1051 q 139 1049 150 1040 q 128 1094 128 1057 l 128 1094 l 128 1207 q 140 1256 128 1244 q 185 1281 151 1267 l 185 1281 l 363 1344 q 390 1353 375 1350 q 417 1357 404 1356 l 417 1357 q 440 1356 429 1357 q 461 1350 451 1354 l 461 1350 l 651 1281 q 699 1256 688 1267 q 710 1207 710 1244 l 710 1207 l 710 1094 q 699 1049 710 1057 q 651 1051 688 1040 l 651 1051 l 461 1107 q 375 1107 418 1118 z "},"ï":{"ha":840,"x_min":74,"x_max":765,"o":"m 715 0 l 124 0 q 74 50 74 0 l 74 50 l 74 215 q 124 265 74 265 l 124 265 l 261 265 l 261 732 l 124 732 q 74 782 74 732 l 74 782 l 74 950 q 124 1000 74 1000 l 124 1000 l 715 1000 q 765 950 765 1000 l 765 950 l 765 782 q 715 732 765 732 l 715 732 l 581 732 l 581 265 l 715 265 q 765 215 765 265 l 765 215 l 765 50 q 715 0 765 0 l 715 0 z m 333 1056 l 333 1056 l 142 1056 q 94 1101 94 1056 l 94 1101 l 94 1269 q 142 1315 94 1315 l 142 1315 l 333 1315 q 379 1269 379 1315 l 379 1269 l 379 1101 q 333 1056 379 1056 z m 692 1056 l 692 1056 l 500 1056 q 454 1101 454 1056 l 454 1101 l 454 1269 q 500 1315 454 1315 l 500 1315 l 692 1315 q 738 1269 738 1315 l 738 1269 l 738 1101 q 692 1056 738 1056 z "},"ð":{"ha":1050,"x_min":28,"x_max":969,"o":"m 110 368 l 78 368 q 28 418 28 368 l 28 418 l 28 567 q 78 617 28 617 l 78 617 l 110 617 l 110 950 q 160 1000 110 1000 l 160 1000 l 628 1000 q 834 964 760 1000 q 939 865 908 928 q 969 717 969 801 l 969 717 l 969 283 q 939 136 969 200 q 834 36 908 72 q 628 0 760 0 l 628 0 l 160 0 q 110 50 110 0 l 110 50 l 110 368 z m 590 735 l 421 735 l 421 617 l 478 617 q 528 567 528 617 l 528 567 l 528 418 q 478 368 528 368 l 478 368 l 421 368 l 421 263 l 590 263 q 644 283 632 263 q 656 331 656 303 l 656 331 l 656 668 q 644 715 656 696 q 590 735 632 735 l 590 735 z "},"ñ":{"ha":1046,"x_min":96,"x_max":950,"o":"m 354 0 l 354 0 l 146 0 q 96 50 96 0 l 96 50 l 96 950 q 146 1000 96 1000 l 146 1000 l 290 1000 q 372 963 340 1000 l 372 963 l 642 654 l 642 950 q 692 1000 642 1000 l 692 1000 l 900 1000 q 950 950 950 1000 l 950 950 l 950 50 q 900 0 950 0 l 900 0 l 692 0 q 642 50 642 0 l 642 50 l 642 221 l 404 508 l 404 50 q 354 0 404 0 z m 543 1058 l 521 1061 l 482 1067 q 399 1076 429 1075 q 343 1071 368 1076 q 281 1054 318 1065 l 281 1054 q 231 1090 231 1040 l 231 1090 l 231 1231 q 244 1267 231 1257 q 281 1288 257 1278 l 281 1288 q 351 1304 324 1300 q 410 1306 379 1308 q 497 1294 442 1303 l 497 1294 l 497 1294 l 521 1292 l 551 1288 q 640 1277 610 1279 q 692 1280 669 1275 q 751 1296 715 1285 l 751 1296 q 761 1299 757 1297 l 761 1299 q 811 1263 811 1314 l 811 1263 l 811 1122 q 798 1085 811 1096 q 761 1065 785 1075 l 761 1065 q 690 1049 718 1053 q 631 1047 663 1044 q 543 1058 599 1050 l 543 1058 z "},"ò":{"ha":1024,"x_min":81,"x_max":943,"o":"m 943 736 l 943 263 q 924 147 943 199 q 858 57 906 94 q 727 -1 811 19 q 513 -21 643 -21 l 513 -21 q 298 -1 382 -21 q 167 57 214 19 q 100 147 119 94 q 81 263 81 199 l 81 263 l 81 736 q 100 852 81 800 q 167 942 119 904 q 298 1000 214 979 q 513 1021 382 1021 l 513 1021 q 727 1000 643 1021 q 858 942 811 979 q 924 852 906 904 q 943 736 943 800 l 943 736 z m 396 686 l 396 313 q 417 266 396 285 q 513 247 438 247 l 513 247 q 609 266 589 247 q 629 313 629 285 l 629 313 l 629 686 q 609 732 629 714 q 513 750 589 750 l 513 750 q 417 732 438 750 q 396 686 396 714 l 396 686 z m 754 1046 l 754 1046 l 269 1106 q 231 1119 243 1108 q 219 1156 219 1129 l 219 1156 l 219 1289 q 267 1335 219 1340 l 267 1335 l 751 1275 q 790 1262 778 1272 q 801 1225 801 1251 l 801 1225 l 801 1092 q 754 1046 801 1040 z "},"ó":{"ha":1024,"x_min":81,"x_max":943,"o":"m 943 736 l 943 263 q 924 147 943 199 q 858 57 906 94 q 727 -1 811 19 q 513 -21 643 -21 l 513 -21 q 298 -1 382 -21 q 167 57 214 19 q 100 147 119 94 q 81 263 81 199 l 81 263 l 81 736 q 100 852 81 800 q 167 942 119 904 q 298 1000 214 979 q 513 1021 382 1021 l 513 1021 q 727 1000 643 1021 q 858 942 811 979 q 924 852 906 904 q 943 736 943 800 l 943 736 z m 396 686 l 396 313 q 417 266 396 285 q 513 247 438 247 l 513 247 q 609 266 589 247 q 629 313 629 285 l 629 313 l 629 686 q 609 732 629 714 q 513 750 589 750 l 513 750 q 417 732 438 750 q 396 686 396 714 l 396 686 z m 751 1106 l 751 1106 l 267 1046 q 219 1092 219 1040 l 219 1092 l 219 1225 q 231 1262 219 1251 q 269 1275 243 1272 l 269 1275 l 754 1335 q 801 1289 801 1340 l 801 1289 l 801 1156 q 790 1119 801 1129 q 751 1106 778 1108 z "},"ô":{"ha":1024,"x_min":81,"x_max":943,"o":"m 943 736 l 943 263 q 924 147 943 199 q 858 57 906 94 q 727 -1 811 19 q 513 -21 643 -21 l 513 -21 q 298 -1 382 -21 q 167 57 214 19 q 100 147 119 94 q 81 263 81 199 l 81 263 l 81 736 q 100 852 81 800 q 167 942 119 904 q 298 1000 214 979 q 513 1021 382 1021 l 513 1021 q 727 1000 643 1021 q 858 942 811 979 q 924 852 906 904 q 943 736 943 800 l 943 736 z m 396 686 l 396 313 q 417 266 396 285 q 513 247 438 247 l 513 247 q 609 266 589 247 q 629 313 629 285 l 629 313 l 629 686 q 609 732 629 714 q 513 750 589 750 l 513 750 q 417 732 438 750 q 396 686 396 714 l 396 686 z m 467 1107 l 467 1107 l 276 1051 q 231 1049 242 1040 q 219 1094 219 1057 l 219 1094 l 219 1207 q 231 1256 219 1244 q 276 1281 243 1267 l 276 1281 l 454 1344 q 481 1353 467 1350 q 508 1357 496 1356 l 508 1357 q 532 1356 521 1357 q 553 1350 543 1354 l 553 1350 l 743 1281 q 790 1256 779 1267 q 801 1207 801 1244 l 801 1207 l 801 1094 q 790 1049 801 1057 q 743 1051 779 1040 l 743 1051 l 553 1107 q 467 1107 510 1118 z "},"õ":{"ha":1024,"x_min":81,"x_max":943,"o":"m 943 736 l 943 263 q 924 147 943 199 q 858 57 906 94 q 727 -1 811 19 q 513 -21 643 -21 l 513 -21 q 298 -1 382 -21 q 167 57 214 19 q 100 147 119 94 q 81 263 81 199 l 81 263 l 81 736 q 100 852 81 800 q 167 942 119 904 q 298 1000 214 979 q 513 1021 382 1021 l 513 1021 q 727 1000 643 1021 q 858 942 811 979 q 924 852 906 904 q 943 736 943 800 l 943 736 z m 396 686 l 396 313 q 417 266 396 285 q 513 247 438 247 l 513 247 q 609 266 589 247 q 629 313 629 285 l 629 313 l 629 686 q 609 732 629 714 q 513 750 589 750 l 513 750 q 417 732 438 750 q 396 686 396 714 l 396 686 z m 532 1058 l 510 1061 l 471 1067 q 388 1076 418 1075 q 332 1071 357 1076 q 269 1054 307 1065 l 269 1054 q 219 1090 219 1040 l 219 1090 l 219 1231 q 233 1267 219 1257 q 269 1288 246 1278 l 269 1288 q 340 1304 313 1300 q 399 1306 368 1308 q 486 1294 431 1303 l 486 1294 l 486 1294 l 510 1292 l 540 1288 q 628 1277 599 1279 q 681 1280 658 1275 q 740 1296 704 1285 l 740 1296 q 750 1299 746 1297 l 750 1299 q 800 1263 800 1314 l 800 1263 l 800 1122 q 787 1085 800 1096 q 750 1065 774 1075 l 750 1065 q 679 1049 707 1053 q 619 1047 651 1044 q 532 1058 588 1050 l 532 1058 z "},"ö":{"ha":1024,"x_min":81,"x_max":943,"o":"m 943 736 l 943 263 q 924 147 943 199 q 858 57 906 94 q 727 -1 811 19 q 513 -21 643 -21 l 513 -21 q 298 -1 382 -21 q 167 57 214 19 q 100 147 119 94 q 81 263 81 199 l 81 263 l 81 736 q 100 852 81 800 q 167 942 119 904 q 298 1000 214 979 q 513 1021 382 1021 l 513 1021 q 727 1000 643 1021 q 858 942 811 979 q 924 852 906 904 q 943 736 943 800 l 943 736 z m 396 686 l 396 313 q 417 266 396 285 q 513 247 438 247 l 513 247 q 609 266 589 247 q 629 313 629 285 l 629 313 l 629 686 q 609 732 629 714 q 513 750 589 750 l 513 750 q 417 732 438 750 q 396 686 396 714 l 396 686 z m 425 1056 l 425 1056 l 233 1056 q 186 1101 186 1056 l 186 1101 l 186 1269 q 233 1315 186 1315 l 233 1315 l 425 1315 q 471 1269 471 1315 l 471 1269 l 471 1101 q 425 1056 471 1056 z m 783 1056 l 783 1056 l 592 1056 q 546 1101 546 1056 l 546 1101 l 546 1269 q 592 1315 546 1315 l 592 1315 l 783 1315 q 829 1269 829 1315 l 829 1269 l 829 1101 q 783 1056 829 1056 z "},"÷":{"ha":1019,"x_min":97,"x_max":922,"o":"m 872 385 l 147 385 q 97 435 97 385 l 97 435 l 97 565 q 147 615 97 615 l 147 615 l 872 615 q 922 565 922 615 l 922 565 l 922 435 q 872 385 922 385 l 872 385 z m 622 58 l 622 58 l 397 58 q 347 108 347 58 l 347 108 l 347 279 q 397 329 347 329 l 397 329 l 622 329 q 672 279 672 329 l 672 279 l 672 108 q 622 58 672 58 z m 622 671 l 622 671 l 397 671 q 347 721 347 671 l 347 721 l 347 892 q 397 942 347 942 l 397 942 l 622 942 q 672 892 672 942 l 672 892 l 672 721 q 622 671 672 671 z "},"ø":{"ha":1024,"x_min":81,"x_max":943,"o":"m 943 736 l 943 263 q 924 147 943 199 q 858 57 906 94 q 727 -1 811 19 q 513 -21 643 -21 l 513 -21 q 422 -18 464 -21 l 422 -18 l 410 -47 q 385 -83 397 -69 q 346 -97 372 -97 l 346 -97 l 186 -97 q 149 -83 160 -97 q 150 -47 138 -69 l 150 -47 l 188 43 q 103 137 126 81 q 81 263 81 193 l 81 263 l 81 736 q 100 852 81 800 q 167 942 119 904 q 298 1000 214 979 q 513 1021 382 1021 l 513 1021 q 601 1018 560 1021 l 601 1018 l 614 1047 q 639 1084 626 1071 q 678 1097 651 1097 l 678 1097 l 838 1097 q 875 1084 864 1097 q 874 1047 886 1071 l 874 1047 l 836 957 q 920 863 897 919 q 943 736 943 807 l 943 736 z m 657 313 l 657 619 l 493 233 q 513 233 503 233 l 513 233 q 607 244 576 233 q 647 272 638 254 q 657 313 657 290 l 657 313 z m 368 686 l 368 385 l 529 764 q 513 764 521 764 l 513 764 q 419 753 450 764 q 378 726 389 743 q 368 686 368 708 l 368 686 z "},"ù":{"ha":1036,"x_min":89,"x_max":947,"o":"m 947 950 l 947 263 q 928 147 947 199 q 862 57 910 94 q 731 -1 814 19 q 518 -21 647 -21 l 518 -21 q 306 -1 389 -21 q 174 57 222 19 q 108 147 126 94 q 89 263 89 199 l 89 263 l 89 950 q 139 1000 89 1000 l 139 1000 l 357 1000 q 407 950 407 1000 l 407 950 l 407 317 q 428 270 407 289 q 521 251 449 251 l 521 251 q 615 270 594 251 q 636 317 636 289 l 636 317 l 636 950 q 686 1000 636 1000 l 686 1000 l 897 1000 q 947 950 947 1000 l 947 950 z m 747 1046 l 747 1046 l 263 1106 q 224 1119 236 1108 q 213 1156 213 1129 l 213 1156 l 213 1289 q 260 1335 213 1340 l 260 1335 l 744 1275 q 783 1262 771 1272 q 794 1225 794 1251 l 794 1225 l 794 1092 q 747 1046 794 1040 z "},"ú":{"ha":1036,"x_min":89,"x_max":947,"o":"m 947 950 l 947 263 q 928 147 947 199 q 862 57 910 94 q 731 -1 814 19 q 518 -21 647 -21 l 518 -21 q 306 -1 389 -21 q 174 57 222 19 q 108 147 126 94 q 89 263 89 199 l 89 263 l 89 950 q 139 1000 89 1000 l 139 1000 l 357 1000 q 407 950 407 1000 l 407 950 l 407 317 q 428 270 407 289 q 521 251 449 251 l 521 251 q 615 270 594 251 q 636 317 636 289 l 636 317 l 636 950 q 686 1000 636 1000 l 686 1000 l 897 1000 q 947 950 947 1000 l 947 950 z m 772 1106 l 772 1106 l 288 1046 q 240 1092 240 1040 l 240 1092 l 240 1225 q 252 1262 240 1251 q 290 1275 264 1272 l 290 1275 l 775 1335 q 822 1289 822 1340 l 822 1289 l 822 1156 q 810 1119 822 1129 q 772 1106 799 1108 z "},"û":{"ha":1036,"x_min":89,"x_max":947,"o":"m 947 950 l 947 263 q 928 147 947 199 q 862 57 910 94 q 731 -1 814 19 q 518 -21 647 -21 l 518 -21 q 306 -1 389 -21 q 174 57 222 19 q 108 147 126 94 q 89 263 89 199 l 89 263 l 89 950 q 139 1000 89 1000 l 139 1000 l 357 1000 q 407 950 407 1000 l 407 950 l 407 317 q 428 270 407 289 q 521 251 449 251 l 521 251 q 615 270 594 251 q 636 317 636 289 l 636 317 l 636 950 q 686 1000 636 1000 l 686 1000 l 897 1000 q 947 950 947 1000 l 947 950 z m 474 1107 l 474 1107 l 283 1051 q 238 1049 249 1040 q 226 1094 226 1057 l 226 1094 l 226 1207 q 238 1256 226 1244 q 283 1281 250 1267 l 283 1281 l 461 1344 q 488 1353 474 1350 q 515 1357 503 1356 l 515 1357 q 539 1356 528 1357 q 560 1350 550 1354 l 560 1350 l 750 1281 q 797 1256 786 1267 q 808 1207 808 1244 l 808 1207 l 808 1094 q 797 1049 808 1057 q 750 1051 786 1040 l 750 1051 l 560 1107 q 474 1107 517 1118 z "},"ü":{"ha":1036,"x_min":89,"x_max":947,"o":"m 947 950 l 947 263 q 928 147 947 199 q 862 57 910 94 q 731 -1 814 19 q 518 -21 647 -21 l 518 -21 q 306 -1 389 -21 q 174 57 222 19 q 108 147 126 94 q 89 263 89 199 l 89 263 l 89 950 q 139 1000 89 1000 l 139 1000 l 357 1000 q 407 950 407 1000 l 407 950 l 407 317 q 428 270 407 289 q 521 251 449 251 l 521 251 q 615 270 594 251 q 636 317 636 289 l 636 317 l 636 950 q 686 1000 636 1000 l 686 1000 l 897 1000 q 947 950 947 1000 l 947 950 z m 432 1056 l 432 1056 l 240 1056 q 193 1101 193 1056 l 193 1101 l 193 1269 q 240 1315 193 1315 l 240 1315 l 432 1315 q 478 1269 478 1315 l 478 1269 l 478 1101 q 432 1056 478 1056 z m 790 1056 l 790 1056 l 599 1056 q 553 1101 553 1056 l 553 1101 l 553 1269 q 599 1315 553 1315 l 599 1315 l 790 1315 q 836 1269 836 1315 l 836 1269 l 836 1101 q 790 1056 836 1056 z "},"ý":{"ha":979,"x_min":63,"x_max":917,"o":"m 603 0 l 603 0 l 378 0 q 328 50 328 0 l 328 50 l 328 228 l 115 513 q 83 564 94 542 q 67 613 71 586 q 63 683 63 640 l 63 683 l 63 950 q 113 1000 63 1000 l 113 1000 l 326 1000 q 376 950 376 1000 l 376 950 l 376 722 q 378 694 376 708 q 389 664 379 679 l 389 664 l 453 564 q 486 540 467 540 l 486 540 l 500 540 q 533 564 519 540 l 533 564 l 597 664 q 608 694 607 679 q 610 722 610 708 l 610 722 l 610 950 q 660 1000 610 1000 l 660 1000 l 867 1000 q 917 950 917 1000 l 917 950 l 917 683 q 913 613 917 640 q 897 564 908 586 q 864 513 885 542 l 864 513 l 653 226 l 653 50 q 603 0 653 0 z m 743 1106 l 743 1106 l 258 1046 q 211 1092 211 1040 l 211 1092 l 211 1225 q 223 1262 211 1251 q 261 1275 235 1272 l 261 1275 l 746 1335 q 793 1289 793 1340 l 793 1289 l 793 1156 q 781 1119 793 1129 q 743 1106 769 1108 z "},"þ":{"ha":961,"x_min":96,"x_max":899,"o":"m 361 0 l 361 0 l 146 0 q 96 50 96 0 l 96 50 l 96 950 q 146 1000 96 1000 l 146 1000 l 361 1000 q 411 950 411 1000 l 411 950 l 411 861 l 571 861 q 769 827 697 861 q 869 732 840 793 q 899 590 899 671 l 899 590 l 899 413 q 869 271 899 332 q 769 176 840 210 q 571 142 697 142 l 571 142 l 411 142 l 411 50 q 361 0 411 0 z m 533 601 l 408 601 l 408 392 l 533 392 q 586 413 574 392 q 599 460 599 433 l 599 460 l 599 533 q 586 581 599 561 q 533 601 574 601 l 533 601 z "},"ÿ":{"ha":979,"x_min":63,"x_max":917,"o":"m 603 0 l 603 0 l 378 0 q 328 50 328 0 l 328 50 l 328 228 l 115 513 q 83 564 94 542 q 67 613 71 586 q 63 683 63 640 l 63 683 l 63 950 q 113 1000 63 1000 l 113 1000 l 326 1000 q 376 950 376 1000 l 376 950 l 376 722 q 378 694 376 708 q 389 664 379 679 l 389 664 l 453 564 q 486 540 467 540 l 486 540 l 500 540 q 533 564 519 540 l 533 564 l 597 664 q 608 694 607 679 q 610 722 610 708 l 610 722 l 610 950 q 660 1000 610 1000 l 660 1000 l 867 1000 q 917 950 917 1000 l 917 950 l 917 683 q 913 613 917 640 q 897 564 908 586 q 864 513 885 542 l 864 513 l 653 226 l 653 50 q 603 0 653 0 z m 403 1056 l 403 1056 l 211 1056 q 164 1101 164 1056 l 164 1101 l 164 1269 q 211 1315 164 1315 l 211 1315 l 403 1315 q 449 1269 449 1315 l 449 1269 l 449 1101 q 403 1056 449 1056 z m 761 1056 l 761 1056 l 569 1056 q 524 1101 524 1056 l 524 1101 l 524 1269 q 569 1315 524 1315 l 569 1315 l 761 1315 q 807 1269 807 1315 l 807 1269 l 807 1101 q 761 1056 807 1056 z "},"Ā":{"ha":1014,"x_min":75,"x_max":939,"o":"m 379 244 l 379 50 q 329 0 379 0 l 329 0 l 125 0 q 75 50 75 0 l 75 50 l 75 417 q 88 513 75 458 q 129 639 101 567 l 129 639 l 250 954 q 321 1000 265 1000 l 321 1000 l 694 1000 q 764 954 749 1000 l 764 954 l 885 639 q 926 513 913 567 q 939 417 939 458 l 939 417 l 939 50 q 889 0 939 0 l 889 0 l 679 0 q 625 50 625 0 l 625 50 l 625 244 l 379 244 z m 458 708 l 458 708 l 393 497 l 611 497 l 546 708 q 519 732 536 732 l 519 732 l 485 732 q 458 708 468 732 z m 747 1056 l 747 1056 l 265 1056 q 215 1106 215 1056 l 215 1106 l 215 1235 q 265 1285 215 1285 l 265 1285 l 747 1285 q 797 1235 797 1285 l 797 1235 l 797 1106 q 747 1056 797 1056 z "},"ā":{"ha":1014,"x_min":75,"x_max":939,"o":"m 379 244 l 379 50 q 329 0 379 0 l 329 0 l 125 0 q 75 50 75 0 l 75 50 l 75 417 q 88 513 75 458 q 129 639 101 567 l 129 639 l 250 954 q 321 1000 265 1000 l 321 1000 l 694 1000 q 764 954 749 1000 l 764 954 l 885 639 q 926 513 913 567 q 939 417 939 458 l 939 417 l 939 50 q 889 0 939 0 l 889 0 l 679 0 q 625 50 625 0 l 625 50 l 625 244 l 379 244 z m 458 708 l 458 708 l 393 497 l 611 497 l 546 708 q 519 732 536 732 l 519 732 l 485 732 q 458 708 468 732 z m 747 1056 l 747 1056 l 265 1056 q 215 1106 215 1056 l 215 1106 l 215 1235 q 265 1285 215 1285 l 265 1285 l 747 1285 q 797 1235 797 1285 l 797 1235 l 797 1106 q 747 1056 797 1056 z "},"Ă":{"ha":1014,"x_min":75,"x_max":939,"o":"m 379 244 l 379 50 q 329 0 379 0 l 329 0 l 125 0 q 75 50 75 0 l 75 50 l 75 417 q 88 513 75 458 q 129 639 101 567 l 129 639 l 250 954 q 321 1000 265 1000 l 321 1000 l 694 1000 q 764 954 749 1000 l 764 954 l 885 639 q 926 513 913 567 q 939 417 939 458 l 939 417 l 939 50 q 889 0 939 0 l 889 0 l 679 0 q 625 50 625 0 l 625 50 l 625 244 l 379 244 z m 458 708 l 458 708 l 393 497 l 611 497 l 546 708 q 519 732 536 732 l 519 732 l 485 732 q 458 708 468 732 z m 808 1307 l 808 1246 q 783 1142 808 1188 q 693 1072 758 1097 q 507 1047 628 1047 l 507 1047 q 321 1072 386 1047 q 231 1142 256 1097 q 206 1246 206 1188 l 206 1246 l 206 1307 q 256 1357 206 1357 l 256 1357 l 389 1357 q 420 1348 411 1357 q 429 1314 429 1339 l 429 1314 l 429 1285 q 443 1252 429 1265 q 508 1239 457 1239 l 508 1239 q 576 1252 561 1239 q 590 1285 590 1265 l 590 1285 l 590 1314 q 599 1348 590 1339 q 632 1357 608 1357 l 632 1357 l 758 1357 q 808 1307 808 1357 l 808 1307 z "},"ă":{"ha":1014,"x_min":75,"x_max":939,"o":"m 379 244 l 379 50 q 329 0 379 0 l 329 0 l 125 0 q 75 50 75 0 l 75 50 l 75 417 q 88 513 75 458 q 129 639 101 567 l 129 639 l 250 954 q 321 1000 265 1000 l 321 1000 l 694 1000 q 764 954 749 1000 l 764 954 l 885 639 q 926 513 913 567 q 939 417 939 458 l 939 417 l 939 50 q 889 0 939 0 l 889 0 l 679 0 q 625 50 625 0 l 625 50 l 625 244 l 379 244 z m 458 708 l 458 708 l 393 497 l 611 497 l 546 708 q 519 732 536 732 l 519 732 l 485 732 q 458 708 468 732 z m 808 1307 l 808 1246 q 783 1142 808 1188 q 693 1072 758 1097 q 507 1047 628 1047 l 507 1047 q 321 1072 386 1047 q 231 1142 256 1097 q 206 1246 206 1188 l 206 1246 l 206 1307 q 256 1357 206 1357 l 256 1357 l 389 1357 q 420 1348 411 1357 q 429 1314 429 1339 l 429 1314 l 429 1285 q 443 1252 429 1265 q 508 1239 457 1239 l 508 1239 q 576 1252 561 1239 q 590 1285 590 1265 l 590 1285 l 590 1314 q 599 1348 590 1339 q 632 1357 608 1357 l 632 1357 l 758 1357 q 808 1307 808 1357 l 808 1307 z "},"Ą":{"ha":1014,"x_min":75,"x_max":939,"o":"m 379 244 l 379 50 q 329 0 379 0 l 329 0 l 125 0 q 75 50 75 0 l 75 50 l 75 417 q 88 513 75 458 q 129 639 101 567 l 129 639 l 250 954 q 321 1000 265 1000 l 321 1000 l 694 1000 q 764 954 749 1000 l 764 954 l 885 639 q 926 513 913 567 q 939 417 939 458 l 939 417 l 939 50 q 889 0 939 0 l 889 0 l 842 0 l 832 -64 l 889 -64 q 928 -74 918 -64 q 939 -111 939 -83 l 939 -111 l 939 -211 q 930 -248 939 -237 q 893 -258 921 -258 l 893 -258 l 739 -258 q 617 -213 650 -258 q 599 -71 585 -168 l 599 -71 l 625 78 l 625 244 l 379 244 z m 458 708 l 458 708 l 393 497 l 611 497 l 546 708 q 519 732 536 732 l 519 732 l 485 732 q 458 708 468 732 z "},"ą":{"ha":1014,"x_min":75,"x_max":939,"o":"m 379 244 l 379 50 q 329 0 379 0 l 329 0 l 125 0 q 75 50 75 0 l 75 50 l 75 417 q 88 513 75 458 q 129 639 101 567 l 129 639 l 250 954 q 321 1000 265 1000 l 321 1000 l 694 1000 q 764 954 749 1000 l 764 954 l 885 639 q 926 513 913 567 q 939 417 939 458 l 939 417 l 939 50 q 889 0 939 0 l 889 0 l 842 0 l 832 -64 l 889 -64 q 928 -74 918 -64 q 939 -111 939 -83 l 939 -111 l 939 -211 q 930 -248 939 -237 q 893 -258 921 -258 l 893 -258 l 739 -258 q 617 -213 650 -258 q 599 -71 585 -168 l 599 -71 l 625 78 l 625 244 l 379 244 z m 458 708 l 458 708 l 393 497 l 611 497 l 546 708 q 519 732 536 732 l 519 732 l 485 732 q 458 708 468 732 z "},"Ć":{"ha":872,"x_min":81,"x_max":811,"o":"m 761 0 l 761 0 l 422 0 q 164 69 247 0 q 81 283 81 139 l 81 283 l 81 715 q 164 931 81 861 q 422 1000 247 1000 l 422 1000 l 761 1000 q 811 950 811 1000 l 811 950 l 811 782 q 761 732 811 732 l 761 732 l 482 732 q 397 663 397 732 l 397 663 l 397 332 q 482 265 397 265 l 482 265 l 761 265 q 811 215 811 265 l 811 215 l 811 50 q 761 0 811 0 z m 761 1106 l 761 1106 l 276 1046 q 229 1092 229 1040 l 229 1092 l 229 1225 q 241 1262 229 1251 q 279 1275 253 1272 l 279 1275 l 764 1335 q 811 1289 811 1340 l 811 1289 l 811 1156 q 799 1119 811 1129 q 761 1106 788 1108 z "},"ć":{"ha":872,"x_min":81,"x_max":811,"o":"m 761 0 l 761 0 l 422 0 q 164 69 247 0 q 81 283 81 139 l 81 283 l 81 715 q 164 931 81 861 q 422 1000 247 1000 l 422 1000 l 761 1000 q 811 950 811 1000 l 811 950 l 811 782 q 761 732 811 732 l 761 732 l 482 732 q 397 663 397 732 l 397 663 l 397 332 q 482 265 397 265 l 482 265 l 761 265 q 811 215 811 265 l 811 215 l 811 50 q 761 0 811 0 z m 761 1106 l 761 1106 l 276 1046 q 229 1092 229 1040 l 229 1092 l 229 1225 q 241 1262 229 1251 q 279 1275 253 1272 l 279 1275 l 764 1335 q 811 1289 811 1340 l 811 1289 l 811 1156 q 799 1119 811 1129 q 761 1106 788 1108 z "},"Ĉ":{"ha":872,"x_min":81,"x_max":811,"o":"m 761 0 l 761 0 l 422 0 q 164 69 247 0 q 81 283 81 139 l 81 283 l 81 715 q 164 931 81 861 q 422 1000 247 1000 l 422 1000 l 761 1000 q 811 950 811 1000 l 811 950 l 811 782 q 761 732 811 732 l 761 732 l 482 732 q 397 663 397 732 l 397 663 l 397 332 q 482 265 397 265 l 482 265 l 761 265 q 811 215 811 265 l 811 215 l 811 50 q 761 0 811 0 z m 435 1107 l 435 1107 l 244 1051 q 199 1049 210 1040 q 188 1094 188 1057 l 188 1094 l 188 1207 q 199 1256 188 1244 q 244 1281 211 1267 l 244 1281 l 422 1344 q 449 1353 435 1350 q 476 1357 464 1356 l 476 1357 q 500 1356 489 1357 q 521 1350 511 1354 l 521 1350 l 711 1281 q 758 1256 747 1267 q 769 1207 769 1244 l 769 1207 l 769 1094 q 758 1049 769 1057 q 711 1051 747 1040 l 711 1051 l 521 1107 q 435 1107 478 1118 z "},"ĉ":{"ha":872,"x_min":81,"x_max":811,"o":"m 761 0 l 761 0 l 422 0 q 164 69 247 0 q 81 283 81 139 l 81 283 l 81 715 q 164 931 81 861 q 422 1000 247 1000 l 422 1000 l 761 1000 q 811 950 811 1000 l 811 950 l 811 782 q 761 732 811 732 l 761 732 l 482 732 q 397 663 397 732 l 397 663 l 397 332 q 482 265 397 265 l 482 265 l 761 265 q 811 215 811 265 l 811 215 l 811 50 q 761 0 811 0 z m 435 1107 l 435 1107 l 244 1051 q 199 1049 210 1040 q 188 1094 188 1057 l 188 1094 l 188 1207 q 199 1256 188 1244 q 244 1281 211 1267 l 244 1281 l 422 1344 q 449 1353 435 1350 q 476 1357 464 1356 l 476 1357 q 500 1356 489 1357 q 521 1350 511 1354 l 521 1350 l 711 1281 q 758 1256 747 1267 q 769 1207 769 1244 l 769 1207 l 769 1094 q 758 1049 769 1057 q 711 1051 747 1040 l 711 1051 l 521 1107 q 435 1107 478 1118 z "},"Ċ":{"ha":872,"x_min":81,"x_max":811,"o":"m 761 0 l 761 0 l 422 0 q 164 69 247 0 q 81 283 81 139 l 81 283 l 81 715 q 164 931 81 861 q 422 1000 247 1000 l 422 1000 l 761 1000 q 811 950 811 1000 l 811 950 l 811 782 q 761 732 811 732 l 761 732 l 482 732 q 397 663 397 732 l 397 663 l 397 332 q 482 265 397 265 l 482 265 l 761 265 q 811 215 811 265 l 811 215 l 811 50 q 761 0 811 0 z m 604 1056 l 604 1056 l 385 1056 q 335 1106 335 1056 l 335 1106 l 335 1282 q 385 1332 335 1332 l 385 1332 l 604 1332 q 654 1282 654 1332 l 654 1282 l 654 1106 q 604 1056 654 1056 z "},"ċ":{"ha":872,"x_min":81,"x_max":811,"o":"m 761 0 l 761 0 l 422 0 q 164 69 247 0 q 81 283 81 139 l 81 283 l 81 715 q 164 931 81 861 q 422 1000 247 1000 l 422 1000 l 761 1000 q 811 950 811 1000 l 811 950 l 811 782 q 761 732 811 732 l 761 732 l 482 732 q 397 663 397 732 l 397 663 l 397 332 q 482 265 397 265 l 482 265 l 761 265 q 811 215 811 265 l 811 215 l 811 50 q 761 0 811 0 z m 604 1056 l 604 1056 l 385 1056 q 335 1106 335 1056 l 335 1106 l 335 1282 q 385 1332 335 1332 l 385 1332 l 604 1332 q 654 1282 654 1332 l 654 1282 l 654 1106 q 604 1056 654 1056 z "},"Č":{"ha":872,"x_min":81,"x_max":811,"o":"m 761 0 l 761 0 l 422 0 q 164 69 247 0 q 81 283 81 139 l 81 283 l 81 715 q 164 931 81 861 q 422 1000 247 1000 l 422 1000 l 761 1000 q 811 950 811 1000 l 811 950 l 811 782 q 761 732 811 732 l 761 732 l 482 732 q 397 663 397 732 l 397 663 l 397 332 q 482 265 397 265 l 482 265 l 761 265 q 811 215 811 265 l 811 215 l 811 50 q 761 0 811 0 z m 522 1294 l 522 1294 l 713 1350 q 759 1353 749 1361 q 769 1307 769 1344 l 769 1307 l 769 1194 q 758 1146 769 1157 q 713 1121 746 1135 l 713 1121 l 535 1057 q 508 1049 522 1051 q 481 1044 493 1046 l 481 1044 q 458 1046 468 1044 q 436 1051 447 1047 l 436 1051 l 246 1121 q 199 1146 211 1135 q 188 1194 188 1157 l 188 1194 l 188 1307 q 199 1353 188 1344 q 246 1350 210 1361 l 246 1350 l 436 1294 q 522 1294 479 1283 z "},"č":{"ha":872,"x_min":81,"x_max":811,"o":"m 761 0 l 761 0 l 422 0 q 164 69 247 0 q 81 283 81 139 l 81 283 l 81 715 q 164 931 81 861 q 422 1000 247 1000 l 422 1000 l 761 1000 q 811 950 811 1000 l 811 950 l 811 782 q 761 732 811 732 l 761 732 l 482 732 q 397 663 397 732 l 397 663 l 397 332 q 482 265 397 265 l 482 265 l 761 265 q 811 215 811 265 l 811 215 l 811 50 q 761 0 811 0 z m 522 1294 l 522 1294 l 713 1350 q 759 1353 749 1361 q 769 1307 769 1344 l 769 1307 l 769 1194 q 758 1146 769 1157 q 713 1121 746 1135 l 713 1121 l 535 1057 q 508 1049 522 1051 q 481 1044 493 1046 l 481 1044 q 458 1046 468 1044 q 436 1051 447 1047 l 436 1051 l 246 1121 q 199 1146 211 1135 q 188 1194 188 1157 l 188 1194 l 188 1307 q 199 1353 188 1344 q 246 1350 210 1361 l 246 1350 l 436 1294 q 522 1294 479 1283 z "},"Ď":{"ha":1036,"x_min":96,"x_max":956,"o":"m 614 0 l 614 0 l 146 0 q 96 50 96 0 l 96 50 l 96 950 q 146 1000 96 1000 l 146 1000 l 614 1000 q 872 931 789 1000 q 956 717 956 861 l 956 717 l 956 283 q 872 69 956 139 q 614 0 789 0 z m 576 735 l 411 735 l 411 263 l 576 263 q 642 331 642 263 l 642 331 l 642 668 q 576 735 642 735 l 576 735 z m 561 1294 l 561 1294 l 751 1350 q 798 1353 788 1361 q 808 1307 808 1344 l 808 1307 l 808 1194 q 797 1146 808 1157 q 751 1121 785 1135 l 751 1121 l 574 1057 q 547 1049 561 1051 q 519 1044 532 1046 l 519 1044 q 497 1046 507 1044 q 475 1051 486 1047 l 475 1051 l 285 1121 q 238 1146 250 1135 q 226 1194 226 1157 l 226 1194 l 226 1307 q 238 1353 226 1344 q 285 1350 249 1361 l 285 1350 l 475 1294 q 561 1294 518 1283 z "},"ď":{"ha":1036,"x_min":96,"x_max":956,"o":"m 614 0 l 614 0 l 146 0 q 96 50 96 0 l 96 50 l 96 950 q 146 1000 96 1000 l 146 1000 l 614 1000 q 872 931 789 1000 q 956 717 956 861 l 956 717 l 956 283 q 872 69 956 139 q 614 0 789 0 z m 576 735 l 411 735 l 411 263 l 576 263 q 642 331 642 263 l 642 331 l 642 668 q 576 735 642 735 l 576 735 z m 561 1294 l 561 1294 l 751 1350 q 798 1353 788 1361 q 808 1307 808 1344 l 808 1307 l 808 1194 q 797 1146 808 1157 q 751 1121 785 1135 l 751 1121 l 574 1057 q 547 1049 561 1051 q 519 1044 532 1046 l 519 1044 q 497 1046 507 1044 q 475 1051 486 1047 l 475 1051 l 285 1121 q 238 1146 250 1135 q 226 1194 226 1157 l 226 1194 l 226 1307 q 238 1353 226 1344 q 285 1350 249 1361 l 285 1350 l 475 1294 q 561 1294 518 1283 z "},"Đ":{"ha":1050,"x_min":28,"x_max":969,"o":"m 110 368 l 78 368 q 28 418 28 368 l 28 418 l 28 567 q 78 617 28 617 l 78 617 l 110 617 l 110 950 q 160 1000 110 1000 l 160 1000 l 628 1000 q 834 964 760 1000 q 939 865 908 928 q 969 717 969 801 l 969 717 l 969 283 q 939 136 969 200 q 834 36 908 72 q 628 0 760 0 l 628 0 l 160 0 q 110 50 110 0 l 110 50 l 110 368 z m 590 735 l 421 735 l 421 617 l 478 617 q 528 567 528 617 l 528 567 l 528 418 q 478 368 528 368 l 478 368 l 421 368 l 421 263 l 590 263 q 644 283 632 263 q 656 331 656 303 l 656 331 l 656 668 q 644 715 656 696 q 590 735 632 735 l 590 735 z "},"đ":{"ha":1050,"x_min":28,"x_max":969,"o":"m 110 368 l 78 368 q 28 418 28 368 l 28 418 l 28 567 q 78 617 28 617 l 78 617 l 110 617 l 110 950 q 160 1000 110 1000 l 160 1000 l 628 1000 q 834 964 760 1000 q 939 865 908 928 q 969 717 969 801 l 969 717 l 969 283 q 939 136 969 200 q 834 36 908 72 q 628 0 760 0 l 628 0 l 160 0 q 110 50 110 0 l 110 50 l 110 368 z m 590 735 l 421 735 l 421 617 l 478 617 q 528 567 528 617 l 528 567 l 528 418 q 478 368 528 368 l 478 368 l 421 368 l 421 263 l 590 263 q 644 283 632 263 q 656 331 656 303 l 656 331 l 656 668 q 644 715 656 696 q 590 735 632 735 l 590 735 z "},"Ē":{"ha":908,"x_min":96,"x_max":840,"o":"m 790 0 l 790 0 l 146 0 q 96 50 96 0 l 96 50 l 96 950 q 146 1000 96 1000 l 146 1000 l 790 1000 q 840 950 840 1000 l 840 950 l 840 788 q 790 738 840 738 l 790 738 l 407 738 l 407 631 l 678 631 q 728 581 728 631 l 728 581 l 728 432 q 678 382 728 382 l 678 382 l 407 382 l 407 263 l 790 263 q 840 213 840 263 l 840 213 l 840 50 q 790 0 840 0 z m 708 1056 l 708 1056 l 226 1056 q 176 1106 176 1056 l 176 1106 l 176 1235 q 226 1285 176 1285 l 226 1285 l 708 1285 q 758 1235 758 1285 l 758 1235 l 758 1106 q 708 1056 758 1056 z "},"ē":{"ha":908,"x_min":96,"x_max":840,"o":"m 790 0 l 790 0 l 146 0 q 96 50 96 0 l 96 50 l 96 950 q 146 1000 96 1000 l 146 1000 l 790 1000 q 840 950 840 1000 l 840 950 l 840 788 q 790 738 840 738 l 790 738 l 407 738 l 407 631 l 678 631 q 728 581 728 631 l 728 581 l 728 432 q 678 382 728 382 l 678 382 l 407 382 l 407 263 l 790 263 q 840 213 840 263 l 840 213 l 840 50 q 790 0 840 0 z m 708 1056 l 708 1056 l 226 1056 q 176 1106 176 1056 l 176 1106 l 176 1235 q 226 1285 176 1285 l 226 1285 l 708 1285 q 758 1235 758 1285 l 758 1235 l 758 1106 q 708 1056 758 1056 z "},"Ĕ":{"ha":908,"x_min":96,"x_max":840,"o":"m 790 0 l 790 0 l 146 0 q 96 50 96 0 l 96 50 l 96 950 q 146 1000 96 1000 l 146 1000 l 790 1000 q 840 950 840 1000 l 840 950 l 840 788 q 790 738 840 738 l 790 738 l 407 738 l 407 631 l 678 631 q 728 581 728 631 l 728 581 l 728 432 q 678 382 728 382 l 678 382 l 407 382 l 407 263 l 790 263 q 840 213 840 263 l 840 213 l 840 50 q 790 0 840 0 z m 783 1307 l 783 1246 q 758 1142 783 1188 q 668 1072 733 1097 q 482 1047 603 1047 l 482 1047 q 296 1072 361 1047 q 206 1142 231 1097 q 181 1246 181 1188 l 181 1246 l 181 1307 q 231 1357 181 1357 l 231 1357 l 364 1357 q 395 1348 386 1357 q 404 1314 404 1339 l 404 1314 l 404 1285 q 418 1252 404 1265 q 483 1239 432 1239 l 483 1239 q 551 1252 536 1239 q 565 1285 565 1265 l 565 1285 l 565 1314 q 574 1348 565 1339 q 607 1357 583 1357 l 607 1357 l 733 1357 q 783 1307 783 1357 l 783 1307 z "},"ĕ":{"ha":908,"x_min":96,"x_max":840,"o":"m 790 0 l 790 0 l 146 0 q 96 50 96 0 l 96 50 l 96 950 q 146 1000 96 1000 l 146 1000 l 790 1000 q 840 950 840 1000 l 840 950 l 840 788 q 790 738 840 738 l 790 738 l 407 738 l 407 631 l 678 631 q 728 581 728 631 l 728 581 l 728 432 q 678 382 728 382 l 678 382 l 407 382 l 407 263 l 790 263 q 840 213 840 263 l 840 213 l 840 50 q 790 0 840 0 z m 783 1307 l 783 1246 q 758 1142 783 1188 q 668 1072 733 1097 q 482 1047 603 1047 l 482 1047 q 296 1072 361 1047 q 206 1142 231 1097 q 181 1246 181 1188 l 181 1246 l 181 1307 q 231 1357 181 1357 l 231 1357 l 364 1357 q 395 1348 386 1357 q 404 1314 404 1339 l 404 1314 l 404 1285 q 418 1252 404 1265 q 483 1239 432 1239 l 483 1239 q 551 1252 536 1239 q 565 1285 565 1265 l 565 1285 l 565 1314 q 574 1348 565 1339 q 607 1357 583 1357 l 607 1357 l 733 1357 q 783 1307 783 1357 l 783 1307 z "},"Ė":{"ha":908,"x_min":96,"x_max":840,"o":"m 790 0 l 790 0 l 146 0 q 96 50 96 0 l 96 50 l 96 950 q 146 1000 96 1000 l 146 1000 l 790 1000 q 840 950 840 1000 l 840 950 l 840 788 q 790 738 840 738 l 790 738 l 407 738 l 407 631 l 678 631 q 728 581 728 631 l 728 581 l 728 432 q 678 382 728 382 l 678 382 l 407 382 l 407 263 l 790 263 q 840 213 840 263 l 840 213 l 840 50 q 790 0 840 0 z m 563 1056 l 563 1056 l 343 1056 q 293 1106 293 1056 l 293 1106 l 293 1282 q 343 1332 293 1332 l 343 1332 l 563 1332 q 613 1282 613 1332 l 613 1282 l 613 1106 q 563 1056 613 1056 z "},"ė":{"ha":908,"x_min":96,"x_max":840,"o":"m 790 0 l 790 0 l 146 0 q 96 50 96 0 l 96 50 l 96 950 q 146 1000 96 1000 l 146 1000 l 790 1000 q 840 950 840 1000 l 840 950 l 840 788 q 790 738 840 738 l 790 738 l 407 738 l 407 631 l 678 631 q 728 581 728 631 l 728 581 l 728 432 q 678 382 728 382 l 678 382 l 407 382 l 407 263 l 790 263 q 840 213 840 263 l 840 213 l 840 50 q 790 0 840 0 z m 563 1056 l 563 1056 l 343 1056 q 293 1106 293 1056 l 293 1106 l 293 1282 q 343 1332 293 1332 l 343 1332 l 563 1332 q 613 1282 613 1332 l 613 1282 l 613 1106 q 563 1056 613 1056 z "},"Ę":{"ha":908,"x_min":96,"x_max":840,"o":"m 790 0 l 790 0 l 743 0 l 733 -64 l 790 -64 q 830 -74 819 -64 q 840 -111 840 -83 l 840 -111 l 840 -211 q 831 -248 840 -237 q 794 -258 822 -258 l 794 -258 l 640 -258 q 519 -213 551 -258 q 500 -71 486 -168 l 500 -71 l 513 0 l 146 0 q 96 50 96 0 l 96 50 l 96 950 q 146 1000 96 1000 l 146 1000 l 790 1000 q 840 950 840 1000 l 840 950 l 840 788 q 790 738 840 738 l 790 738 l 407 738 l 407 631 l 678 631 q 728 581 728 631 l 728 581 l 728 432 q 678 382 728 382 l 678 382 l 407 382 l 407 263 l 790 263 q 840 213 840 263 l 840 213 l 840 50 q 790 0 840 0 z "},"ę":{"ha":908,"x_min":96,"x_max":840,"o":"m 790 0 l 790 0 l 743 0 l 733 -64 l 790 -64 q 830 -74 819 -64 q 840 -111 840 -83 l 840 -111 l 840 -211 q 831 -248 840 -237 q 794 -258 822 -258 l 794 -258 l 640 -258 q 519 -213 551 -258 q 500 -71 486 -168 l 500 -71 l 513 0 l 146 0 q 96 50 96 0 l 96 50 l 96 950 q 146 1000 96 1000 l 146 1000 l 790 1000 q 840 950 840 1000 l 840 950 l 840 788 q 790 738 840 738 l 790 738 l 407 738 l 407 631 l 678 631 q 728 581 728 631 l 728 581 l 728 432 q 678 382 728 382 l 678 382 l 407 382 l 407 263 l 790 263 q 840 213 840 263 l 840 213 l 840 50 q 790 0 840 0 z "},"Ě":{"ha":908,"x_min":96,"x_max":840,"o":"m 790 0 l 790 0 l 146 0 q 96 50 96 0 l 96 50 l 96 950 q 146 1000 96 1000 l 146 1000 l 790 1000 q 840 950 840 1000 l 840 950 l 840 788 q 790 738 840 738 l 790 738 l 407 738 l 407 631 l 678 631 q 728 581 728 631 l 728 581 l 728 432 q 678 382 728 382 l 678 382 l 407 382 l 407 263 l 790 263 q 840 213 840 263 l 840 213 l 840 50 q 790 0 840 0 z m 521 1294 l 521 1294 l 711 1350 q 758 1353 747 1361 q 768 1307 768 1344 l 768 1307 l 768 1194 q 756 1146 768 1157 q 711 1121 744 1135 l 711 1121 l 533 1057 q 506 1049 521 1051 q 479 1044 492 1046 l 479 1044 q 456 1046 467 1044 q 435 1051 446 1047 l 435 1051 l 244 1121 q 198 1146 210 1135 q 186 1194 186 1157 l 186 1194 l 186 1307 q 197 1353 186 1344 q 244 1350 208 1361 l 244 1350 l 435 1294 q 521 1294 478 1283 z "},"ě":{"ha":908,"x_min":96,"x_max":840,"o":"m 790 0 l 790 0 l 146 0 q 96 50 96 0 l 96 50 l 96 950 q 146 1000 96 1000 l 146 1000 l 790 1000 q 840 950 840 1000 l 840 950 l 840 788 q 790 738 840 738 l 790 738 l 407 738 l 407 631 l 678 631 q 728 581 728 631 l 728 581 l 728 432 q 678 382 728 382 l 678 382 l 407 382 l 407 263 l 790 263 q 840 213 840 263 l 840 213 l 840 50 q 790 0 840 0 z m 521 1294 l 521 1294 l 711 1350 q 758 1353 747 1361 q 768 1307 768 1344 l 768 1307 l 768 1194 q 756 1146 768 1157 q 711 1121 744 1135 l 711 1121 l 533 1057 q 506 1049 521 1051 q 479 1044 492 1046 l 479 1044 q 456 1046 467 1044 q 435 1051 446 1047 l 435 1051 l 244 1121 q 198 1146 210 1135 q 186 1194 186 1157 l 186 1194 l 186 1307 q 197 1353 186 1344 q 244 1350 208 1361 l 244 1350 l 435 1294 q 521 1294 478 1283 z "},"Ĝ":{"ha":983,"x_min":81,"x_max":910,"o":"m 860 0 l 860 0 l 422 0 q 164 69 247 0 q 81 283 81 139 l 81 283 l 81 717 q 164 931 81 861 q 422 1000 247 1000 l 422 1000 l 769 1000 q 819 950 819 1000 l 819 950 l 819 782 q 769 732 819 732 l 769 732 l 481 732 q 396 663 396 732 l 396 663 l 396 331 q 460 263 396 263 l 460 263 l 594 263 l 594 479 q 644 529 594 529 l 644 529 l 860 529 q 910 479 910 529 l 910 479 l 910 50 q 860 0 910 0 z m 485 1107 l 485 1107 l 294 1051 q 249 1049 260 1040 q 238 1094 238 1057 l 238 1094 l 238 1207 q 249 1256 238 1244 q 294 1281 261 1267 l 294 1281 l 472 1344 q 499 1353 485 1350 q 526 1357 514 1356 l 526 1357 q 550 1356 539 1357 q 571 1350 561 1354 l 571 1350 l 761 1281 q 808 1256 797 1267 q 819 1207 819 1244 l 819 1207 l 819 1094 q 808 1049 819 1057 q 761 1051 797 1040 l 761 1051 l 571 1107 q 485 1107 528 1118 z "},"ĝ":{"ha":983,"x_min":81,"x_max":910,"o":"m 860 0 l 860 0 l 422 0 q 164 69 247 0 q 81 283 81 139 l 81 283 l 81 717 q 164 931 81 861 q 422 1000 247 1000 l 422 1000 l 769 1000 q 819 950 819 1000 l 819 950 l 819 782 q 769 732 819 732 l 769 732 l 481 732 q 396 663 396 732 l 396 663 l 396 331 q 460 263 396 263 l 460 263 l 594 263 l 594 479 q 644 529 594 529 l 644 529 l 860 529 q 910 479 910 529 l 910 479 l 910 50 q 860 0 910 0 z m 485 1107 l 485 1107 l 294 1051 q 249 1049 260 1040 q 238 1094 238 1057 l 238 1094 l 238 1207 q 249 1256 238 1244 q 294 1281 261 1267 l 294 1281 l 472 1344 q 499 1353 485 1350 q 526 1357 514 1356 l 526 1357 q 550 1356 539 1357 q 571 1350 561 1354 l 571 1350 l 761 1281 q 808 1256 797 1267 q 819 1207 819 1244 l 819 1207 l 819 1094 q 808 1049 819 1057 q 761 1051 797 1040 l 761 1051 l 571 1107 q 485 1107 528 1118 z "},"Ğ":{"ha":983,"x_min":81,"x_max":910,"o":"m 860 0 l 860 0 l 422 0 q 164 69 247 0 q 81 283 81 139 l 81 283 l 81 717 q 164 931 81 861 q 422 1000 247 1000 l 422 1000 l 769 1000 q 819 950 819 1000 l 819 950 l 819 782 q 769 732 819 732 l 769 732 l 481 732 q 396 663 396 732 l 396 663 l 396 331 q 460 263 396 263 l 460 263 l 594 263 l 594 479 q 644 529 594 529 l 644 529 l 860 529 q 910 479 910 529 l 910 479 l 910 50 q 860 0 910 0 z m 821 1307 l 821 1246 q 796 1142 821 1188 q 706 1072 771 1097 q 519 1047 640 1047 l 519 1047 q 333 1072 399 1047 q 243 1142 268 1097 q 218 1246 218 1188 l 218 1246 l 218 1307 q 268 1357 218 1357 l 268 1357 l 401 1357 q 433 1348 424 1357 q 442 1314 442 1339 l 442 1314 l 442 1285 q 456 1252 442 1265 q 521 1239 469 1239 l 521 1239 q 588 1252 574 1239 q 603 1285 603 1265 l 603 1285 l 603 1314 q 612 1348 603 1339 q 644 1357 621 1357 l 644 1357 l 771 1357 q 821 1307 821 1357 l 821 1307 z "},"ğ":{"ha":983,"x_min":81,"x_max":910,"o":"m 860 0 l 860 0 l 422 0 q 164 69 247 0 q 81 283 81 139 l 81 283 l 81 717 q 164 931 81 861 q 422 1000 247 1000 l 422 1000 l 769 1000 q 819 950 819 1000 l 819 950 l 819 782 q 769 732 819 732 l 769 732 l 481 732 q 396 663 396 732 l 396 663 l 396 331 q 460 263 396 263 l 460 263 l 594 263 l 594 479 q 644 529 594 529 l 644 529 l 860 529 q 910 479 910 529 l 910 479 l 910 50 q 860 0 910 0 z m 821 1307 l 821 1246 q 796 1142 821 1188 q 706 1072 771 1097 q 519 1047 640 1047 l 519 1047 q 333 1072 399 1047 q 243 1142 268 1097 q 218 1246 218 1188 l 218 1246 l 218 1307 q 268 1357 218 1357 l 268 1357 l 401 1357 q 433 1348 424 1357 q 442 1314 442 1339 l 442 1314 l 442 1285 q 456 1252 442 1265 q 521 1239 469 1239 l 521 1239 q 588 1252 574 1239 q 603 1285 603 1265 l 603 1285 l 603 1314 q 612 1348 603 1339 q 644 1357 621 1357 l 644 1357 l 771 1357 q 821 1307 821 1357 l 821 1307 z "},"Ġ":{"ha":983,"x_min":81,"x_max":910,"o":"m 860 0 l 860 0 l 422 0 q 164 69 247 0 q 81 283 81 139 l 81 283 l 81 717 q 164 931 81 861 q 422 1000 247 1000 l 422 1000 l 769 1000 q 819 950 819 1000 l 819 950 l 819 782 q 769 732 819 732 l 769 732 l 481 732 q 396 663 396 732 l 396 663 l 396 331 q 460 263 396 263 l 460 263 l 594 263 l 594 479 q 644 529 594 529 l 644 529 l 860 529 q 910 479 910 529 l 910 479 l 910 50 q 860 0 910 0 z m 631 1056 l 631 1056 l 411 1056 q 361 1106 361 1056 l 361 1106 l 361 1282 q 411 1332 361 1332 l 411 1332 l 631 1332 q 681 1282 681 1332 l 681 1282 l 681 1106 q 631 1056 681 1056 z "},"ġ":{"ha":983,"x_min":81,"x_max":910,"o":"m 860 0 l 860 0 l 422 0 q 164 69 247 0 q 81 283 81 139 l 81 283 l 81 717 q 164 931 81 861 q 422 1000 247 1000 l 422 1000 l 769 1000 q 819 950 819 1000 l 819 950 l 819 782 q 769 732 819 732 l 769 732 l 481 732 q 396 663 396 732 l 396 663 l 396 331 q 460 263 396 263 l 460 263 l 594 263 l 594 479 q 644 529 594 529 l 644 529 l 860 529 q 910 479 910 529 l 910 479 l 910 50 q 860 0 910 0 z m 631 1056 l 631 1056 l 411 1056 q 361 1106 361 1056 l 361 1106 l 361 1282 q 411 1332 361 1332 l 411 1332 l 631 1332 q 681 1282 681 1332 l 681 1282 l 681 1106 q 631 1056 681 1056 z "},"Ģ":{"ha":983,"x_min":81,"x_max":910,"o":"m 860 0 l 860 0 l 422 0 q 164 69 247 0 q 81 283 81 139 l 81 283 l 81 717 q 164 931 81 861 q 422 1000 247 1000 l 422 1000 l 769 1000 q 819 950 819 1000 l 819 950 l 819 782 q 769 732 819 732 l 769 732 l 481 732 q 396 663 396 732 l 396 663 l 396 331 q 460 263 396 263 l 460 263 l 594 263 l 594 479 q 644 529 594 529 l 644 529 l 860 529 q 910 479 910 529 l 910 479 l 910 50 q 860 0 910 0 z m 507 -503 l 507 -503 l 415 -503 q 374 -460 374 -503 l 374 -460 l 374 -412 q 415 -371 374 -371 l 415 -371 l 497 -371 q 529 -337 529 -371 l 529 -337 l 529 -319 l 410 -319 q 369 -308 381 -319 q 358 -265 358 -296 l 358 -265 l 358 -114 q 369 -71 358 -82 q 410 -60 381 -60 l 410 -60 l 629 -60 q 669 -71 658 -60 q 681 -114 681 -82 l 681 -114 l 681 -325 q 633 -458 681 -414 q 507 -503 586 -503 z "},"ģ":{"ha":983,"x_min":81,"x_max":910,"o":"m 860 0 l 860 0 l 422 0 q 164 69 247 0 q 81 283 81 139 l 81 283 l 81 717 q 164 931 81 861 q 422 1000 247 1000 l 422 1000 l 769 1000 q 819 950 819 1000 l 819 950 l 819 782 q 769 732 819 732 l 769 732 l 481 732 q 396 663 396 732 l 396 663 l 396 331 q 460 263 396 263 l 460 263 l 594 263 l 594 479 q 644 529 594 529 l 644 529 l 860 529 q 910 479 910 529 l 910 479 l 910 50 q 860 0 910 0 z m 507 -503 l 507 -503 l 415 -503 q 374 -460 374 -503 l 374 -460 l 374 -412 q 415 -371 374 -371 l 415 -371 l 497 -371 q 529 -337 529 -371 l 529 -337 l 529 -319 l 410 -319 q 369 -308 381 -319 q 358 -265 358 -296 l 358 -265 l 358 -114 q 369 -71 358 -82 q 410 -60 381 -60 l 410 -60 l 629 -60 q 669 -71 658 -60 q 681 -114 681 -82 l 681 -114 l 681 -325 q 633 -458 681 -414 q 507 -503 586 -503 z "},"Ĥ":{"ha":1054,"x_min":96,"x_max":958,"o":"m 361 0 l 361 0 l 146 0 q 96 50 96 0 l 96 50 l 96 950 q 146 1000 96 1000 l 146 1000 l 361 1000 q 411 950 411 1000 l 411 950 l 411 649 l 643 649 l 643 950 q 693 1000 643 1000 l 693 1000 l 908 1000 q 958 950 958 1000 l 958 950 l 958 50 q 908 0 958 0 l 908 0 l 693 0 q 643 50 643 0 l 643 50 l 643 358 l 411 358 l 411 50 q 361 0 411 0 z m 482 1107 l 482 1107 l 292 1051 q 246 1049 257 1040 q 235 1094 235 1057 l 235 1094 l 235 1207 q 247 1256 235 1244 q 292 1281 258 1267 l 292 1281 l 469 1344 q 497 1353 482 1350 q 524 1357 511 1356 l 524 1357 q 547 1356 536 1357 q 568 1350 558 1354 l 568 1350 l 758 1281 q 806 1256 794 1267 q 817 1207 817 1244 l 817 1207 l 817 1094 q 806 1049 817 1057 q 758 1051 794 1040 l 758 1051 l 568 1107 q 482 1107 525 1118 z "},"ĥ":{"ha":1054,"x_min":96,"x_max":958,"o":"m 361 0 l 361 0 l 146 0 q 96 50 96 0 l 96 50 l 96 950 q 146 1000 96 1000 l 146 1000 l 361 1000 q 411 950 411 1000 l 411 950 l 411 649 l 643 649 l 643 950 q 693 1000 643 1000 l 693 1000 l 908 1000 q 958 950 958 1000 l 958 950 l 958 50 q 908 0 958 0 l 908 0 l 693 0 q 643 50 643 0 l 643 50 l 643 358 l 411 358 l 411 50 q 361 0 411 0 z m 482 1107 l 482 1107 l 292 1051 q 246 1049 257 1040 q 235 1094 235 1057 l 235 1094 l 235 1207 q 247 1256 235 1244 q 292 1281 258 1267 l 292 1281 l 469 1344 q 497 1353 482 1350 q 524 1357 511 1356 l 524 1357 q 547 1356 536 1357 q 568 1350 558 1354 l 568 1350 l 758 1281 q 806 1256 794 1267 q 817 1207 817 1244 l 817 1207 l 817 1094 q 806 1049 817 1057 q 758 1051 794 1040 l 758 1051 l 568 1107 q 482 1107 525 1118 z "},"Ħ":{"ha":1082,"x_min":42,"x_max":1040,"o":"m 371 0 l 371 0 l 160 0 q 110 50 110 0 l 110 50 l 110 590 l 92 590 q 42 640 42 590 l 42 640 l 42 775 q 92 825 42 825 l 92 825 l 110 825 l 110 950 q 160 1000 110 1000 l 160 1000 l 371 1000 q 421 950 421 1000 l 421 950 l 421 825 l 661 825 l 661 950 q 711 1000 661 1000 l 711 1000 l 922 1000 q 972 950 972 1000 l 972 950 l 972 825 l 990 825 q 1040 775 1040 825 l 1040 775 l 1040 640 q 990 590 1040 590 l 990 590 l 972 590 l 972 50 q 922 0 972 0 l 922 0 l 711 0 q 661 50 661 0 l 661 50 l 661 206 l 421 206 l 421 50 q 371 0 421 0 z m 661 482 l 661 590 l 421 590 l 421 482 l 661 482 z "},"ħ":{"ha":1082,"x_min":42,"x_max":1040,"o":"m 371 0 l 371 0 l 160 0 q 110 50 110 0 l 110 50 l 110 590 l 92 590 q 42 640 42 590 l 42 640 l 42 775 q 92 825 42 825 l 92 825 l 110 825 l 110 950 q 160 1000 110 1000 l 160 1000 l 371 1000 q 421 950 421 1000 l 421 950 l 421 825 l 661 825 l 661 950 q 711 1000 661 1000 l 711 1000 l 922 1000 q 972 950 972 1000 l 972 950 l 972 825 l 990 825 q 1040 775 1040 825 l 1040 775 l 1040 640 q 990 590 1040 590 l 990 590 l 972 590 l 972 50 q 922 0 972 0 l 922 0 l 711 0 q 661 50 661 0 l 661 50 l 661 206 l 421 206 l 421 50 q 371 0 421 0 z m 661 482 l 661 590 l 421 590 l 421 482 l 661 482 z "},"Ĩ":{"ha":840,"x_min":74,"x_max":765,"o":"m 715 0 l 124 0 q 74 50 74 0 l 74 50 l 74 215 q 124 265 74 265 l 124 265 l 261 265 l 261 732 l 124 732 q 74 782 74 732 l 74 782 l 74 950 q 124 1000 74 1000 l 124 1000 l 715 1000 q 765 950 765 1000 l 765 950 l 765 782 q 715 732 765 732 l 715 732 l 581 732 l 581 265 l 715 265 q 765 215 765 265 l 765 215 l 765 50 q 715 0 765 0 l 715 0 z m 440 1058 l 418 1061 l 379 1067 q 296 1076 326 1075 q 240 1071 265 1076 q 178 1054 215 1065 l 178 1054 q 128 1090 128 1040 l 128 1090 l 128 1231 q 141 1267 128 1257 q 178 1288 154 1278 l 178 1288 q 249 1304 221 1300 q 308 1306 276 1308 q 394 1294 339 1303 l 394 1294 l 394 1294 l 418 1292 l 449 1288 q 537 1277 507 1279 q 590 1280 567 1275 q 649 1296 613 1285 l 649 1296 q 658 1299 654 1297 l 658 1299 q 708 1263 708 1314 l 708 1263 l 708 1122 q 695 1085 708 1096 q 658 1065 682 1075 l 658 1065 q 588 1049 615 1053 q 528 1047 560 1044 q 440 1058 496 1050 l 440 1058 z "},"ĩ":{"ha":840,"x_min":74,"x_max":765,"o":"m 715 0 l 124 0 q 74 50 74 0 l 74 50 l 74 215 q 124 265 74 265 l 124 265 l 261 265 l 261 732 l 124 732 q 74 782 74 732 l 74 782 l 74 950 q 124 1000 74 1000 l 124 1000 l 715 1000 q 765 950 765 1000 l 765 950 l 765 782 q 715 732 765 732 l 715 732 l 581 732 l 581 265 l 715 265 q 765 215 765 265 l 765 215 l 765 50 q 715 0 765 0 l 715 0 z m 440 1058 l 418 1061 l 379 1067 q 296 1076 326 1075 q 240 1071 265 1076 q 178 1054 215 1065 l 178 1054 q 128 1090 128 1040 l 128 1090 l 128 1231 q 141 1267 128 1257 q 178 1288 154 1278 l 178 1288 q 249 1304 221 1300 q 308 1306 276 1308 q 394 1294 339 1303 l 394 1294 l 394 1294 l 418 1292 l 449 1288 q 537 1277 507 1279 q 590 1280 567 1275 q 649 1296 613 1285 l 649 1296 q 658 1299 654 1297 l 658 1299 q 708 1263 708 1314 l 708 1263 l 708 1122 q 695 1085 708 1096 q 658 1065 682 1075 l 658 1065 q 588 1049 615 1053 q 528 1047 560 1044 q 440 1058 496 1050 l 440 1058 z "},"Ī":{"ha":840,"x_min":74,"x_max":765,"o":"m 715 0 l 124 0 q 74 50 74 0 l 74 50 l 74 215 q 124 265 74 265 l 124 265 l 261 265 l 261 732 l 124 732 q 74 782 74 732 l 74 782 l 74 950 q 124 1000 74 1000 l 124 1000 l 715 1000 q 765 950 765 1000 l 765 950 l 765 782 q 715 732 765 732 l 715 732 l 581 732 l 581 265 l 715 265 q 765 215 765 265 l 765 215 l 765 50 q 715 0 765 0 l 715 0 z m 660 1056 l 660 1056 l 178 1056 q 128 1106 128 1056 l 128 1106 l 128 1235 q 178 1285 128 1285 l 178 1285 l 660 1285 q 710 1235 710 1285 l 710 1235 l 710 1106 q 660 1056 710 1056 z "},"ī":{"ha":840,"x_min":74,"x_max":765,"o":"m 715 0 l 124 0 q 74 50 74 0 l 74 50 l 74 215 q 124 265 74 265 l 124 265 l 261 265 l 261 732 l 124 732 q 74 782 74 732 l 74 782 l 74 950 q 124 1000 74 1000 l 124 1000 l 715 1000 q 765 950 765 1000 l 765 950 l 765 782 q 715 732 765 732 l 715 732 l 581 732 l 581 265 l 715 265 q 765 215 765 265 l 765 215 l 765 50 q 715 0 765 0 l 715 0 z m 660 1056 l 660 1056 l 178 1056 q 128 1106 128 1056 l 128 1106 l 128 1235 q 178 1285 128 1285 l 178 1285 l 660 1285 q 710 1235 710 1285 l 710 1235 l 710 1106 q 660 1056 710 1056 z "},"Ĭ":{"ha":840,"x_min":74,"x_max":765,"o":"m 715 0 l 124 0 q 74 50 74 0 l 74 50 l 74 215 q 124 265 74 265 l 124 265 l 261 265 l 261 732 l 124 732 q 74 782 74 732 l 74 782 l 74 950 q 124 1000 74 1000 l 124 1000 l 715 1000 q 765 950 765 1000 l 765 950 l 765 782 q 715 732 765 732 l 715 732 l 581 732 l 581 265 l 715 265 q 765 215 765 265 l 765 215 l 765 50 q 715 0 765 0 l 715 0 z m 721 1307 l 721 1246 q 696 1142 721 1188 q 606 1072 671 1097 q 419 1047 540 1047 l 419 1047 q 233 1072 299 1047 q 143 1142 168 1097 q 118 1246 118 1188 l 118 1246 l 118 1307 q 168 1357 118 1357 l 168 1357 l 301 1357 q 333 1348 324 1357 q 342 1314 342 1339 l 342 1314 l 342 1285 q 356 1252 342 1265 q 421 1239 369 1239 l 421 1239 q 488 1252 474 1239 q 503 1285 503 1265 l 503 1285 l 503 1314 q 512 1348 503 1339 q 544 1357 521 1357 l 544 1357 l 671 1357 q 721 1307 721 1357 l 721 1307 z "},"ĭ":{"ha":840,"x_min":74,"x_max":765,"o":"m 715 0 l 124 0 q 74 50 74 0 l 74 50 l 74 215 q 124 265 74 265 l 124 265 l 261 265 l 261 732 l 124 732 q 74 782 74 732 l 74 782 l 74 950 q 124 1000 74 1000 l 124 1000 l 715 1000 q 765 950 765 1000 l 765 950 l 765 782 q 715 732 765 732 l 715 732 l 581 732 l 581 265 l 715 265 q 765 215 765 265 l 765 215 l 765 50 q 715 0 765 0 l 715 0 z m 721 1307 l 721 1246 q 696 1142 721 1188 q 606 1072 671 1097 q 419 1047 540 1047 l 419 1047 q 233 1072 299 1047 q 143 1142 168 1097 q 118 1246 118 1188 l 118 1246 l 118 1307 q 168 1357 118 1357 l 168 1357 l 301 1357 q 333 1348 324 1357 q 342 1314 342 1339 l 342 1314 l 342 1285 q 356 1252 342 1265 q 421 1239 369 1239 l 421 1239 q 488 1252 474 1239 q 503 1285 503 1265 l 503 1285 l 503 1314 q 512 1348 503 1339 q 544 1357 521 1357 l 544 1357 l 671 1357 q 721 1307 721 1357 l 721 1307 z "},"Į":{"ha":840,"x_min":74,"x_max":765,"o":"m 438 0 l 124 0 q 74 50 74 0 l 74 50 l 74 215 q 124 265 74 265 l 124 265 l 261 265 l 261 732 l 124 732 q 74 782 74 732 l 74 782 l 74 950 q 124 1000 74 1000 l 124 1000 l 715 1000 q 765 950 765 1000 l 765 950 l 765 782 q 715 732 765 732 l 715 732 l 581 732 l 581 265 l 715 265 q 765 215 765 265 l 765 215 l 765 50 q 715 0 765 0 l 715 0 l 668 0 l 658 -64 l 715 -64 q 755 -74 744 -64 q 765 -111 765 -83 l 765 -111 l 765 -211 q 756 -248 765 -237 q 719 -258 747 -258 l 719 -258 l 565 -258 q 444 -213 476 -258 q 425 -71 411 -168 l 425 -71 l 438 0 z "},"į":{"ha":840,"x_min":74,"x_max":765,"o":"m 438 0 l 124 0 q 74 50 74 0 l 74 50 l 74 215 q 124 265 74 265 l 124 265 l 261 265 l 261 732 l 124 732 q 74 782 74 732 l 74 782 l 74 950 q 124 1000 74 1000 l 124 1000 l 715 1000 q 765 950 765 1000 l 765 950 l 765 782 q 715 732 765 732 l 715 732 l 581 732 l 581 265 l 715 265 q 765 215 765 265 l 765 215 l 765 50 q 715 0 765 0 l 715 0 l 668 0 l 658 -64 l 715 -64 q 755 -74 744 -64 q 765 -111 765 -83 l 765 -111 l 765 -211 q 756 -248 765 -237 q 719 -258 747 -258 l 719 -258 l 565 -258 q 444 -213 476 -258 q 425 -71 411 -168 l 425 -71 l 438 0 z "},"İ":{"ha":840,"x_min":74,"x_max":765,"o":"m 715 0 l 124 0 q 74 50 74 0 l 74 50 l 74 215 q 124 265 74 265 l 124 265 l 261 265 l 261 732 l 124 732 q 74 782 74 732 l 74 782 l 74 950 q 124 1000 74 1000 l 124 1000 l 715 1000 q 765 950 765 1000 l 765 950 l 765 782 q 715 732 765 732 l 715 732 l 581 732 l 581 265 l 715 265 q 765 215 765 265 l 765 215 l 765 50 q 715 0 765 0 l 715 0 z m 531 1056 l 531 1056 l 311 1056 q 261 1106 261 1056 l 261 1106 l 261 1282 q 311 1332 261 1332 l 311 1332 l 531 1332 q 581 1282 581 1332 l 581 1282 l 581 1106 q 531 1056 581 1056 z "},"ı":{"ha":840,"x_min":74,"x_max":765,"o":"m 715 0 l 124 0 q 74 50 74 0 l 74 50 l 74 215 q 124 265 74 265 l 124 265 l 261 265 l 261 732 l 124 732 q 74 782 74 732 l 74 782 l 74 950 q 124 1000 74 1000 l 124 1000 l 715 1000 q 765 950 765 1000 l 765 950 l 765 782 q 715 732 765 732 l 715 732 l 581 732 l 581 265 l 715 265 q 765 215 765 265 l 765 215 l 765 50 q 715 0 765 0 l 715 0 z "},"Ĳ":{"ha":1033,"x_min":96,"x_max":944,"o":"m 96 50 l 96 50 l 96 218 q 146 268 96 268 l 146 268 l 528 268 q 603 290 578 268 q 629 361 629 311 l 629 361 l 629 950 q 679 1000 629 1000 l 679 1000 l 894 1000 q 944 950 944 1000 l 944 950 l 944 292 q 865 77 944 154 q 649 0 786 0 l 649 0 l 146 0 q 96 50 96 0 z m 361 431 l 361 431 l 146 431 q 96 481 96 431 l 96 481 l 96 950 q 146 1000 96 1000 l 146 1000 l 361 1000 q 411 950 411 1000 l 411 950 l 411 481 q 361 431 411 431 z "},"ĳ":{"ha":1033,"x_min":96,"x_max":944,"o":"m 96 50 l 96 50 l 96 218 q 146 268 96 268 l 146 268 l 528 268 q 603 290 578 268 q 629 361 629 311 l 629 361 l 629 950 q 679 1000 629 1000 l 679 1000 l 894 1000 q 944 950 944 1000 l 944 950 l 944 292 q 865 77 944 154 q 649 0 786 0 l 649 0 l 146 0 q 96 50 96 0 z m 361 431 l 361 431 l 146 431 q 96 481 96 431 l 96 481 l 96 950 q 146 1000 96 1000 l 146 1000 l 361 1000 q 411 950 411 1000 l 411 950 l 411 481 q 361 431 411 431 z "},"Ĵ":{"ha":956,"x_min":57,"x_max":988,"o":"m 867 950 l 867 263 q 833 114 867 178 q 711 15 799 50 q 460 -21 624 -21 l 460 -21 q 211 15 299 -21 q 90 114 124 50 q 57 263 57 178 l 57 263 l 57 488 q 107 538 57 538 l 107 538 l 308 538 q 358 488 358 538 l 358 488 l 358 318 q 376 272 358 290 q 457 253 393 253 l 457 253 q 533 272 518 253 q 549 318 549 290 l 549 318 l 549 950 q 599 1000 549 1000 l 599 1000 l 817 1000 q 867 950 867 1000 l 867 950 z m 653 1107 l 653 1107 l 463 1051 q 417 1049 428 1040 q 406 1094 406 1057 l 406 1094 l 406 1207 q 417 1256 406 1244 q 463 1281 429 1267 l 463 1281 l 640 1344 q 667 1353 653 1350 q 694 1357 682 1356 l 694 1357 q 718 1356 707 1357 q 739 1350 729 1354 l 739 1350 l 929 1281 q 976 1256 965 1267 q 988 1207 988 1244 l 988 1207 l 988 1094 q 976 1049 988 1057 q 929 1051 965 1040 l 929 1051 l 739 1107 q 653 1107 696 1118 z "},"ĵ":{"ha":956,"x_min":57,"x_max":988,"o":"m 867 950 l 867 263 q 833 114 867 178 q 711 15 799 50 q 460 -21 624 -21 l 460 -21 q 211 15 299 -21 q 90 114 124 50 q 57 263 57 178 l 57 263 l 57 488 q 107 538 57 538 l 107 538 l 308 538 q 358 488 358 538 l 358 488 l 358 318 q 376 272 358 290 q 457 253 393 253 l 457 253 q 533 272 518 253 q 549 318 549 290 l 549 318 l 549 950 q 599 1000 549 1000 l 599 1000 l 817 1000 q 867 950 867 1000 l 867 950 z m 653 1107 l 653 1107 l 463 1051 q 417 1049 428 1040 q 406 1094 406 1057 l 406 1094 l 406 1207 q 417 1256 406 1244 q 463 1281 429 1267 l 463 1281 l 640 1344 q 667 1353 653 1350 q 694 1357 682 1356 l 694 1357 q 718 1356 707 1357 q 739 1350 729 1354 l 739 1350 l 929 1281 q 976 1256 965 1267 q 988 1207 988 1244 l 988 1207 l 988 1094 q 976 1049 988 1057 q 929 1051 965 1040 l 929 1051 l 739 1107 q 653 1107 696 1118 z "},"Ķ":{"ha":1036,"x_min":96,"x_max":953,"o":"m 361 0 l 361 0 l 146 0 q 96 50 96 0 l 96 50 l 96 950 q 146 1000 96 1000 l 146 1000 l 361 1000 q 411 950 411 1000 l 411 950 l 411 631 l 467 631 l 610 954 q 679 1000 629 1000 l 679 1000 l 893 1000 q 924 954 943 1000 l 924 954 l 782 631 q 906 576 860 626 q 953 442 953 525 l 953 442 l 953 50 q 903 0 953 0 l 903 0 l 689 0 q 639 50 639 0 l 639 50 l 639 321 q 594 368 639 368 l 594 368 l 411 368 l 411 50 q 361 0 411 0 z m 506 -503 l 506 -503 l 414 -503 q 372 -460 372 -503 l 372 -460 l 372 -412 q 414 -371 372 -371 l 414 -371 l 496 -371 q 528 -337 528 -371 l 528 -337 l 528 -319 l 408 -319 q 368 -308 379 -319 q 357 -265 357 -296 l 357 -265 l 357 -114 q 368 -71 357 -82 q 408 -60 379 -60 l 408 -60 l 628 -60 q 668 -71 657 -60 q 679 -114 679 -82 l 679 -114 l 679 -325 q 632 -458 679 -414 q 506 -503 585 -503 z "},"ķ":{"ha":1036,"x_min":96,"x_max":953,"o":"m 361 0 l 361 0 l 146 0 q 96 50 96 0 l 96 50 l 96 950 q 146 1000 96 1000 l 146 1000 l 361 1000 q 411 950 411 1000 l 411 950 l 411 631 l 467 631 l 610 954 q 679 1000 629 1000 l 679 1000 l 893 1000 q 924 954 943 1000 l 924 954 l 782 631 q 906 576 860 626 q 953 442 953 525 l 953 442 l 953 50 q 903 0 953 0 l 903 0 l 689 0 q 639 50 639 0 l 639 50 l 639 321 q 594 368 639 368 l 594 368 l 411 368 l 411 50 q 361 0 411 0 z m 506 -503 l 506 -503 l 414 -503 q 372 -460 372 -503 l 372 -460 l 372 -412 q 414 -371 372 -371 l 414 -371 l 496 -371 q 528 -337 528 -371 l 528 -337 l 528 -319 l 408 -319 q 368 -308 379 -319 q 357 -265 357 -296 l 357 -265 l 357 -114 q 368 -71 357 -82 q 408 -60 379 -60 l 408 -60 l 628 -60 q 668 -71 657 -60 q 679 -114 679 -82 l 679 -114 l 679 -325 q 632 -458 679 -414 q 506 -503 585 -503 z "},"ĸ":{"ha":1036,"x_min":96,"x_max":953,"o":"m 361 0 l 361 0 l 146 0 q 96 50 96 0 l 96 50 l 96 950 q 146 1000 96 1000 l 146 1000 l 361 1000 q 411 950 411 1000 l 411 950 l 411 631 l 467 631 l 610 954 q 679 1000 629 1000 l 679 1000 l 893 1000 q 924 954 943 1000 l 924 954 l 782 631 q 906 576 860 626 q 953 442 953 525 l 953 442 l 953 50 q 903 0 953 0 l 903 0 l 689 0 q 639 50 639 0 l 639 50 l 639 321 q 594 368 639 368 l 594 368 l 411 368 l 411 50 q 361 0 411 0 z "},"Ĺ":{"ha":965,"x_min":96,"x_max":903,"o":"m 853 0 l 853 0 l 146 0 q 96 50 96 0 l 96 50 l 96 950 q 146 1000 96 1000 l 146 1000 l 361 1000 q 411 950 411 1000 l 411 950 l 411 263 l 601 263 l 601 488 q 651 538 601 538 l 651 538 l 853 538 q 903 488 903 538 l 903 488 l 903 50 q 853 0 903 0 z m 628 1106 l 628 1106 l 143 1046 q 96 1092 96 1040 l 96 1092 l 96 1225 q 108 1262 96 1251 q 146 1275 119 1272 l 146 1275 l 631 1335 q 678 1289 678 1340 l 678 1289 l 678 1156 q 666 1119 678 1129 q 628 1106 654 1108 z "},"ĺ":{"ha":965,"x_min":96,"x_max":903,"o":"m 853 0 l 853 0 l 146 0 q 96 50 96 0 l 96 50 l 96 950 q 146 1000 96 1000 l 146 1000 l 361 1000 q 411 950 411 1000 l 411 950 l 411 263 l 601 263 l 601 488 q 651 538 601 538 l 651 538 l 853 538 q 903 488 903 538 l 903 488 l 903 50 q 853 0 903 0 z m 628 1106 l 628 1106 l 143 1046 q 96 1092 96 1040 l 96 1092 l 96 1225 q 108 1262 96 1251 q 146 1275 119 1272 l 146 1275 l 631 1335 q 678 1289 678 1340 l 678 1289 l 678 1156 q 666 1119 678 1129 q 628 1106 654 1108 z "},"Ļ":{"ha":965,"x_min":96,"x_max":903,"o":"m 853 0 l 853 0 l 146 0 q 96 50 96 0 l 96 50 l 96 950 q 146 1000 96 1000 l 146 1000 l 361 1000 q 411 950 411 1000 l 411 950 l 411 263 l 601 263 l 601 488 q 651 538 601 538 l 651 538 l 853 538 q 903 488 903 538 l 903 488 l 903 50 q 853 0 903 0 z m 493 -503 l 493 -503 l 401 -503 q 360 -460 360 -503 l 360 -460 l 360 -412 q 401 -371 360 -371 l 401 -371 l 483 -371 q 515 -337 515 -371 l 515 -337 l 515 -319 l 396 -319 q 356 -308 367 -319 q 344 -265 344 -296 l 344 -265 l 344 -114 q 356 -71 344 -82 q 396 -60 367 -60 l 396 -60 l 615 -60 q 656 -71 644 -60 q 667 -114 667 -82 l 667 -114 l 667 -325 q 619 -458 667 -414 q 493 -503 572 -503 z "},"ļ":{"ha":965,"x_min":96,"x_max":903,"o":"m 853 0 l 853 0 l 146 0 q 96 50 96 0 l 96 50 l 96 950 q 146 1000 96 1000 l 146 1000 l 361 1000 q 411 950 411 1000 l 411 950 l 411 263 l 601 263 l 601 488 q 651 538 601 538 l 651 538 l 853 538 q 903 488 903 538 l 903 488 l 903 50 q 853 0 903 0 z m 493 -503 l 493 -503 l 401 -503 q 360 -460 360 -503 l 360 -460 l 360 -412 q 401 -371 360 -371 l 401 -371 l 483 -371 q 515 -337 515 -371 l 515 -337 l 515 -319 l 396 -319 q 356 -308 367 -319 q 344 -265 344 -296 l 344 -265 l 344 -114 q 356 -71 344 -82 q 396 -60 367 -60 l 396 -60 l 615 -60 q 656 -71 644 -60 q 667 -114 667 -82 l 667 -114 l 667 -325 q 619 -458 667 -414 q 493 -503 572 -503 z "},"Ľ":{"ha":965,"x_min":96,"x_max":903,"o":"m 853 0 l 853 0 l 146 0 q 96 50 96 0 l 96 50 l 96 950 q 146 1000 96 1000 l 146 1000 l 361 1000 q 411 950 411 1000 l 411 950 l 411 263 l 601 263 l 601 488 q 651 538 601 538 l 651 538 l 853 538 q 903 488 903 538 l 903 488 l 903 50 q 853 0 903 0 z m 778 628 l 778 628 l 606 628 q 565 640 579 628 q 556 678 551 651 l 556 678 l 601 950 q 615 988 606 976 q 651 1000 625 1000 l 651 1000 l 843 1000 q 885 988 869 1000 q 893 950 900 975 l 893 950 l 828 678 q 813 640 822 653 q 778 628 804 628 z "},"ľ":{"ha":965,"x_min":96,"x_max":903,"o":"m 853 0 l 853 0 l 146 0 q 96 50 96 0 l 96 50 l 96 950 q 146 1000 96 1000 l 146 1000 l 361 1000 q 411 950 411 1000 l 411 950 l 411 263 l 601 263 l 601 488 q 651 538 601 538 l 651 538 l 853 538 q 903 488 903 538 l 903 488 l 903 50 q 853 0 903 0 z m 778 628 l 778 628 l 606 628 q 565 640 579 628 q 556 678 551 651 l 556 678 l 601 950 q 615 988 606 976 q 651 1000 625 1000 l 651 1000 l 843 1000 q 885 988 869 1000 q 893 950 900 975 l 893 950 l 828 678 q 813 640 822 653 q 778 628 804 628 z "},"Ŀ":{"ha":965,"x_min":96,"x_max":903,"o":"m 853 0 l 853 0 l 146 0 q 96 50 96 0 l 96 50 l 96 950 q 146 1000 96 1000 l 146 1000 l 361 1000 q 411 950 411 1000 l 411 950 l 411 263 l 601 263 l 601 376 q 651 426 601 426 l 651 426 l 853 426 q 903 376 903 426 l 903 376 l 903 50 q 853 0 903 0 z m 839 517 l 839 517 l 638 517 q 588 567 588 517 l 588 567 l 588 743 q 638 793 588 793 l 638 793 l 839 793 q 889 743 889 793 l 889 743 l 889 567 q 839 517 889 517 z "},"ŀ":{"ha":965,"x_min":96,"x_max":903,"o":"m 853 0 l 853 0 l 146 0 q 96 50 96 0 l 96 50 l 96 950 q 146 1000 96 1000 l 146 1000 l 361 1000 q 411 950 411 1000 l 411 950 l 411 263 l 601 263 l 601 376 q 651 426 601 426 l 651 426 l 853 426 q 903 376 903 426 l 903 376 l 903 50 q 853 0 903 0 z m 839 517 l 839 517 l 638 517 q 588 567 588 517 l 588 567 l 588 743 q 638 793 588 793 l 638 793 l 839 793 q 889 743 889 793 l 889 743 l 889 567 q 839 517 889 517 z "},"Ł":{"ha":979,"x_min":28,"x_max":917,"o":"m 28 446 l 28 594 q 40 631 28 621 q 78 644 51 640 l 78 644 l 110 650 l 110 950 q 160 1000 110 1000 l 160 1000 l 375 1000 q 425 950 425 1000 l 425 950 l 425 701 l 506 714 q 556 664 556 722 l 556 664 l 556 515 q 544 479 556 489 q 506 465 532 469 l 506 465 l 425 453 l 425 263 l 615 263 l 615 488 q 665 538 615 538 l 665 538 l 867 538 q 917 488 917 538 l 917 488 l 917 50 q 867 0 917 0 l 867 0 l 160 0 q 110 50 110 0 l 110 50 l 110 401 l 78 396 q 28 446 28 388 l 28 446 z "},"ł":{"ha":979,"x_min":28,"x_max":917,"o":"m 28 446 l 28 594 q 40 631 28 621 q 78 644 51 640 l 78 644 l 110 650 l 110 950 q 160 1000 110 1000 l 160 1000 l 375 1000 q 425 950 425 1000 l 425 950 l 425 701 l 506 714 q 556 664 556 722 l 556 664 l 556 515 q 544 479 556 489 q 506 465 532 469 l 506 465 l 425 453 l 425 263 l 615 263 l 615 488 q 665 538 615 538 l 665 538 l 867 538 q 917 488 917 538 l 917 488 l 917 50 q 867 0 917 0 l 867 0 l 160 0 q 110 50 110 0 l 110 50 l 110 401 l 78 396 q 28 446 28 388 l 28 446 z "},"Ń":{"ha":1046,"x_min":96,"x_max":950,"o":"m 354 0 l 354 0 l 146 0 q 96 50 96 0 l 96 50 l 96 950 q 146 1000 96 1000 l 146 1000 l 290 1000 q 372 963 340 1000 l 372 963 l 642 654 l 642 950 q 692 1000 642 1000 l 692 1000 l 900 1000 q 950 950 950 1000 l 950 950 l 950 50 q 900 0 950 0 l 900 0 l 692 0 q 642 50 642 0 l 642 50 l 642 221 l 404 508 l 404 50 q 354 0 404 0 z m 776 1106 l 776 1106 l 292 1046 q 244 1092 244 1040 l 244 1092 l 244 1225 q 256 1262 244 1251 q 294 1275 268 1272 l 294 1275 l 779 1335 q 826 1289 826 1340 l 826 1289 l 826 1156 q 815 1119 826 1129 q 776 1106 803 1108 z "},"ń":{"ha":1046,"x_min":96,"x_max":950,"o":"m 354 0 l 354 0 l 146 0 q 96 50 96 0 l 96 50 l 96 950 q 146 1000 96 1000 l 146 1000 l 290 1000 q 372 963 340 1000 l 372 963 l 642 654 l 642 950 q 692 1000 642 1000 l 692 1000 l 900 1000 q 950 950 950 1000 l 950 950 l 950 50 q 900 0 950 0 l 900 0 l 692 0 q 642 50 642 0 l 642 50 l 642 221 l 404 508 l 404 50 q 354 0 404 0 z m 776 1106 l 776 1106 l 292 1046 q 244 1092 244 1040 l 244 1092 l 244 1225 q 256 1262 244 1251 q 294 1275 268 1272 l 294 1275 l 779 1335 q 826 1289 826 1340 l 826 1289 l 826 1156 q 815 1119 826 1129 q 776 1106 803 1108 z "},"Ņ":{"ha":1046,"x_min":96,"x_max":950,"o":"m 354 0 l 354 0 l 146 0 q 96 50 96 0 l 96 50 l 96 950 q 146 1000 96 1000 l 146 1000 l 290 1000 q 372 963 340 1000 l 372 963 l 642 654 l 642 950 q 692 1000 642 1000 l 692 1000 l 900 1000 q 950 950 950 1000 l 950 950 l 950 50 q 900 0 950 0 l 900 0 l 692 0 q 642 50 642 0 l 642 50 l 642 221 l 404 508 l 404 50 q 354 0 404 0 z m 510 -503 l 510 -503 l 418 -503 q 376 -460 376 -503 l 376 -460 l 376 -412 q 418 -371 376 -371 l 418 -371 l 500 -371 q 532 -337 532 -371 l 532 -337 l 532 -319 l 413 -319 q 372 -308 383 -319 q 361 -265 361 -296 l 361 -265 l 361 -114 q 372 -71 361 -82 q 413 -60 383 -60 l 413 -60 l 632 -60 q 672 -71 661 -60 q 683 -114 683 -82 l 683 -114 l 683 -325 q 636 -458 683 -414 q 510 -503 589 -503 z "},"ņ":{"ha":1046,"x_min":96,"x_max":950,"o":"m 354 0 l 354 0 l 146 0 q 96 50 96 0 l 96 50 l 96 950 q 146 1000 96 1000 l 146 1000 l 290 1000 q 372 963 340 1000 l 372 963 l 642 654 l 642 950 q 692 1000 642 1000 l 692 1000 l 900 1000 q 950 950 950 1000 l 950 950 l 950 50 q 900 0 950 0 l 900 0 l 692 0 q 642 50 642 0 l 642 50 l 642 221 l 404 508 l 404 50 q 354 0 404 0 z m 510 -503 l 510 -503 l 418 -503 q 376 -460 376 -503 l 376 -460 l 376 -412 q 418 -371 376 -371 l 418 -371 l 500 -371 q 532 -337 532 -371 l 532 -337 l 532 -319 l 413 -319 q 372 -308 383 -319 q 361 -265 361 -296 l 361 -265 l 361 -114 q 372 -71 361 -82 q 413 -60 383 -60 l 413 -60 l 632 -60 q 672 -71 661 -60 q 683 -114 683 -82 l 683 -114 l 683 -325 q 636 -458 683 -414 q 510 -503 589 -503 z "},"Ň":{"ha":1046,"x_min":96,"x_max":950,"o":"m 354 0 l 354 0 l 146 0 q 96 50 96 0 l 96 50 l 96 950 q 146 1000 96 1000 l 146 1000 l 290 1000 q 372 963 340 1000 l 372 963 l 642 654 l 642 950 q 692 1000 642 1000 l 692 1000 l 900 1000 q 950 950 950 1000 l 950 950 l 950 50 q 900 0 950 0 l 900 0 l 692 0 q 642 50 642 0 l 642 50 l 642 221 l 404 508 l 404 50 q 354 0 404 0 z m 551 1294 l 551 1294 l 742 1350 q 788 1353 778 1361 q 799 1307 799 1344 l 799 1307 l 799 1194 q 787 1146 799 1157 q 742 1121 775 1135 l 742 1121 l 564 1057 q 537 1049 551 1051 q 510 1044 522 1046 l 510 1044 q 487 1046 497 1044 q 465 1051 476 1047 l 465 1051 l 275 1121 q 228 1146 240 1135 q 217 1194 217 1157 l 217 1194 l 217 1307 q 228 1353 217 1344 q 275 1350 239 1361 l 275 1350 l 465 1294 q 551 1294 508 1283 z "},"ň":{"ha":1046,"x_min":96,"x_max":950,"o":"m 354 0 l 354 0 l 146 0 q 96 50 96 0 l 96 50 l 96 950 q 146 1000 96 1000 l 146 1000 l 290 1000 q 372 963 340 1000 l 372 963 l 642 654 l 642 950 q 692 1000 642 1000 l 692 1000 l 900 1000 q 950 950 950 1000 l 950 950 l 950 50 q 900 0 950 0 l 900 0 l 692 0 q 642 50 642 0 l 642 50 l 642 221 l 404 508 l 404 50 q 354 0 404 0 z m 551 1294 l 551 1294 l 742 1350 q 788 1353 778 1361 q 799 1307 799 1344 l 799 1307 l 799 1194 q 787 1146 799 1157 q 742 1121 775 1135 l 742 1121 l 564 1057 q 537 1049 551 1051 q 510 1044 522 1046 l 510 1044 q 487 1046 497 1044 q 465 1051 476 1047 l 465 1051 l 275 1121 q 228 1146 240 1135 q 217 1194 217 1157 l 217 1194 l 217 1307 q 228 1353 217 1344 q 275 1350 239 1361 l 275 1350 l 465 1294 q 551 1294 508 1283 z "},"ŉ":{"ha":1046,"x_min":78,"x_max":950,"o":"m 354 0 l 354 0 l 146 0 q 96 50 96 0 l 96 50 l 96 950 q 146 1000 96 1000 l 146 1000 l 290 1000 q 372 963 340 1000 l 372 963 l 642 654 l 642 950 q 692 1000 642 1000 l 692 1000 l 900 1000 q 950 950 950 1000 l 950 950 l 950 50 q 900 0 950 0 l 900 0 l 692 0 q 642 50 642 0 l 642 50 l 642 221 l 404 508 l 404 50 q 354 0 404 0 z m 226 1043 l 226 1043 l 135 1043 q 93 1086 93 1043 l 93 1086 l 93 1133 q 135 1175 93 1175 l 135 1175 l 217 1175 q 249 1208 249 1175 l 249 1208 l 249 1226 l 129 1226 q 89 1238 100 1226 q 78 1281 78 1250 l 78 1281 l 78 1432 q 89 1475 78 1464 q 129 1486 100 1486 l 129 1486 l 349 1486 q 389 1475 378 1486 q 400 1432 400 1464 l 400 1432 l 400 1221 q 353 1088 400 1132 q 226 1043 306 1043 z "},"Ŋ":{"ha":1036,"x_min":89,"x_max":947,"o":"m 89 50 l 89 738 q 108 853 89 801 q 174 943 126 906 q 306 1001 222 981 q 518 1021 389 1021 l 518 1021 q 731 1001 647 1021 q 862 943 814 981 q 928 853 910 906 q 947 738 947 801 l 947 738 l 947 158 q 917 11 947 75 q 812 -89 886 -53 q 606 -125 738 -125 l 606 -125 l 543 -125 q 493 -75 493 -125 l 493 -75 l 493 90 q 543 140 493 140 l 543 140 l 572 140 q 619 159 608 140 q 629 207 629 178 l 629 207 l 629 683 q 609 730 629 711 q 515 749 589 749 l 515 749 q 421 730 442 749 q 400 683 400 711 l 400 683 l 400 50 q 350 0 400 0 l 350 0 l 139 0 q 89 50 89 0 l 89 50 z "},"ŋ":{"ha":1036,"x_min":89,"x_max":947,"o":"m 89 50 l 89 738 q 108 853 89 801 q 174 943 126 906 q 306 1001 222 981 q 518 1021 389 1021 l 518 1021 q 731 1001 647 1021 q 862 943 814 981 q 928 853 910 906 q 947 738 947 801 l 947 738 l 947 158 q 917 11 947 75 q 812 -89 886 -53 q 606 -125 738 -125 l 606 -125 l 543 -125 q 493 -75 493 -125 l 493 -75 l 493 90 q 543 140 493 140 l 543 140 l 572 140 q 619 159 608 140 q 629 207 629 178 l 629 207 l 629 683 q 609 730 629 711 q 515 749 589 749 l 515 749 q 421 730 442 749 q 400 683 400 711 l 400 683 l 400 50 q 350 0 400 0 l 350 0 l 139 0 q 89 50 89 0 l 89 50 z "},"Ō":{"ha":1024,"x_min":81,"x_max":943,"o":"m 943 736 l 943 263 q 924 147 943 199 q 858 57 906 94 q 727 -1 811 19 q 513 -21 643 -21 l 513 -21 q 298 -1 382 -21 q 167 57 214 19 q 100 147 119 94 q 81 263 81 199 l 81 263 l 81 736 q 100 852 81 800 q 167 942 119 904 q 298 1000 214 979 q 513 1021 382 1021 l 513 1021 q 727 1000 643 1021 q 858 942 811 979 q 924 852 906 904 q 943 736 943 800 l 943 736 z m 396 686 l 396 313 q 417 266 396 285 q 513 247 438 247 l 513 247 q 609 266 589 247 q 629 313 629 285 l 629 313 l 629 686 q 609 732 629 714 q 513 750 589 750 l 513 750 q 417 732 438 750 q 396 686 396 714 l 396 686 z m 751 1056 l 751 1056 l 269 1056 q 219 1106 219 1056 l 219 1106 l 219 1235 q 269 1285 219 1285 l 269 1285 l 751 1285 q 801 1235 801 1285 l 801 1235 l 801 1106 q 751 1056 801 1056 z "},"ō":{"ha":1024,"x_min":81,"x_max":943,"o":"m 943 736 l 943 263 q 924 147 943 199 q 858 57 906 94 q 727 -1 811 19 q 513 -21 643 -21 l 513 -21 q 298 -1 382 -21 q 167 57 214 19 q 100 147 119 94 q 81 263 81 199 l 81 263 l 81 736 q 100 852 81 800 q 167 942 119 904 q 298 1000 214 979 q 513 1021 382 1021 l 513 1021 q 727 1000 643 1021 q 858 942 811 979 q 924 852 906 904 q 943 736 943 800 l 943 736 z m 396 686 l 396 313 q 417 266 396 285 q 513 247 438 247 l 513 247 q 609 266 589 247 q 629 313 629 285 l 629 313 l 629 686 q 609 732 629 714 q 513 750 589 750 l 513 750 q 417 732 438 750 q 396 686 396 714 l 396 686 z m 751 1056 l 751 1056 l 269 1056 q 219 1106 219 1056 l 219 1106 l 219 1235 q 269 1285 219 1285 l 269 1285 l 751 1285 q 801 1235 801 1285 l 801 1235 l 801 1106 q 751 1056 801 1056 z "},"Ŏ":{"ha":1024,"x_min":81,"x_max":943,"o":"m 943 736 l 943 263 q 924 147 943 199 q 858 57 906 94 q 727 -1 811 19 q 513 -21 643 -21 l 513 -21 q 298 -1 382 -21 q 167 57 214 19 q 100 147 119 94 q 81 263 81 199 l 81 263 l 81 736 q 100 852 81 800 q 167 942 119 904 q 298 1000 214 979 q 513 1021 382 1021 l 513 1021 q 727 1000 643 1021 q 858 942 811 979 q 924 852 906 904 q 943 736 943 800 l 943 736 z m 396 686 l 396 313 q 417 266 396 285 q 513 247 438 247 l 513 247 q 609 266 589 247 q 629 313 629 285 l 629 313 l 629 686 q 609 732 629 714 q 513 750 589 750 l 513 750 q 417 732 438 750 q 396 686 396 714 l 396 686 z m 813 1307 l 813 1246 q 788 1142 813 1188 q 697 1072 763 1097 q 511 1047 632 1047 l 511 1047 q 325 1072 390 1047 q 235 1142 260 1097 q 210 1246 210 1188 l 210 1246 l 210 1307 q 260 1357 210 1357 l 260 1357 l 393 1357 q 424 1348 415 1357 q 433 1314 433 1339 l 433 1314 l 433 1285 q 447 1252 433 1265 q 513 1239 461 1239 l 513 1239 q 580 1252 565 1239 q 594 1285 594 1265 l 594 1285 l 594 1314 q 603 1348 594 1339 q 636 1357 613 1357 l 636 1357 l 763 1357 q 813 1307 813 1357 l 813 1307 z "},"ŏ":{"ha":1024,"x_min":81,"x_max":943,"o":"m 943 736 l 943 263 q 924 147 943 199 q 858 57 906 94 q 727 -1 811 19 q 513 -21 643 -21 l 513 -21 q 298 -1 382 -21 q 167 57 214 19 q 100 147 119 94 q 81 263 81 199 l 81 263 l 81 736 q 100 852 81 800 q 167 942 119 904 q 298 1000 214 979 q 513 1021 382 1021 l 513 1021 q 727 1000 643 1021 q 858 942 811 979 q 924 852 906 904 q 943 736 943 800 l 943 736 z m 396 686 l 396 313 q 417 266 396 285 q 513 247 438 247 l 513 247 q 609 266 589 247 q 629 313 629 285 l 629 313 l 629 686 q 609 732 629 714 q 513 750 589 750 l 513 750 q 417 732 438 750 q 396 686 396 714 l 396 686 z m 813 1307 l 813 1246 q 788 1142 813 1188 q 697 1072 763 1097 q 511 1047 632 1047 l 511 1047 q 325 1072 390 1047 q 235 1142 260 1097 q 210 1246 210 1188 l 210 1246 l 210 1307 q 260 1357 210 1357 l 260 1357 l 393 1357 q 424 1348 415 1357 q 433 1314 433 1339 l 433 1314 l 433 1285 q 447 1252 433 1265 q 513 1239 461 1239 l 513 1239 q 580 1252 565 1239 q 594 1285 594 1265 l 594 1285 l 594 1314 q 603 1348 594 1339 q 636 1357 613 1357 l 636 1357 l 763 1357 q 813 1307 813 1357 l 813 1307 z "},"Ő":{"ha":1024,"x_min":81,"x_max":943,"o":"m 943 736 l 943 263 q 924 147 943 199 q 858 57 906 94 q 727 -1 811 19 q 513 -21 643 -21 l 513 -21 q 298 -1 382 -21 q 167 57 214 19 q 100 147 119 94 q 81 263 81 199 l 81 263 l 81 736 q 100 852 81 800 q 167 942 119 904 q 298 1000 214 979 q 513 1021 382 1021 l 513 1021 q 727 1000 643 1021 q 858 942 811 979 q 924 852 906 904 q 943 736 943 800 l 943 736 z m 396 686 l 396 313 q 417 266 396 285 q 513 247 438 247 l 513 247 q 609 266 589 247 q 629 313 629 285 l 629 313 l 629 686 q 609 732 629 714 q 513 750 589 750 l 513 750 q 417 732 438 750 q 396 686 396 714 l 396 686 z m 206 1103 l 206 1103 l 279 1390 q 294 1428 286 1415 q 329 1440 303 1440 l 329 1440 l 476 1440 q 515 1428 500 1440 q 522 1393 529 1417 l 522 1393 l 449 1106 q 434 1068 443 1081 q 399 1056 425 1056 l 399 1056 l 251 1056 q 214 1068 228 1056 q 206 1103 200 1081 z m 567 1103 l 567 1103 l 640 1390 q 656 1428 647 1415 q 690 1440 664 1440 l 690 1440 l 838 1440 q 876 1428 861 1440 q 883 1393 890 1417 l 883 1393 l 810 1106 q 795 1068 804 1081 q 760 1056 786 1056 l 760 1056 l 613 1056 q 575 1068 589 1056 q 567 1103 561 1081 z "},"ő":{"ha":1024,"x_min":81,"x_max":943,"o":"m 943 736 l 943 263 q 924 147 943 199 q 858 57 906 94 q 727 -1 811 19 q 513 -21 643 -21 l 513 -21 q 298 -1 382 -21 q 167 57 214 19 q 100 147 119 94 q 81 263 81 199 l 81 263 l 81 736 q 100 852 81 800 q 167 942 119 904 q 298 1000 214 979 q 513 1021 382 1021 l 513 1021 q 727 1000 643 1021 q 858 942 811 979 q 924 852 906 904 q 943 736 943 800 l 943 736 z m 396 686 l 396 313 q 417 266 396 285 q 513 247 438 247 l 513 247 q 609 266 589 247 q 629 313 629 285 l 629 313 l 629 686 q 609 732 629 714 q 513 750 589 750 l 513 750 q 417 732 438 750 q 396 686 396 714 l 396 686 z m 206 1103 l 206 1103 l 279 1390 q 294 1428 286 1415 q 329 1440 303 1440 l 329 1440 l 476 1440 q 515 1428 500 1440 q 522 1393 529 1417 l 522 1393 l 449 1106 q 434 1068 443 1081 q 399 1056 425 1056 l 399 1056 l 251 1056 q 214 1068 228 1056 q 206 1103 200 1081 z m 567 1103 l 567 1103 l 640 1390 q 656 1428 647 1415 q 690 1440 664 1440 l 690 1440 l 838 1440 q 876 1428 861 1440 q 883 1393 890 1417 l 883 1393 l 810 1106 q 795 1068 804 1081 q 760 1056 786 1056 l 760 1056 l 613 1056 q 575 1068 589 1056 q 567 1103 561 1081 z "},"Œ":{"ha":1410,"x_min":81,"x_max":1342,"o":"m 1292 0 l 1292 0 l 422 0 q 217 36 292 0 q 111 136 142 72 q 81 283 81 200 l 81 283 l 81 717 q 111 865 81 801 q 217 964 142 928 q 422 1000 292 1000 l 422 1000 l 1292 1000 q 1342 950 1342 1000 l 1342 950 l 1342 788 q 1292 738 1342 738 l 1292 738 l 926 738 l 926 631 l 1179 631 q 1229 581 1229 631 l 1229 581 l 1229 432 q 1179 382 1229 382 l 1179 382 l 926 382 l 926 263 l 1292 263 q 1342 213 1342 263 l 1342 213 l 1342 50 q 1292 0 1342 0 z m 460 263 l 611 263 l 611 735 l 460 735 q 406 715 418 735 q 394 668 394 696 l 394 668 l 394 331 q 406 283 394 303 q 460 263 418 263 l 460 263 z "},"œ":{"ha":1410,"x_min":81,"x_max":1342,"o":"m 1292 0 l 1292 0 l 422 0 q 217 36 292 0 q 111 136 142 72 q 81 283 81 200 l 81 283 l 81 717 q 111 865 81 801 q 217 964 142 928 q 422 1000 292 1000 l 422 1000 l 1292 1000 q 1342 950 1342 1000 l 1342 950 l 1342 788 q 1292 738 1342 738 l 1292 738 l 926 738 l 926 631 l 1179 631 q 1229 581 1229 631 l 1229 581 l 1229 432 q 1179 382 1229 382 l 1179 382 l 926 382 l 926 263 l 1292 263 q 1342 213 1342 263 l 1342 213 l 1342 50 q 1292 0 1342 0 z m 460 263 l 611 263 l 611 735 l 460 735 q 406 715 418 735 q 394 668 394 696 l 394 668 l 394 331 q 406 283 394 303 q 460 263 418 263 l 460 263 z "},"Ŕ":{"ha":1032,"x_min":96,"x_max":972,"o":"m 360 0 l 360 0 l 146 0 q 96 50 96 0 l 96 50 l 96 950 q 146 1000 96 1000 l 146 1000 l 608 1000 q 772 971 713 1000 q 857 890 832 942 q 882 768 882 838 l 882 768 l 882 704 q 865 606 882 646 q 804 546 849 565 l 804 546 q 926 485 881 538 q 972 344 972 432 l 972 344 l 972 50 q 922 0 972 0 l 922 0 l 707 0 q 657 50 657 0 l 657 50 l 657 263 q 645 308 657 294 q 604 322 633 322 l 604 322 l 410 322 l 410 50 q 360 0 410 0 z m 514 750 l 410 750 l 410 572 l 514 572 q 563 591 550 572 q 575 638 575 610 l 575 638 l 575 685 q 563 731 575 713 q 514 750 550 750 l 514 750 z m 742 1106 l 742 1106 l 257 1046 q 210 1092 210 1040 l 210 1092 l 210 1225 q 222 1262 210 1251 q 260 1275 233 1272 l 260 1275 l 744 1335 q 792 1289 792 1340 l 792 1289 l 792 1156 q 780 1119 792 1129 q 742 1106 768 1108 z "},"ŕ":{"ha":1032,"x_min":96,"x_max":972,"o":"m 360 0 l 360 0 l 146 0 q 96 50 96 0 l 96 50 l 96 950 q 146 1000 96 1000 l 146 1000 l 608 1000 q 772 971 713 1000 q 857 890 832 942 q 882 768 882 838 l 882 768 l 882 704 q 865 606 882 646 q 804 546 849 565 l 804 546 q 926 485 881 538 q 972 344 972 432 l 972 344 l 972 50 q 922 0 972 0 l 922 0 l 707 0 q 657 50 657 0 l 657 50 l 657 263 q 645 308 657 294 q 604 322 633 322 l 604 322 l 410 322 l 410 50 q 360 0 410 0 z m 514 750 l 410 750 l 410 572 l 514 572 q 563 591 550 572 q 575 638 575 610 l 575 638 l 575 685 q 563 731 575 713 q 514 750 550 750 l 514 750 z m 742 1106 l 742 1106 l 257 1046 q 210 1092 210 1040 l 210 1092 l 210 1225 q 222 1262 210 1251 q 260 1275 233 1272 l 260 1275 l 744 1335 q 792 1289 792 1340 l 792 1289 l 792 1156 q 780 1119 792 1129 q 742 1106 768 1108 z "},"Ŗ":{"ha":1032,"x_min":96,"x_max":972,"o":"m 360 0 l 360 0 l 146 0 q 96 50 96 0 l 96 50 l 96 950 q 146 1000 96 1000 l 146 1000 l 608 1000 q 772 971 713 1000 q 857 890 832 942 q 882 768 882 838 l 882 768 l 882 704 q 865 606 882 646 q 804 546 849 565 l 804 546 q 926 485 881 538 q 972 344 972 432 l 972 344 l 972 50 q 922 0 972 0 l 922 0 l 707 0 q 657 50 657 0 l 657 50 l 657 263 q 645 308 657 294 q 604 322 633 322 l 604 322 l 410 322 l 410 50 q 360 0 410 0 z m 514 750 l 410 750 l 410 572 l 514 572 q 563 591 550 572 q 575 638 575 610 l 575 638 l 575 685 q 563 731 575 713 q 514 750 550 750 l 514 750 z m 517 -503 l 517 -503 l 425 -503 q 383 -460 383 -503 l 383 -460 l 383 -412 q 425 -371 383 -371 l 425 -371 l 507 -371 q 539 -337 539 -371 l 539 -337 l 539 -319 l 419 -319 q 379 -308 390 -319 q 368 -265 368 -296 l 368 -265 l 368 -114 q 379 -71 368 -82 q 419 -60 390 -60 l 419 -60 l 639 -60 q 679 -71 668 -60 q 690 -114 690 -82 l 690 -114 l 690 -325 q 643 -458 690 -414 q 517 -503 596 -503 z "},"ŗ":{"ha":1032,"x_min":96,"x_max":972,"o":"m 360 0 l 360 0 l 146 0 q 96 50 96 0 l 96 50 l 96 950 q 146 1000 96 1000 l 146 1000 l 608 1000 q 772 971 713 1000 q 857 890 832 942 q 882 768 882 838 l 882 768 l 882 704 q 865 606 882 646 q 804 546 849 565 l 804 546 q 926 485 881 538 q 972 344 972 432 l 972 344 l 972 50 q 922 0 972 0 l 922 0 l 707 0 q 657 50 657 0 l 657 50 l 657 263 q 645 308 657 294 q 604 322 633 322 l 604 322 l 410 322 l 410 50 q 360 0 410 0 z m 514 750 l 410 750 l 410 572 l 514 572 q 563 591 550 572 q 575 638 575 610 l 575 638 l 575 685 q 563 731 575 713 q 514 750 550 750 l 514 750 z m 517 -503 l 517 -503 l 425 -503 q 383 -460 383 -503 l 383 -460 l 383 -412 q 425 -371 383 -371 l 425 -371 l 507 -371 q 539 -337 539 -371 l 539 -337 l 539 -319 l 419 -319 q 379 -308 390 -319 q 368 -265 368 -296 l 368 -265 l 368 -114 q 379 -71 368 -82 q 419 -60 390 -60 l 419 -60 l 639 -60 q 679 -71 668 -60 q 690 -114 690 -82 l 690 -114 l 690 -325 q 643 -458 690 -414 q 517 -503 596 -503 z "},"Ř":{"ha":1032,"x_min":96,"x_max":972,"o":"m 360 0 l 360 0 l 146 0 q 96 50 96 0 l 96 50 l 96 950 q 146 1000 96 1000 l 146 1000 l 608 1000 q 772 971 713 1000 q 857 890 832 942 q 882 768 882 838 l 882 768 l 882 704 q 865 606 882 646 q 804 546 849 565 l 804 546 q 926 485 881 538 q 972 344 972 432 l 972 344 l 972 50 q 922 0 972 0 l 922 0 l 707 0 q 657 50 657 0 l 657 50 l 657 263 q 645 308 657 294 q 604 322 633 322 l 604 322 l 410 322 l 410 50 q 360 0 410 0 z m 514 750 l 410 750 l 410 572 l 514 572 q 563 591 550 572 q 575 638 575 610 l 575 638 l 575 685 q 563 731 575 713 q 514 750 550 750 l 514 750 z m 558 1294 l 558 1294 l 749 1350 q 795 1353 785 1361 q 806 1307 806 1344 l 806 1307 l 806 1194 q 794 1146 806 1157 q 749 1121 782 1135 l 749 1121 l 571 1057 q 544 1049 558 1051 q 517 1044 529 1046 l 517 1044 q 494 1046 504 1044 q 472 1051 483 1047 l 472 1051 l 282 1121 q 235 1146 247 1135 q 224 1194 224 1157 l 224 1194 l 224 1307 q 235 1353 224 1344 q 282 1350 246 1361 l 282 1350 l 472 1294 q 558 1294 515 1283 z "},"ř":{"ha":1032,"x_min":96,"x_max":972,"o":"m 360 0 l 360 0 l 146 0 q 96 50 96 0 l 96 50 l 96 950 q 146 1000 96 1000 l 146 1000 l 608 1000 q 772 971 713 1000 q 857 890 832 942 q 882 768 882 838 l 882 768 l 882 704 q 865 606 882 646 q 804 546 849 565 l 804 546 q 926 485 881 538 q 972 344 972 432 l 972 344 l 972 50 q 922 0 972 0 l 922 0 l 707 0 q 657 50 657 0 l 657 50 l 657 263 q 645 308 657 294 q 604 322 633 322 l 604 322 l 410 322 l 410 50 q 360 0 410 0 z m 514 750 l 410 750 l 410 572 l 514 572 q 563 591 550 572 q 575 638 575 610 l 575 638 l 575 685 q 563 731 575 713 q 514 750 550 750 l 514 750 z m 558 1294 l 558 1294 l 749 1350 q 795 1353 785 1361 q 806 1307 806 1344 l 806 1307 l 806 1194 q 794 1146 806 1157 q 749 1121 782 1135 l 749 1121 l 571 1057 q 544 1049 558 1051 q 517 1044 529 1046 l 517 1044 q 494 1046 504 1044 q 472 1051 483 1047 l 472 1051 l 282 1121 q 235 1146 247 1135 q 224 1194 224 1157 l 224 1194 l 224 1307 q 235 1353 224 1344 q 282 1350 246 1361 l 282 1350 l 472 1294 q 558 1294 515 1283 z "},"Ś":{"ha":903,"x_min":71,"x_max":847,"o":"m 560 0 l 560 0 l 121 0 q 71 50 71 0 l 71 50 l 71 213 q 121 263 71 263 l 121 263 l 494 263 q 522 274 513 263 q 531 303 531 286 l 531 303 q 522 338 531 326 q 494 350 513 349 l 494 350 l 286 379 q 130 444 189 394 q 71 610 71 493 l 71 610 l 71 756 q 147 938 71 875 q 358 1000 224 1000 l 358 1000 l 747 1000 q 797 950 797 1000 l 797 950 l 797 785 q 747 735 797 735 l 747 735 l 424 735 q 386 693 386 735 l 386 693 q 424 649 386 653 l 424 649 l 631 621 q 744 587 696 611 q 820 515 793 563 q 847 390 847 468 l 847 390 l 847 244 q 771 63 847 126 q 560 0 694 0 z m 706 1106 l 706 1106 l 221 1046 q 174 1092 174 1040 l 174 1092 l 174 1225 q 185 1262 174 1251 q 224 1275 197 1272 l 224 1275 l 708 1335 q 756 1289 756 1340 l 756 1289 l 756 1156 q 744 1119 756 1129 q 706 1106 732 1108 z "},"ś":{"ha":903,"x_min":71,"x_max":847,"o":"m 560 0 l 560 0 l 121 0 q 71 50 71 0 l 71 50 l 71 213 q 121 263 71 263 l 121 263 l 494 263 q 522 274 513 263 q 531 303 531 286 l 531 303 q 522 338 531 326 q 494 350 513 349 l 494 350 l 286 379 q 130 444 189 394 q 71 610 71 493 l 71 610 l 71 756 q 147 938 71 875 q 358 1000 224 1000 l 358 1000 l 747 1000 q 797 950 797 1000 l 797 950 l 797 785 q 747 735 797 735 l 747 735 l 424 735 q 386 693 386 735 l 386 693 q 424 649 386 653 l 424 649 l 631 621 q 744 587 696 611 q 820 515 793 563 q 847 390 847 468 l 847 390 l 847 244 q 771 63 847 126 q 560 0 694 0 z m 706 1106 l 706 1106 l 221 1046 q 174 1092 174 1040 l 174 1092 l 174 1225 q 185 1262 174 1251 q 224 1275 197 1272 l 224 1275 l 708 1335 q 756 1289 756 1340 l 756 1289 l 756 1156 q 744 1119 756 1129 q 706 1106 732 1108 z "},"Ŝ":{"ha":903,"x_min":71,"x_max":847,"o":"m 560 0 l 560 0 l 121 0 q 71 50 71 0 l 71 50 l 71 213 q 121 263 71 263 l 121 263 l 494 263 q 522 274 513 263 q 531 303 531 286 l 531 303 q 522 338 531 326 q 494 350 513 349 l 494 350 l 286 379 q 130 444 189 394 q 71 610 71 493 l 71 610 l 71 756 q 147 938 71 875 q 358 1000 224 1000 l 358 1000 l 747 1000 q 797 950 797 1000 l 797 950 l 797 785 q 747 735 797 735 l 747 735 l 424 735 q 386 693 386 735 l 386 693 q 424 649 386 653 l 424 649 l 631 621 q 744 587 696 611 q 820 515 793 563 q 847 390 847 468 l 847 390 l 847 244 q 771 63 847 126 q 560 0 694 0 z m 407 1107 l 407 1107 l 217 1051 q 171 1049 182 1040 q 160 1094 160 1057 l 160 1094 l 160 1207 q 172 1256 160 1244 q 217 1281 183 1267 l 217 1281 l 394 1344 q 422 1353 407 1350 q 449 1357 436 1356 l 449 1357 q 472 1356 461 1357 q 493 1350 483 1354 l 493 1350 l 683 1281 q 731 1256 719 1267 q 742 1207 742 1244 l 742 1207 l 742 1094 q 731 1049 742 1057 q 683 1051 719 1040 l 683 1051 l 493 1107 q 407 1107 450 1118 z "},"ŝ":{"ha":903,"x_min":71,"x_max":847,"o":"m 560 0 l 560 0 l 121 0 q 71 50 71 0 l 71 50 l 71 213 q 121 263 71 263 l 121 263 l 494 263 q 522 274 513 263 q 531 303 531 286 l 531 303 q 522 338 531 326 q 494 350 513 349 l 494 350 l 286 379 q 130 444 189 394 q 71 610 71 493 l 71 610 l 71 756 q 147 938 71 875 q 358 1000 224 1000 l 358 1000 l 747 1000 q 797 950 797 1000 l 797 950 l 797 785 q 747 735 797 735 l 747 735 l 424 735 q 386 693 386 735 l 386 693 q 424 649 386 653 l 424 649 l 631 621 q 744 587 696 611 q 820 515 793 563 q 847 390 847 468 l 847 390 l 847 244 q 771 63 847 126 q 560 0 694 0 z m 407 1107 l 407 1107 l 217 1051 q 171 1049 182 1040 q 160 1094 160 1057 l 160 1094 l 160 1207 q 172 1256 160 1244 q 217 1281 183 1267 l 217 1281 l 394 1344 q 422 1353 407 1350 q 449 1357 436 1356 l 449 1357 q 472 1356 461 1357 q 493 1350 483 1354 l 493 1350 l 683 1281 q 731 1256 719 1267 q 742 1207 742 1244 l 742 1207 l 742 1094 q 731 1049 742 1057 q 683 1051 719 1040 l 683 1051 l 493 1107 q 407 1107 450 1118 z "},"Ş":{"ha":903,"x_min":71,"x_max":847,"o":"m 471 -175 l 471 -175 l 296 -175 q 253 -160 261 -175 q 254 -119 244 -144 l 254 -119 l 299 0 l 121 0 q 71 50 71 0 l 71 50 l 71 213 q 121 263 71 263 l 121 263 l 494 263 q 522 274 513 263 q 531 303 531 286 l 531 303 q 522 338 531 326 q 494 350 513 349 l 494 350 l 286 379 q 130 444 189 394 q 71 610 71 493 l 71 610 l 71 756 q 147 938 71 875 q 358 1000 224 1000 l 358 1000 l 747 1000 q 797 950 797 1000 l 797 950 l 797 785 q 747 735 797 735 l 747 735 l 424 735 q 386 693 386 735 l 386 693 q 424 649 386 653 l 424 649 l 631 621 q 744 587 696 611 q 820 515 793 563 q 847 390 847 468 l 847 390 l 847 244 q 777 68 847 131 q 582 0 707 6 l 582 0 l 535 -133 q 471 -175 521 -175 z "},"ş":{"ha":903,"x_min":71,"x_max":847,"o":"m 471 -175 l 471 -175 l 296 -175 q 253 -160 261 -175 q 254 -119 244 -144 l 254 -119 l 299 0 l 121 0 q 71 50 71 0 l 71 50 l 71 213 q 121 263 71 263 l 121 263 l 494 263 q 522 274 513 263 q 531 303 531 286 l 531 303 q 522 338 531 326 q 494 350 513 349 l 494 350 l 286 379 q 130 444 189 394 q 71 610 71 493 l 71 610 l 71 756 q 147 938 71 875 q 358 1000 224 1000 l 358 1000 l 747 1000 q 797 950 797 1000 l 797 950 l 797 785 q 747 735 797 735 l 747 735 l 424 735 q 386 693 386 735 l 386 693 q 424 649 386 653 l 424 649 l 631 621 q 744 587 696 611 q 820 515 793 563 q 847 390 847 468 l 847 390 l 847 244 q 777 68 847 131 q 582 0 707 6 l 582 0 l 535 -133 q 471 -175 521 -175 z "},"Š":{"ha":903,"x_min":71,"x_max":847,"o":"m 560 0 l 560 0 l 121 0 q 71 50 71 0 l 71 50 l 71 213 q 121 263 71 263 l 121 263 l 494 263 q 522 274 513 263 q 531 303 531 286 l 531 303 q 522 338 531 326 q 494 350 513 349 l 494 350 l 286 379 q 130 444 189 394 q 71 610 71 493 l 71 610 l 71 756 q 147 938 71 875 q 358 1000 224 1000 l 358 1000 l 747 1000 q 797 950 797 1000 l 797 950 l 797 785 q 747 735 797 735 l 747 735 l 424 735 q 386 693 386 735 l 386 693 q 424 649 386 653 l 424 649 l 631 621 q 744 587 696 611 q 820 515 793 563 q 847 390 847 468 l 847 390 l 847 244 q 771 63 847 126 q 560 0 694 0 z m 508 1294 l 508 1294 l 699 1350 q 745 1353 735 1361 q 756 1307 756 1344 l 756 1307 l 756 1194 q 744 1146 756 1157 q 699 1121 732 1135 l 699 1121 l 521 1057 q 494 1049 508 1051 q 467 1044 479 1046 l 467 1044 q 444 1046 454 1044 q 422 1051 433 1047 l 422 1051 l 232 1121 q 185 1146 197 1135 q 174 1194 174 1157 l 174 1194 l 174 1307 q 185 1353 174 1344 q 232 1350 196 1361 l 232 1350 l 422 1294 q 508 1294 465 1283 z "},"š":{"ha":903,"x_min":71,"x_max":847,"o":"m 560 0 l 560 0 l 121 0 q 71 50 71 0 l 71 50 l 71 213 q 121 263 71 263 l 121 263 l 494 263 q 522 274 513 263 q 531 303 531 286 l 531 303 q 522 338 531 326 q 494 350 513 349 l 494 350 l 286 379 q 130 444 189 394 q 71 610 71 493 l 71 610 l 71 756 q 147 938 71 875 q 358 1000 224 1000 l 358 1000 l 747 1000 q 797 950 797 1000 l 797 950 l 797 785 q 747 735 797 735 l 747 735 l 424 735 q 386 693 386 735 l 386 693 q 424 649 386 653 l 424 649 l 631 621 q 744 587 696 611 q 820 515 793 563 q 847 390 847 468 l 847 390 l 847 244 q 771 63 847 126 q 560 0 694 0 z m 508 1294 l 508 1294 l 699 1350 q 745 1353 735 1361 q 756 1307 756 1344 l 756 1307 l 756 1194 q 744 1146 756 1157 q 699 1121 732 1135 l 699 1121 l 521 1057 q 494 1049 508 1051 q 467 1044 479 1046 l 467 1044 q 444 1046 454 1044 q 422 1051 433 1047 l 422 1051 l 232 1121 q 185 1146 197 1135 q 174 1194 174 1157 l 174 1194 l 174 1307 q 185 1353 174 1344 q 232 1350 196 1361 l 232 1350 l 422 1294 q 508 1294 465 1283 z "},"Ţ":{"ha":911,"x_min":39,"x_max":872,"o":"m 568 0 l 568 0 l 343 0 q 293 50 293 0 l 293 50 l 293 732 l 89 732 q 39 782 39 732 l 39 782 l 39 950 q 89 1000 39 1000 l 89 1000 l 822 1000 q 872 950 872 1000 l 872 950 l 872 782 q 822 732 872 732 l 822 732 l 618 732 l 618 50 q 568 0 618 0 z m 443 -503 l 443 -503 l 351 -503 q 310 -460 310 -503 l 310 -460 l 310 -412 q 351 -371 310 -371 l 351 -371 l 433 -371 q 465 -337 465 -371 l 465 -337 l 465 -319 l 346 -319 q 306 -308 317 -319 q 294 -265 294 -296 l 294 -265 l 294 -114 q 306 -71 294 -82 q 346 -60 317 -60 l 346 -60 l 565 -60 q 606 -71 594 -60 q 617 -114 617 -82 l 617 -114 l 617 -325 q 569 -458 617 -414 q 443 -503 522 -503 z "},"Ț":{"ha":911,"x_min":39,"x_max":872,"o":"m 568 0 l 568 0 l 343 0 q 293 50 293 0 l 293 50 l 293 732 l 89 732 q 39 782 39 732 l 39 782 l 39 950 q 89 1000 39 1000 l 89 1000 l 822 1000 q 872 950 872 1000 l 872 950 l 872 782 q 822 732 872 732 l 822 732 l 618 732 l 618 50 q 568 0 618 0 z m 443 -503 l 443 -503 l 351 -503 q 310 -460 310 -503 l 310 -460 l 310 -412 q 351 -371 310 -371 l 351 -371 l 433 -371 q 465 -337 465 -371 l 465 -337 l 465 -319 l 346 -319 q 306 -308 317 -319 q 294 -265 294 -296 l 294 -265 l 294 -114 q 306 -71 294 -82 q 346 -60 317 -60 l 346 -60 l 565 -60 q 606 -71 594 -60 q 617 -114 617 -82 l 617 -114 l 617 -325 q 569 -458 617 -414 q 443 -503 522 -503 z "},"ţ":{"ha":911,"x_min":39,"x_max":872,"o":"m 568 0 l 568 0 l 343 0 q 293 50 293 0 l 293 50 l 293 732 l 89 732 q 39 782 39 732 l 39 782 l 39 950 q 89 1000 39 1000 l 89 1000 l 822 1000 q 872 950 872 1000 l 872 950 l 872 782 q 822 732 872 732 l 822 732 l 618 732 l 618 50 q 568 0 618 0 z m 443 -503 l 443 -503 l 351 -503 q 310 -460 310 -503 l 310 -460 l 310 -412 q 351 -371 310 -371 l 351 -371 l 433 -371 q 465 -337 465 -371 l 465 -337 l 465 -319 l 346 -319 q 306 -308 317 -319 q 294 -265 294 -296 l 294 -265 l 294 -114 q 306 -71 294 -82 q 346 -60 317 -60 l 346 -60 l 565 -60 q 606 -71 594 -60 q 617 -114 617 -82 l 617 -114 l 617 -325 q 569 -458 617 -414 q 443 -503 522 -503 z "},"ț":{"ha":911,"x_min":39,"x_max":872,"o":"m 568 0 l 568 0 l 343 0 q 293 50 293 0 l 293 50 l 293 732 l 89 732 q 39 782 39 732 l 39 782 l 39 950 q 89 1000 39 1000 l 89 1000 l 822 1000 q 872 950 872 1000 l 872 950 l 872 782 q 822 732 872 732 l 822 732 l 618 732 l 618 50 q 568 0 618 0 z m 443 -503 l 443 -503 l 351 -503 q 310 -460 310 -503 l 310 -460 l 310 -412 q 351 -371 310 -371 l 351 -371 l 433 -371 q 465 -337 465 -371 l 465 -337 l 465 -319 l 346 -319 q 306 -308 317 -319 q 294 -265 294 -296 l 294 -265 l 294 -114 q 306 -71 294 -82 q 346 -60 317 -60 l 346 -60 l 565 -60 q 606 -71 594 -60 q 617 -114 617 -82 l 617 -114 l 617 -325 q 569 -458 617 -414 q 443 -503 522 -503 z "},"Ť":{"ha":911,"x_min":39,"x_max":872,"o":"m 568 0 l 568 0 l 343 0 q 293 50 293 0 l 293 50 l 293 732 l 89 732 q 39 782 39 732 l 39 782 l 39 950 q 89 1000 39 1000 l 89 1000 l 822 1000 q 872 950 872 1000 l 872 950 l 872 782 q 822 732 872 732 l 822 732 l 618 732 l 618 50 q 568 0 618 0 z m 499 1294 l 499 1294 l 689 1350 q 735 1353 725 1361 q 746 1307 746 1344 l 746 1307 l 746 1194 q 734 1146 746 1157 q 689 1121 722 1135 l 689 1121 l 511 1057 q 484 1049 499 1051 q 457 1044 469 1046 l 457 1044 q 434 1046 444 1044 q 413 1051 424 1047 l 413 1051 l 222 1121 q 176 1146 188 1135 q 164 1194 164 1157 l 164 1194 l 164 1307 q 175 1353 164 1344 q 222 1350 186 1361 l 222 1350 l 413 1294 q 499 1294 456 1283 z "},"ť":{"ha":911,"x_min":39,"x_max":872,"o":"m 568 0 l 568 0 l 343 0 q 293 50 293 0 l 293 50 l 293 732 l 89 732 q 39 782 39 732 l 39 782 l 39 950 q 89 1000 39 1000 l 89 1000 l 822 1000 q 872 950 872 1000 l 872 950 l 872 782 q 822 732 872 732 l 822 732 l 618 732 l 618 50 q 568 0 618 0 z m 499 1294 l 499 1294 l 689 1350 q 735 1353 725 1361 q 746 1307 746 1344 l 746 1307 l 746 1194 q 734 1146 746 1157 q 689 1121 722 1135 l 689 1121 l 511 1057 q 484 1049 499 1051 q 457 1044 469 1046 l 457 1044 q 434 1046 444 1044 q 413 1051 424 1047 l 413 1051 l 222 1121 q 176 1146 188 1135 q 164 1194 164 1157 l 164 1194 l 164 1307 q 175 1353 164 1344 q 222 1350 186 1361 l 222 1350 l 413 1294 q 499 1294 456 1283 z "},"Ŧ":{"ha":911,"x_min":39,"x_max":872,"o":"m 724 308 l 724 308 l 618 308 l 618 50 q 568 0 618 0 l 568 0 l 343 0 q 293 50 293 0 l 293 50 l 293 308 l 186 308 q 136 358 136 308 l 136 358 l 136 507 q 186 557 136 557 l 186 557 l 293 557 l 293 732 l 89 732 q 39 782 39 732 l 39 782 l 39 950 q 89 1000 39 1000 l 89 1000 l 822 1000 q 872 950 872 1000 l 872 950 l 872 782 q 822 732 872 732 l 822 732 l 618 732 l 618 557 l 724 557 q 774 507 774 557 l 774 507 l 774 358 q 724 308 774 308 z "},"ŧ":{"ha":911,"x_min":39,"x_max":872,"o":"m 724 308 l 724 308 l 618 308 l 618 50 q 568 0 618 0 l 568 0 l 343 0 q 293 50 293 0 l 293 50 l 293 308 l 186 308 q 136 358 136 308 l 136 358 l 136 507 q 186 557 136 557 l 186 557 l 293 557 l 293 732 l 89 732 q 39 782 39 732 l 39 782 l 39 950 q 89 1000 39 1000 l 89 1000 l 822 1000 q 872 950 872 1000 l 872 950 l 872 782 q 822 732 872 732 l 822 732 l 618 732 l 618 557 l 724 557 q 774 507 774 557 l 774 507 l 774 358 q 724 308 774 308 z "},"Ũ":{"ha":1036,"x_min":89,"x_max":947,"o":"m 947 950 l 947 263 q 928 147 947 199 q 862 57 910 94 q 731 -1 814 19 q 518 -21 647 -21 l 518 -21 q 306 -1 389 -21 q 174 57 222 19 q 108 147 126 94 q 89 263 89 199 l 89 263 l 89 950 q 139 1000 89 1000 l 139 1000 l 357 1000 q 407 950 407 1000 l 407 950 l 407 317 q 428 270 407 289 q 521 251 449 251 l 521 251 q 615 270 594 251 q 636 317 636 289 l 636 317 l 636 950 q 686 1000 636 1000 l 686 1000 l 897 1000 q 947 950 947 1000 l 947 950 z m 539 1058 l 517 1061 l 478 1067 q 394 1076 425 1075 q 339 1071 364 1076 q 276 1054 314 1065 l 276 1054 q 226 1090 226 1040 l 226 1090 l 226 1231 q 240 1267 226 1257 q 276 1288 253 1278 l 276 1288 q 347 1304 319 1300 q 406 1306 375 1308 q 493 1294 438 1303 l 493 1294 l 493 1294 l 517 1292 l 547 1288 q 635 1277 606 1279 q 688 1280 665 1275 q 747 1296 711 1285 l 747 1296 q 757 1299 753 1297 l 757 1299 q 807 1263 807 1314 l 807 1263 l 807 1122 q 794 1085 807 1096 q 757 1065 781 1075 l 757 1065 q 686 1049 714 1053 q 626 1047 658 1044 q 539 1058 594 1050 l 539 1058 z "},"ũ":{"ha":1036,"x_min":89,"x_max":947,"o":"m 947 950 l 947 263 q 928 147 947 199 q 862 57 910 94 q 731 -1 814 19 q 518 -21 647 -21 l 518 -21 q 306 -1 389 -21 q 174 57 222 19 q 108 147 126 94 q 89 263 89 199 l 89 263 l 89 950 q 139 1000 89 1000 l 139 1000 l 357 1000 q 407 950 407 1000 l 407 950 l 407 317 q 428 270 407 289 q 521 251 449 251 l 521 251 q 615 270 594 251 q 636 317 636 289 l 636 317 l 636 950 q 686 1000 636 1000 l 686 1000 l 897 1000 q 947 950 947 1000 l 947 950 z m 539 1058 l 517 1061 l 478 1067 q 394 1076 425 1075 q 339 1071 364 1076 q 276 1054 314 1065 l 276 1054 q 226 1090 226 1040 l 226 1090 l 226 1231 q 240 1267 226 1257 q 276 1288 253 1278 l 276 1288 q 347 1304 319 1300 q 406 1306 375 1308 q 493 1294 438 1303 l 493 1294 l 493 1294 l 517 1292 l 547 1288 q 635 1277 606 1279 q 688 1280 665 1275 q 747 1296 711 1285 l 747 1296 q 757 1299 753 1297 l 757 1299 q 807 1263 807 1314 l 807 1263 l 807 1122 q 794 1085 807 1096 q 757 1065 781 1075 l 757 1065 q 686 1049 714 1053 q 626 1047 658 1044 q 539 1058 594 1050 l 539 1058 z "},"Ū":{"ha":1036,"x_min":89,"x_max":947,"o":"m 947 950 l 947 263 q 928 147 947 199 q 862 57 910 94 q 731 -1 814 19 q 518 -21 647 -21 l 518 -21 q 306 -1 389 -21 q 174 57 222 19 q 108 147 126 94 q 89 263 89 199 l 89 263 l 89 950 q 139 1000 89 1000 l 139 1000 l 357 1000 q 407 950 407 1000 l 407 950 l 407 317 q 428 270 407 289 q 521 251 449 251 l 521 251 q 615 270 594 251 q 636 317 636 289 l 636 317 l 636 950 q 686 1000 636 1000 l 686 1000 l 897 1000 q 947 950 947 1000 l 947 950 z m 758 1056 l 758 1056 l 276 1056 q 226 1106 226 1056 l 226 1106 l 226 1235 q 276 1285 226 1285 l 276 1285 l 758 1285 q 808 1235 808 1285 l 808 1235 l 808 1106 q 758 1056 808 1056 z "},"ū":{"ha":1036,"x_min":89,"x_max":947,"o":"m 947 950 l 947 263 q 928 147 947 199 q 862 57 910 94 q 731 -1 814 19 q 518 -21 647 -21 l 518 -21 q 306 -1 389 -21 q 174 57 222 19 q 108 147 126 94 q 89 263 89 199 l 89 263 l 89 950 q 139 1000 89 1000 l 139 1000 l 357 1000 q 407 950 407 1000 l 407 950 l 407 317 q 428 270 407 289 q 521 251 449 251 l 521 251 q 615 270 594 251 q 636 317 636 289 l 636 317 l 636 950 q 686 1000 636 1000 l 686 1000 l 897 1000 q 947 950 947 1000 l 947 950 z m 758 1056 l 758 1056 l 276 1056 q 226 1106 226 1056 l 226 1106 l 226 1235 q 276 1285 226 1285 l 276 1285 l 758 1285 q 808 1235 808 1285 l 808 1235 l 808 1106 q 758 1056 808 1056 z "}}}
